<?xml version="1.0" encoding="iso-8859-1"?>
<!-- Generator: Adobe Illustrator 19.0.0, SVG Export Plug-In . SVG Version: 6.00 Build 0)  -->
<svg version="1.1" id="Capa_1" xmlns="http://www.w3.org/2000/svg" xmlns:xlink="http://www.w3.org/1999/xlink" x="0px" y="0px"
	 viewBox="0 0 512 512" style="enable-background:new 0 0 512 512;" xml:space="preserve" fill="white">
<g>
	<g>
		<g>
			<polygon points="207.312,399.312 260,346.624 312.688,399.312 335.312,376.688 282.624,324 335.312,271.312 312.688,248.688 
				260,301.376 207.312,248.688 184.688,271.312 237.376,324 184.688,376.688 			"/>
			<path d="M320,64V0H192v64H64v96h32v64h32v-64h256v320H128v-96H96v128h320V160h32V64H320z M224,32h64v32h-64V32z M416,128H96V96
				h320V128z"/>
			<rect x="96" y="256" width="32" height="32"/>
			<rect x="96" y="320" width="32" height="32"/>
		</g>
	</g>
</g>
<g>
</g>
<g>
</g>
<g>
</g>
<g>
</g>
<g>
</g>
<g>
</g>
<g>
</g>
<g>
</g>
<g>
</g>
<g>
</g>
<g>
</g>
<g>
</g>
<g>
</g>
<g>
</g>
<g>
</g>
</svg>
