<svg xmlns="http://www.w3.org/2000/svg" xmlns:xlink="http://www.w3.org/1999/xlink" viewBox="0 0 419.68 389.79"><defs><style>.cls-1{fill:none;}.cls-2{isolation:isolate;}.cls-3{fill:#acdee8;}.cls-4{fill:#76b9cf;}.cls-5{fill:#9dbdcf;}.cls-6{fill:#516a7d;}.cls-7{fill:#8ba7ba;}.cls-8{fill:#2a3942;}.cls-9{fill:#e8d127;}.cls-10{fill:#fff74d;}.cls-11{fill:#48b59d;}.cls-12{fill:#effffb;}.cls-13{fill:#4d3426;}.cls-14,.cls-29{fill:#fff200;}.cls-14,.cls-28{opacity:0.52;mix-blend-mode:overlay;}.cls-15{fill:#ffb980;}.cls-16{fill:#ff7657;}.cls-17{fill:#ef5b51;}.cls-18{clip-path:url(#clip-path);}.cls-19{fill:#3c464f;}.cls-20{fill:#345480;}.cls-21{fill:#294873;}.cls-22{fill:#40628f;}.cls-23{fill:#d64238;}.cls-24{fill:#d49f55;}.cls-25{fill:#f0cd9c;}.cls-26{fill:#d1773b;}.cls-27{fill:#4a6570;}.cls-30{fill:#fff;}.cls-31{fill:#398f7c;}.cls-32{fill:#a8652d;}.cls-33{fill:#3d535c;}.cls-34{fill:#59889c;}.cls-35{fill:#729cad;}.cls-36{fill:#96431f;}</style><clipPath id="clip-path"><path class="cls-1" d="M131,375.22a6.54,6.54,0,0,1-4.51,1.7l-73.63,2.62c-3.16,0-5.85-2.13-6.11-4.85l-4.11-42.5c17.62-25.08,54.85-77,75.66-106.06l14.3,145.08A4.79,4.79,0,0,1,131,375.22Z"/></clipPath></defs><title>Recurso 7</title><g class="cls-2"><g id="Capa_2" data-name="Capa 2"><g id="OBJECTS"><path class="cls-3" d="M164.27,338.41a261.13,261.13,0,0,1-26.39-11C83.34,301,39,252,22.4,193.16c-14-49.5-5-116.11,48.87-137.64a79.61,79.61,0,0,1,41.85-4.59c14.56,2.32,27.38,10.41,42.06,12.65,51.87,7.91,86.78-44.8,137.07-46,19.62-.48,43.3,5.26,58.51,18.27,19.57,16.75,31.75,41.68,41.93,64.84,10.79,24.57,18.69,50.6,21.15,77.41,6,65.12-25.72,126.44-84,156.79C279.13,361.25,216.83,357.08,164.27,338.41Z"/><circle class="cls-4" cx="308.77" cy="28.95" r="15.84" transform="translate(228.94 328.62) rotate(-80.44)"/><rect class="cls-4" x="308.35" y="3.48" width="0.85" height="25.47"/><path class="cls-4" d="M312.25,3.48A3.48,3.48,0,1,1,308.77,0,3.48,3.48,0,0,1,312.25,3.48Z"/><rect class="cls-4" x="301.98" y="5.19" width="0.85" height="25.47" transform="translate(31.55 153.6) rotate(-30)"/><path class="cls-4" d="M299.05,5.15a3.48,3.48,0,1,1-4.75-1.27A3.49,3.49,0,0,1,299.05,5.15Z"/><rect class="cls-4" x="297.32" y="9.85" width="0.85" height="25.47" transform="translate(129.32 269.14) rotate(-60)"/><path class="cls-4" d="M288.46,13.2a3.48,3.48,0,1,1-4.76,1.27A3.48,3.48,0,0,1,288.46,13.2Z"/><rect class="cls-4" x="283.3" y="28.52" width="25.47" height="0.85"/><circle class="cls-4" cx="283.3" cy="28.95" r="3.48"/><rect class="cls-4" x="285.01" y="34.89" width="25.47" height="0.85" transform="translate(22.22 153.58) rotate(-29.99)"/><path class="cls-4" d="M285,38.67a3.48,3.48,0,1,1-1.28,4.75A3.48,3.48,0,0,1,285,38.67Z"/><rect class="cls-4" x="289.67" y="39.55" width="25.47" height="0.85" transform="translate(116.58 281.88) rotate(-60)"/><path class="cls-4" d="M293,49.26A3.48,3.48,0,1,1,294.3,54,3.49,3.49,0,0,1,293,49.26Z"/><rect class="cls-4" x="308.35" y="28.95" width="0.85" height="25.47"/><circle class="cls-4" cx="308.77" cy="54.42" r="3.48"/><rect class="cls-4" x="314.71" y="27.24" width="0.85" height="25.47" transform="translate(22.23 162.93) rotate(-30)"/><path class="cls-4" d="M318.49,52.74A3.48,3.48,0,1,1,323.25,54,3.47,3.47,0,0,1,318.49,52.74Z"/><rect class="cls-4" x="319.37" y="22.58" width="0.85" height="25.47" transform="translate(129.32 294.61) rotate(-60)"/><path class="cls-4" d="M329.09,44.7a3.48,3.48,0,1,1,4.75-1.28A3.49,3.49,0,0,1,329.09,44.7Z"/><rect class="cls-4" x="308.77" y="28.52" width="25.47" height="0.85"/><path class="cls-4" d="M334.24,32.43A3.48,3.48,0,1,1,337.72,29,3.48,3.48,0,0,1,334.24,32.43Z"/><rect class="cls-4" x="307.07" y="22.15" width="25.47" height="0.85" transform="translate(31.55 162.92) rotate(-30)"/><path class="cls-4" d="M332.57,19.23a3.48,3.48,0,1,1,1.27-4.76A3.49,3.49,0,0,1,332.57,19.23Z"/><rect class="cls-4" x="302.41" y="17.49" width="25.47" height="0.85" transform="translate(142.08 281.9) rotate(-60.01)"/><path class="cls-4" d="M324.52,8.63a3.48,3.48,0,1,1-1.27-4.75A3.47,3.47,0,0,1,324.52,8.63Z"/><path class="cls-4" d="M411.37,274.91a9.55,9.55,0,1,1-5.57-12.3A9.55,9.55,0,0,1,411.37,274.91Z"/><rect class="cls-4" x="397.46" y="264.1" width="15.35" height="0.52" transform="translate(15.02 550.42) rotate(-69.38)"/><path class="cls-4" d="M409.81,257.91a2.1,2.1,0,1,1-1.23-2.7A2.1,2.1,0,0,1,409.81,257.91Z"/><rect class="cls-4" x="400.93" y="256.29" width="0.52" height="15.35" transform="translate(-37.66 68.93) rotate(-9.38)"/><path class="cls-4" d="M402,256.05a2.1,2.1,0,1,1-2.41-1.72A2.1,2.1,0,0,1,402,256.05Z"/><rect class="cls-4" x="397.31" y="257.93" width="0.52" height="15.35" transform="translate(-78.25 312.56) rotate(-39.38)"/><path class="cls-4" d="M394.32,258.35a2.1,2.1,0,1,1-2.95-.29A2.11,2.11,0,0,1,394.32,258.35Z"/><rect class="cls-4" x="395" y="261.16" width="0.52" height="15.35" transform="translate(4.45 544.11) rotate(-69.38)"/><path class="cls-4" d="M388.81,264.17a2.1,2.1,0,1,1-2.71,1.23A2.1,2.1,0,0,1,388.81,264.17Z"/><rect class="cls-4" x="387.19" y="272.54" width="15.35" height="0.52" transform="translate(-39.12 67.86) rotate(-9.36)"/><path class="cls-4" d="M387,272a2.1,2.1,0,1,1-1.73,2.41A2.09,2.09,0,0,1,387,272Z"/><rect class="cls-4" x="388.83" y="276.16" width="15.35" height="0.52" transform="translate(-85.35 314.29) rotate(-39.38)"/><path class="cls-4" d="M389.24,279.66a2.1,2.1,0,1,1-.29,2.95A2.1,2.1,0,0,1,389.24,279.66Z"/><rect class="cls-4" x="392.06" y="278.47" width="15.35" height="0.52" transform="translate(-1.91 554.7) rotate(-69.38)"/><path class="cls-4" d="M395.07,285.17a2.1,2.1,0,1,1,1.22,2.71A2.1,2.1,0,0,1,395.07,285.17Z"/><rect class="cls-4" x="403.43" y="271.44" width="0.52" height="15.35" transform="translate(-40.1 69.55) rotate(-9.38)"/><path class="cls-4" d="M402.87,287a2.1,2.1,0,1,1,2.41,1.73A2.09,2.09,0,0,1,402.87,287Z"/><rect class="cls-4" x="407.05" y="269.8" width="0.52" height="15.35" transform="translate(-83.57 321.44) rotate(-39.38)"/><path class="cls-4" d="M410.56,284.74a2.1,2.1,0,1,1,2.95.29A2.09,2.09,0,0,1,410.56,284.74Z"/><rect class="cls-4" x="409.36" y="266.57" width="0.52" height="15.35" transform="translate(8.7 561.06) rotate(-69.38)"/><path class="cls-4" d="M416.07,278.91a2.1,2.1,0,1,1,2.7-1.22A2.09,2.09,0,0,1,416.07,278.91Z"/><rect class="cls-4" x="402.33" y="270.03" width="15.35" height="0.52" transform="matrix(0.99, -0.16, 0.16, 0.99, -38.59, 70.48)"/><path class="cls-4" d="M417.93,271.11a2.1,2.1,0,1,1,1.72-2.41A2.1,2.1,0,0,1,417.93,271.11Z"/><rect class="cls-4" x="400.69" y="266.41" width="15.35" height="0.52" transform="translate(-76.46 319.75) rotate(-39.39)"/><path class="cls-4" d="M415.63,263.42a2.1,2.1,0,0,1-2.66-3.24,2.1,2.1,0,1,1,2.66,3.24Z"/><path class="cls-4" d="M187.58,54.37A9.55,9.55,0,1,1,182,42.07,9.55,9.55,0,0,1,187.58,54.37Z"/><rect class="cls-4" x="173.67" y="43.56" width="15.35" height="0.52" transform="translate(76.46 198.11) rotate(-69.38)"/><path class="cls-4" d="M186,37.37a2.1,2.1,0,1,1-1.23-2.7A2.1,2.1,0,0,1,186,37.37Z"/><rect class="cls-4" x="177.14" y="35.75" width="0.52" height="15.35" transform="translate(-4.71 29.5) rotate(-9.38)"/><path class="cls-4" d="M178.21,35.51a2.1,2.1,0,1,1-2.41-1.72A2.1,2.1,0,0,1,178.21,35.51Z"/><rect class="cls-4" x="173.52" y="37.39" width="0.52" height="15.35" transform="translate(10.86 120.49) rotate(-39.38)"/><path class="cls-4" d="M170.53,37.81a2.1,2.1,0,1,1-3-.29A2.11,2.11,0,0,1,170.53,37.81Z"/><rect class="cls-4" x="171.2" y="40.62" width="0.52" height="15.35" transform="translate(65.88 191.77) rotate(-69.38)"/><path class="cls-4" d="M165,43.63a2.1,2.1,0,1,1-2.71,1.23A2.1,2.1,0,0,1,165,43.63Z"/><rect class="cls-4" x="163.4" y="52" width="15.35" height="0.52" transform="translate(-6.23 28.55) rotate(-9.37)"/><path class="cls-4" d="M163.16,51.44a2.1,2.1,0,1,1-1.73,2.41A2.09,2.09,0,0,1,163.16,51.44Z"/><rect class="cls-4" x="165.04" y="55.62" width="15.35" height="0.52" transform="translate(3.77 122.28) rotate(-39.38)"/><path class="cls-4" d="M165.45,59.12a2.1,2.1,0,1,1-.29,3A2.1,2.1,0,0,1,165.45,59.12Z"/><rect class="cls-4" x="168.27" y="57.93" width="15.35" height="0.52" transform="translate(59.52 202.37) rotate(-69.38)"/><path class="cls-4" d="M171.28,64.63a2.1,2.1,0,1,1,1.22,2.71A2.09,2.09,0,0,1,171.28,64.63Z"/><rect class="cls-4" x="179.64" y="50.9" width="0.52" height="15.35" transform="translate(-7.14 30.11) rotate(-9.38)"/><path class="cls-4" d="M179.08,66.49a2.1,2.1,0,1,1,2.41,1.73A2.09,2.09,0,0,1,179.08,66.49Z"/><rect class="cls-4" x="183.26" y="49.26" width="0.52" height="15.35" transform="translate(5.54 129.37) rotate(-39.38)"/><path class="cls-4" d="M186.77,64.2a2.1,2.1,0,1,1,2.95.29A2.09,2.09,0,0,1,186.77,64.2Z"/><rect class="cls-4" x="185.57" y="46.03" width="0.52" height="15.35" transform="translate(70.13 208.72) rotate(-69.38)"/><circle class="cls-4" cx="193.02" cy="56.41" r="2.1" transform="translate(55.74 203.35) rotate(-63.24)"/><rect class="cls-4" x="178.54" y="49.5" width="15.35" height="0.52" transform="translate(-5.62 31.03) rotate(-9.38)"/><path class="cls-4" d="M194.14,50.57a2.1,2.1,0,1,1,1.72-2.41A2.1,2.1,0,0,1,194.14,50.57Z"/><rect class="cls-4" x="176.9" y="45.88" width="15.35" height="0.52" transform="translate(12.64 127.59) rotate(-39.38)"/><path class="cls-4" d="M191.84,42.88a2.1,2.1,0,1,1,.29-3A2.09,2.09,0,0,1,191.84,42.88Z"/><ellipse class="cls-5" cx="213.06" cy="382.51" rx="103.35" ry="7.29"/><ellipse class="cls-5" cx="339.13" cy="382.51" rx="63.31" ry="7.29"/><path class="cls-6" d="M114.14,382.15l-73.63,2.61c-6.35,0-11.63-4.18-12.16-9.63L0,82.6c-.59-6.13,5-11.38,12.16-11.38l73.63,2.61c6.34,0,11.63,4.19,12.15,9.63l28.31,287.32C126.89,376.9,121.27,382.15,114.14,382.15Z"/><path class="cls-7" d="M124.42,382.15l-73.63,2.61c-6.34,0-11.63-4.18-12.16-9.63L10.32,82.6c-.59-6.13,5-11.38,12.16-11.38l73.63,2.61c6.34,0,11.63,4.19,12.15,9.63l28.31,287.32C137.17,376.9,131.56,382.15,124.42,382.15Z"/><path class="cls-8" d="M126.44,382.15l-73.63,2.61c-6.34,0-11.63-4.18-12.15-9.63L12.35,82.6c-.6-6.13,5-11.38,12.15-11.38l73.63,2.61c6.35,0,11.63,4.19,12.16,9.63L138.6,370.78C139.19,376.9,133.58,382.15,126.44,382.15Z"/><path class="cls-9" d="M131,375.22a6.54,6.54,0,0,1-4.51,1.7l-73.63,2.62c-3.16,0-5.85-2.13-6.11-4.85l-4.11-42.5L18.4,82.16a4.78,4.78,0,0,1,1.59-4,6.56,6.56,0,0,1,4.51-1.7l73.63,2.61c3.16,0,5.85,2.12,6.11,4.84l14,142.23,14.3,145.08A4.79,4.79,0,0,1,131,375.22Z"/><polygon class="cls-10" points="116.81 209.46 38.61 291.07 34.17 245.11 115.07 193.8 116.81 209.46"/><path class="cls-10" d="M131,375.22a6.54,6.54,0,0,1-4.51,1.7l-73.63,2.62c-3.16,0-5.85-2.13-6.11-4.85l-4.11-42.5c17.62-25.08,54.85-77,75.66-106.06l14.3,145.08A4.79,4.79,0,0,1,131,375.22Z"/><path class="cls-8" d="M43.87,76.45l3.82,5.88a4,4,0,0,0,3,1.32L81.56,84a4,4,0,0,0,3.23-1.52l3.5-6.07Z"/><ellipse class="cls-11" cx="62.04" cy="330.14" rx="8.82" ry="14.63" transform="translate(-26.21 6.02) rotate(-4.59)"/><ellipse class="cls-11" cx="87.37" cy="328.01" rx="8.82" ry="14.63" transform="translate(-25.96 8.04) rotate(-4.59)"/><path class="cls-11" d="M120.81,324.91c.65,8-2.76,14.9-7.62,15.29s-9.32-5.83-10-13.88,2.76-14.9,7.62-15.29S120.17,316.85,120.81,324.91Z"/><ellipse class="cls-12" cx="73.28" cy="182.75" rx="30.68" ry="50.89" transform="translate(-14.16 6.34) rotate(-4.51)"/><path class="cls-11" d="M56.21,191.17l14.71,17a4.51,4.51,0,0,0,7.61-1.29l16-40.1a4.53,4.53,0,0,0,0-3.43l0-.06a4.52,4.52,0,0,0-8.37.07L72.67,197.06l-9.54-11.71a4.52,4.52,0,0,0-8,2.52h0A4.52,4.52,0,0,0,56.21,191.17Z"/><path class="cls-12" d="M50.39,266.31a2.18,2.18,0,0,1-.12-4.35L113,258.48a2.18,2.18,0,0,1,.24,4.35l-62.71,3.48Z"/><path class="cls-12" d="M97.43,109.6h-.06l-62.71-1.74a2.18,2.18,0,0,1,.12-4.35l62.71,1.74a2.18,2.18,0,0,1-.06,4.35Z"/><path class="cls-12" d="M50.39,283.08a2.18,2.18,0,0,1-.15-4.35L113,274.38a2.18,2.18,0,0,1,.3,4.34l-62.71,4.36Z"/><path class="cls-13" d="M133.75,134.44s-4.11-14.11-4.34-16.39-1.52-9.68,2.17-11.86,1.51-8.71,5.43-10c4.29-1.43,9.65-1.18,14.1-1,5.51.19,12.63,2.71,15,8.33,1.73,4.15-.39,11.67-1.33,16Z"/><path class="cls-14" d="M133,118.05c-.24-2.28-1.52-9.68,2.17-11.86s1.51-8.71,5.43-10a26.78,26.78,0,0,1,7.54-1.12c-3.74-.09-7.78,0-11.17,1.12-3.92,1.31-1.74,7.84-5.43,10s-2.41,9.58-2.17,11.86,4.34,16.39,4.34,16.39l3.19-1.54C135.87,129.18,133.23,119.87,133,118.05Z"/><g id="POLYLINE-2" data-name="POLYLINE"><path class="cls-15" d="M162.47,134.22a6.15,6.15,0,0,1-2.3,3.94c-3.39,2.46-9,.3-10.59,5.32-.34,1.09-1,2.6-1.36,4.08a4.34,4.34,0,0,0,.28,3.29c.27.42.78.85.66,1.41s-.78.85-1.25,1a7.44,7.44,0,0,1-3.08.24c-4.38-.34-12.91-2.35-14.1-7.56a8.34,8.34,0,0,1,.5-4.2c1.55-5.18,5-12.23,4.16-17.7a13.62,13.62,0,0,1-2-1.31,3.83,3.83,0,0,1-.81-2.6,6.31,6.31,0,0,1,3.58-4.82c3.16-1.48,4.39,2.72,5.42,5,.37.79.8,1.78,1.81,1.37a2.87,2.87,0,0,0,2.06-2.64,7.15,7.15,0,0,1,.06-3c.87-2.26,3.61-3.31,5.08-5.11,1.1-1.34,1-2.54,1.08-4.13,0-1.18,1.34-1.63,2.3-2,1.76-.67,4.81-1.76,6.61-.61,1.14.74,1.53,2.36,2,3.54.51,1.37,1.22,2.66,1.62,4.06C165.85,117.82,163.77,128.29,162.47,134.22Z"/></g><g id="POLYLINE-3" data-name="POLYLINE"><path class="cls-14" d="M138.2,127.29c.34-4.57.72-8.2.81-9.18.1-1.2.16-2.55-.64-3.44-2.07-2.31-5.71,3.89-5.78,5.49a3.83,3.83,0,0,0,.81,2.6,13.62,13.62,0,0,0,2,1.31c.82,5.47-2.61,12.52-4.16,17.7a8.34,8.34,0,0,0-.5,4.2c.82,3.61,5.17,5.68,9.22,6.73C136.86,151.9,137.44,137.33,138.2,127.29Z"/><path class="cls-15" d="M164.2,111.84c-.4-1.4-1.11-2.69-1.62-4.06-.46-1.18-.85-2.8-2-3.54-1.69-1.08-4.48-.19-6.28.48.23,7.76,1.31,15.52-4.24,21.06-1.74,2.62-7.84-.87-8.71,1.75A40.6,40.6,0,0,0,140,152.7a30.35,30.35,0,0,0,4.88.83,7.44,7.44,0,0,0,3.08-.24c.47-.18,1.13-.49,1.25-1s-.39-1-.66-1.41a4.34,4.34,0,0,1-.28-3.29c.33-1.48,1-3,1.36-4.08,1.59-5,7.2-2.86,10.59-5.32a6.15,6.15,0,0,0,2.3-3.94C163.77,128.29,165.85,117.82,164.2,111.84Z"/></g><path class="cls-16" d="M159,138.4h.23c-1.67,1.15-3.71,1.09-5.62,1.6a5.16,5.16,0,0,0-4,3.48c-.42,1.35-.94,2.79-1.41,4.06-1.14-1-1.24-2.93-1.52-4.3a21.15,21.15,0,0,1-.42-3.89c-.08-3.79,3.19-2.27,5.64-1.86A51.16,51.16,0,0,0,159,138.4Z"/><path class="cls-11" d="M161.56,123.24c-3.33-.46-10.62.55-13.45,1a.34.34,0,0,0-.09-.37c-1.15-1-2.3-2.21-3.54-3.15s-2.78-1.76-4.14-2.62c.63,1.49,1.54,1.88,2.71,2.84,1.43,1.16,2.87,2.3,4.34,3.41l-.45.07a12.19,12.19,0,0,0-1,5.84,21.75,21.75,0,0,0,.34,2.78c.13.69.67,1.59.36,2.28a13.84,13.84,0,0,1-3.21-2.33,46.73,46.73,0,0,1-8.77-9.38,21.74,21.74,0,0,1,1,2.34,14,14,0,0,0,1.88,2.4c1,1.19,2.15,2.27,3.2,3.43a14.16,14.16,0,0,0,2.38,2.2,16.24,16.24,0,0,0,2,1.23c.3.15,1.84.57,1.93.84.17.51.29.81.29.81s5.15,6,11.84,1.56,5.63-12.87,5.63-12.87S165.75,123.82,161.56,123.24Z"/><path class="cls-14" d="M149.76,124l-1.65.24a.34.34,0,0,0-.09-.37c-1.15-1-2.3-2.21-3.54-3.15s-2.78-1.76-4.14-2.62c.63,1.49,1.54,1.88,2.71,2.84,1.43,1.16,2.87,2.3,4.34,3.41l-.45.07a12.19,12.19,0,0,0-1,5.84,21.75,21.75,0,0,0,.34,2.78c.13.69.67,1.59.36,2.28a13.84,13.84,0,0,1-3.21-2.33,46.73,46.73,0,0,1-8.77-9.38,21.74,21.74,0,0,1,1,2.34,14,14,0,0,0,1.88,2.4c1,1.19,2.15,2.27,3.2,3.43a14.16,14.16,0,0,0,2.38,2.2,16.24,16.24,0,0,0,2,1.23c.3.15,1.84.57,1.93.84.17.51.29.81.29.81a10,10,0,0,0,6,3.17A24.39,24.39,0,0,1,149.76,124Z"/><g id="POLYLINE-4" data-name="POLYLINE"><path class="cls-17" d="M152.08,151.24c-1,1.47-3,2.76-4.8,2.21a8.21,8.21,0,0,1-2.14-1.21c-1.21-.81-2.41-1.61-3.65-2.36a37.23,37.23,0,0,0-7.27-3.59c-1.11-.37-2.26-.53-3.41-.8-.81-.19-1.42-.48-1.4-1.41a14.31,14.31,0,0,1,.65-3.12,3.58,3.58,0,0,1,1.07-2.06c1.24-.92,3.3.13,4.47.67,2.65,1.26,5.07,2.94,7.56,4.44a31.57,31.57,0,0,0,6.63,2.91c1.33.44,2.92,1.05,2.82,2.73A3.24,3.24,0,0,1,152.08,151.24Z"/></g><g class="cls-18"><g id="POLYLINE-5" data-name="POLYLINE"><path class="cls-19" d="M104.83,373.82c-3.23-2.12-2.91-6.54-4.31-9.68a22.29,22.29,0,0,0-8.77-9.5c-4.12-2.39-10.49-3.5-14.72-.69-3.37,2.23-7.53,8.22-3.76,11.75,7.79,7.39,19,14.48,29.32,17.65,2.23.68,6.51,2.89,8.09.12,1-1.7,1.8-4.34.61-6.28C109.91,374.92,106.89,375.18,104.83,373.82Z"/></g><path class="cls-14" d="M78.85,368c-3.77-3.53.39-9.52,3.76-11.76,2.7-1.8,6.28-2,9.58-1.27-.15-.09-.29-.2-.44-.28-4.12-2.39-10.49-3.5-14.72-.69-3.37,2.23-7.53,8.22-3.76,11.75,7.38,7,17.84,13.72,27.68,17.1A84.38,84.38,0,0,1,78.85,368Z"/></g><g id="POLYLINE-6" data-name="POLYLINE"><path class="cls-20" d="M149.32,293.14c-1.25,5.22-1.22,10.64-5.14,14.92a21,21,0,0,1-3.23,2.78c-.81.61-1.63,1.18-2.43,1.78a61.29,61.29,0,0,0-5.39,4.56,76.49,76.49,0,0,0-8.85,10.32c-3.16,4.27-6.19,8.75-9.82,12.67a60,60,0,0,1-5.45,5,16.5,16.5,0,0,0-3.38,3.4c-.7,1.08-1,2.36-1.61,3.46-.82,1.36-2.41,1.94-3.39,3.15a5.07,5.07,0,0,0-1.2,4c.21,1.33,1.15,3-.32,3.91s-3.12.92-4.59,1.25c-2.53.57-4.74,1.13-7.17-.05-2.8-1.38-4.35-3.68-6-6.19a11.59,11.59,0,0,0-2.54-2.45,4.08,4.08,0,0,1-1.4-3.08,8.13,8.13,0,0,1,1.75-5.33,35.49,35.49,0,0,1,5.08-4.87c1.82-1.6,3.63-3.23,5.37-4.93a78.21,78.21,0,0,0,9.49-11.36c2.88-4.17,5.5-8.53,8.41-12.69a56.46,56.46,0,0,1,9.64-10.78c3.37-2.89,7.58-5.6,9.63-9.69a41.65,41.65,0,0,0,2-5.69c2.41-7,.49-15-.09-22.34-.49-6.07-.78-12.84,3.11-17.55l4.19,1a7.39,7.39,0,0,1,3.84.27,10.51,10.51,0,0,1,2.43,1.24l4.38,1.06-1,1.93a33.8,33.8,0,0,1,7.78,14,31.7,31.7,0,0,1,1.08,5.85C155.12,280.16,151,286,149.32,293.14Z"/></g><path class="cls-14" d="M86.54,363.31A11.77,11.77,0,0,0,84,360.87a4.12,4.12,0,0,1-1.41-3.08,8.19,8.19,0,0,1,1.76-5.33,36.11,36.11,0,0,1,5.08-4.88c1.82-1.59,3.63-3.22,5.37-4.92a78.21,78.21,0,0,0,9.49-11.36c2.88-4.17,5.5-8.53,8.4-12.69a56.85,56.85,0,0,1,9.65-10.78c3.37-2.89,7.58-5.6,9.63-9.69a43.18,43.18,0,0,0,2-5.7c2.41-7,.49-15-.09-22.33-.49-6.08-.78-12.84,3.11-17.55l4.19,1a7.39,7.39,0,0,1,3.84.27,10.51,10.51,0,0,1,2.43,1.24h0c-.6-.78-1.22-1.53-1.89-2.25l1-1.93-4.38-1.06a10.51,10.51,0,0,0-2.43-1.24,7.39,7.39,0,0,0-3.84-.27l-4.19-1c-3.89,4.71-3.6,11.48-3.11,17.55.58,7.33,2.5,15.32.09,22.34a41.65,41.65,0,0,1-2,5.69c-2,4.09-6.26,6.8-9.63,9.69a56.46,56.46,0,0,0-9.64,10.78c-2.91,4.16-5.53,8.52-8.41,12.69a78.21,78.21,0,0,1-9.49,11.36c-1.74,1.7-3.55,3.33-5.37,4.93a35.49,35.49,0,0,0-5.08,4.87,8.13,8.13,0,0,0-1.75,5.33,4.08,4.08,0,0,0,1.4,3.08,11.59,11.59,0,0,1,2.54,2.45c1.63,2.43,3.15,4.65,5.78,6C86.91,363.86,86.72,363.59,86.54,363.31Z"/><path class="cls-21" d="M149.32,293.14c-1.25,5.22-1.22,10.64-5.14,14.92a21,21,0,0,1-3.23,2.78c-1.14-7.84,2.33-12.83,2.26-20.53s-6.89-11.36-7.79-18.1q-.42-3.25-.81-6.51c-.63-5.42-1.46-11.9,5.53-9.4a18.61,18.61,0,0,1,2.92,1.34,36.29,36.29,0,0,1,10.3,9.2,31.7,31.7,0,0,1,1.08,5.85C155.12,280.16,151,286,149.32,293.14Z"/><g id="POLYLINE-7" data-name="POLYLINE"><path class="cls-22" d="M131.07,249.1a18.45,18.45,0,0,0,1.9,7,20.45,20.45,0,0,0,3.72,4.72c1.95,1.93,4.12,3.63,6,5.6a30.57,30.57,0,0,1,4.54,6.4c2.93,5.19,5.66,10.53,9.09,15.42,1.53,2.19,3.51,4,5.06,6.17.89,1.25,1.05,2.77,1.79,4.06.9,1.54,2.3,2.61,2.78,4.4a6.66,6.66,0,0,1-.11,3.78c-.36,1.11-.92,2.14-1.3,3.24a23,23,0,0,0-1,3.64c-.43,2.25-.67,4.52-.9,6.79-.71,6.78-1.43,13.56-2.11,20.34-.29,2.89-.54,5.78-.67,8.68a24.93,24.93,0,0,0,.24,6.63c.37,1.68,1.26,2.84.64,4.6-.53,1.47-1.61,2.6-2.29,4a19.27,19.27,0,0,0-1.29,6c-.17,1.25-.62,3.21.12,4.4s2.89.87,4.09.68a41.07,41.07,0,0,0,7.72-1.9,31.44,31.44,0,0,0,6.29-3.17c1.81-1.16,4.11-2.53,5.19-4.47.89-1.58.74-3.6.81-5.35.09-2.47.91-4.73,1.27-7.16.81-5.47-.1-11.08.64-16.57.4-2.88,1.17-5.68,1.65-8.55a54.16,54.16,0,0,0,.44-8.16,16.7,16.7,0,0,1,1-5.81c.76-2,2-3.82,2.18-5.95a35.6,35.6,0,0,0-.45-7.43,40.66,40.66,0,0,0-1.55-8c-.88-2.68-2.45-5.07-3.48-7.69-1.18-3-2.09-6.08-3.09-9.13-1.84-5.63-4.16-11.07-6.32-16.57-1-2.64-1.92-5.34-3-8a10.46,10.46,0,0,0-2.39-3.85,8.31,8.31,0,0,1-2.11-3.09"/></g><path class="cls-14" d="M166.64,370.57a19.57,19.57,0,0,1,1.3-6c.68-1.39,1.76-2.52,2.29-4,.62-1.76-.27-2.92-.64-4.6a24.52,24.52,0,0,1-.24-6.63c.13-2.9.38-5.79.67-8.68.68-6.78,1.4-13.56,2.11-20.34.23-2.27.47-4.54.9-6.79a23,23,0,0,1,1-3.64c.38-1.1.94-2.13,1.3-3.24a6.57,6.57,0,0,0,.1-3.78c-.47-1.79-1.87-2.86-2.77-4.4-.75-1.29-.9-2.81-1.79-4.06-1.56-2.16-3.53-4-5.07-6.17-3.42-4.89-6.15-10.23-9.08-15.42a30.57,30.57,0,0,0-4.54-6.4c-1.91-2-4.08-3.67-6-5.6a20.45,20.45,0,0,1-3.72-4.72,18.45,18.45,0,0,1-1.9-7l26.3-3.23a9,9,0,0,1-.53-1.08l-35.19,4.31a18.45,18.45,0,0,0,1.9,7,20.45,20.45,0,0,0,3.72,4.72c1.95,1.93,4.12,3.63,6,5.6a30.57,30.57,0,0,1,4.54,6.4c2.93,5.19,5.66,10.53,9.09,15.42,1.53,2.19,3.51,4,5.06,6.17.89,1.25,1.05,2.77,1.79,4.06.9,1.54,2.3,2.61,2.78,4.4a6.66,6.66,0,0,1-.11,3.78c-.36,1.11-.92,2.14-1.3,3.24a23,23,0,0,0-1,3.64c-.43,2.25-.67,4.52-.9,6.79-.71,6.78-1.43,13.56-2.11,20.34-.29,2.89-.54,5.78-.67,8.68a24.93,24.93,0,0,0,.24,6.63c.37,1.68,1.26,2.84.64,4.6-.53,1.47-1.61,2.6-2.29,4a19.27,19.27,0,0,0-1.29,6c-.17,1.25-.62,3.21.12,4.4s2.89.87,4.09.68a45.46,45.46,0,0,0,5.13-1.09C166.13,373.36,166.5,371.68,166.64,370.57Z"/><g id="POLYLINE-8" data-name="POLYLINE"><path class="cls-17" d="M129.41,144.3c-1,1-1.9,1.95-2.8,3a30.68,30.68,0,0,0-7.32,15.2c-1,5.67-.25,11.32.85,16.93,1.18,6,2.51,12,3.66,18,1.09,5.67,1.87,11.39,2.45,17.14.59,5.92-.65,11.23-.61,17.14,0,4.09-1.75,7.88-1.48,11.94.2,2.86.58,7.12,3.32,8.65a12.84,12.84,0,0,0,4.86,1.25c9,1.1,13.81,2.43,22.51-.66,4.08-1.44,8.81-1.68,12.66-3.72,1.43-.76,2.33-1.15,2.71-2.79.16-.67-.21-4-1.3-3.93,1.64,0,2.54-2.15,2-3.7-.77-2.26-2.51-3-3.14-5.39-.8-3-.67-6.57-1-9.69l-1.4-14.88c-1-7.79-2-15.6-3.12-23.37s-2.13-16-4.49-23.64a30.89,30.89,0,0,0-5.75-10.56Z"/></g><path class="cls-14" d="M140.08,253.57a12.84,12.84,0,0,1-4.86-1.25c-2.74-1.53-3.12-5.79-3.31-8.65-.28-4.06,1.5-7.85,1.47-11.94,0-5.91,1.2-11.22.61-17.14-.57-5.75-1.36-11.47-2.44-17.14-1.16-6-2.48-12-3.66-18-1.11-5.61-1.84-11.26-.85-16.93a30.75,30.75,0,0,1,7.31-15.2c.34-.39.69-.76,1-1.14l-6-1.83c-1,1-1.9,1.95-2.8,3a30.68,30.68,0,0,0-7.32,15.2c-1,5.67-.25,11.32.85,16.93,1.18,6,2.51,12,3.66,18,1.09,5.67,1.87,11.39,2.45,17.14.59,5.92-.65,11.23-.61,17.14,0,4.09-1.75,7.88-1.48,11.94.2,2.86.58,7.12,3.32,8.65a12.84,12.84,0,0,0,4.86,1.25c6.41.79,10.69,1.68,15.77,1C145.7,254.34,143.13,254,140.08,253.57Z"/><path class="cls-23" d="M128.18,204.42c1,4.62,2.12,9.51,5.44,12.87,2.48,2.5,5.86,3.83,9.15,5.1l22.68,8.74q-.34-7.37-.67-14.73a72.89,72.89,0,0,1-34.62-27.53c-1.42-2.12-4.88-9.83-5.57-3.31C124,191.38,127,198.73,128.18,204.42Z"/><path class="cls-23" d="M150.49,180.61c1.24,8.65-1.25,17.65.88,26.13-.36-1.42-3.1-3.62-4-4.91a45.31,45.31,0,0,1-3.32-5.62,46.57,46.57,0,0,1-4.16-12.59,45.92,45.92,0,0,1-.45-13.24c.29-2.6,1.58-11,5-6.09A40.57,40.57,0,0,1,150.49,180.61Z"/><g id="POLYLINE-9" data-name="POLYLINE"><path class="cls-19" d="M158.31,375.7a16.54,16.54,0,0,0,0,8.21c.71,2.43,3.25,2.41,5.37,2.51,7.63.34,15.29.18,22.93.13,4.16,0,8.33,0,12.48-.21,1.9-.1,5.27.09,6.51-1.8,1-1.59.51-4.26,0-5.91a2.91,2.91,0,0,0-2.17-2.17,34.89,34.89,0,0,0-4.89-.58,16.05,16.05,0,0,1-7.59-2.47c-2.68-1.87-4.73-4.41-7.66-6-.85-.45-1.71-.86-2.57-1.29"/></g><g id="POLYLINE-10" data-name="POLYLINE"><path class="cls-24" d="M227.75,176.8c0,.2,0,.47,0,.78,0,.6.07,1.19.11,1.78L229,198.17c.21,3.67.43,7.35.65,11,.36,5.9.7,11.79,1.06,17.69.08,1.35.15,2.71.24,4.06q-13.14.76-26.27,1.56l-3.65.21-15.37.92-18.21,1.09-.55,0c-.89.06-1.79.12-2.69.16q-.54-9.19-1.09-18.38-.87-14.67-1.75-29.31c-.14-2.25-.26-4.5-.4-6.75a10,10,0,0,0,1.93-.11l5.28-.31,17-1,20.15-1.2,16.37-1,4.68-.28a3.73,3.73,0,0,1,1.1-.07A.34.34,0,0,1,227.75,176.8Z"/></g><rect class="cls-24" x="162.88" y="178.58" width="67.37" height="53.62" transform="translate(-9.97 10.03) rotate(-2.85)"/><rect class="cls-25" x="191.28" y="178.59" width="9.55" height="33.14" transform="translate(-9.46 9.99) rotate(-2.85)"/><path class="cls-26" d="M228.74,177.11c0,.2,0,.47,0,.78,0,.6.07,1.19.11,1.79l1.13,18.8c.21,3.67.44,7.35.65,11,.36,5.9.7,11.8,1.06,17.7.08,1.34.16,2.7.24,4.05q-13.14.78-26.27,1.56L202,233l-15.37.92L168.44,235l-4.23-.13,59.23-9.44,3.94-48.57Z"/><rect class="cls-27" x="216.82" y="215.95" width="10.25" height="10.25" transform="translate(-10.72 11.31) rotate(-2.85)"/><rect class="cls-27" x="203.16" y="218.71" width="10.25" height="1.59" transform="translate(-10.65 10.62) rotate(-2.85)"/><rect class="cls-27" x="203.35" y="222.43" width="10.25" height="1.59" transform="translate(-10.84 10.64) rotate(-2.85)"/><g id="POLYLINE-11" data-name="POLYLINE"><path class="cls-15" d="M196.42,219.84c-1.45,0-2.87.48-4.35.52-3.37.08-6.34-1.79-9.26-3.21-10-4.84-20.63-9.44-29.94-15.56-2.33-1.53-9.79-18.48-8.53-18.72L127.49,186c2.33,7.85,3.16,22.69,12,26.38,7,2.9,13.84,6.18,20.9,8.81,7.48,2.78,15.47,3.78,23,6.49,5.87,2.11,10.39,8.31,16.9,8.37a24.67,24.67,0,0,0,3.83-.34l4-.57a5.57,5.57,0,0,0,2-.55,1.88,1.88,0,0,0,1-1.72c-.65.11-2.48-1.92-3.35-2.22-1.93-.66-3.56-1.3-4.28-3.26,1,3,5,2,7.1,1.09-3.32-2.81-8.31-7.27-12.57-8.44A5.61,5.61,0,0,0,196.42,219.84Z"/></g><g class="cls-28"><path class="cls-29" d="M208.83,228a3.82,3.82,0,0,0,.69.92l.15,0A2.6,2.6,0,0,1,208.83,228Z"/><path class="cls-29" d="M197.13,220.36a14.64,14.64,0,0,0,1.47-.15c-.19-.07-.37-.13-.56-.18a5.61,5.61,0,0,0-1.62-.19,13.19,13.19,0,0,0-1.88.21A9.72,9.72,0,0,0,197.13,220.36Z"/><path class="cls-29" d="M188.44,227.67c-7.5-2.71-15.5-3.71-23-6.49-7.06-2.63-13.93-5.91-20.9-8.81-8.86-3.69-9.69-18.53-12-26.38l11.74-2.17c-.12-.57-.11-.91.06-.95L127.49,186c2.33,7.85,3.16,22.69,12,26.38,7,2.9,13.84,6.18,20.9,8.81,7.48,2.78,15.47,3.78,23,6.49,5.87,2.11,10.39,8.31,16.9,8.37a19.11,19.11,0,0,0,3-.23C197.83,234.68,193.67,229.56,188.44,227.67Z"/></g><g id="POLYLINE-12" data-name="POLYLINE"><path class="cls-17" d="M146.12,164.07c.15.71.29,1.41.43,2.12,1,5.06-.05,10.18,0,15.27,0,1.39.15,2.76.29,4.14a8.47,8.47,0,0,1,.06,2c-.27,1.7-2.33,1.16-3.52.95-4.5-.76-9.14-.67-13.35,1.31a12.55,12.55,0,0,1-2.71,1.25c-.84.17-1.09-.45-1.26-1.17-.52-2.21-.71-4.46-1.31-6.67-.73-2.76-1.63-5.47-2.39-8.22a45.14,45.14,0,0,1-1.26-7.57c-.62-6.33-.78-14.22,6.89-16.37C134.44,149.3,144.78,157.83,146.12,164.07Z"/></g><g class="cls-28"><path class="cls-29" d="M129.73,190c-.52-2.21-.71-4.46-1.31-6.67-.74-2.76-1.64-5.47-2.4-8.22a45.12,45.12,0,0,1-1.25-7.57c-.62-6.33-.78-14.22,6.89-16.37l.15,0a8.14,8.14,0,0,0-3.84,0c-7.67,2.15-7.51,10-6.89,16.37a45.14,45.14,0,0,0,1.26,7.57c.76,2.75,1.66,5.46,2.39,8.22.6,2.21.79,4.46,1.31,6.67.17.72.42,1.34,1.26,1.17a9.57,9.57,0,0,0,2.44-1.11S129.73,190,129.73,190Z"/></g><path class="cls-17" d="M129.93,114.55a37.16,37.16,0,0,1,9-2c1.7.31,3.4,1,5.11.7,1.51-.28,2.92-1.44,4.35-2a30.68,30.68,0,0,1,7-1.62c3.27-.51,6.19-.68,9.37.56a2.41,2.41,0,0,0,1.45.26c1.58-.43,1.11-4.71.76-5.79-.73-2.29-2.87-4.73-4.46-6.48-3.43-3.78-8-6.52-13.26-6.52S138.11,93.06,134.12,97c-4.17,4.07-7.62,12.77-5.18,18.37C128.84,115.11,129.24,114.84,129.93,114.55Z"/><path class="cls-23" d="M145.73,112.52a20.46,20.46,0,0,0-4,.61,6.52,6.52,0,0,0,2.37.09,6.68,6.68,0,0,0,1.78-.67Z"/><path class="cls-14" d="M140.87,97a20,20,0,0,1,11.3-5.09,15.71,15.71,0,0,0-2.84-.27c-5.3,0-11.22,1.46-15.21,5.36-4.17,4.07-7.62,12.77-5.18,18.37-.1-.22.3-.49,1-.78a33.75,33.75,0,0,1,5.12-1.44C134.12,107.63,137.22,100.52,140.87,97Z"/><path class="cls-23" d="M162.72,109.5a13.73,13.73,0,0,1,2.12.63,2.41,2.41,0,0,0,1.45.26,1.52,1.52,0,0,0,.91-1.18A22.84,22.84,0,0,0,162.72,109.5Z"/><path class="cls-30" d="M154.49,95.65c3.21-.71,6.49,1.51,8.07,4.39s1.87,6.28,2.12,9.56c-.06-.77-14.93,1.28-15.91,1.36C146.88,106.15,148.5,97,154.49,95.65Z"/><path class="cls-17" d="M145.19,113.29a7,7,0,0,1-1-.1,2.46,2.46,0,0,1-2.16-2c-.22-3.58,9.67-5.09,11.95-5.38a45.27,45.27,0,0,1,16.7,1.37,5.16,5.16,0,0,1,3.16,1.76c2.59,3.76-4.52,3.19-6.18,3.14-4.74-.16-9.48-.17-14.22.1C150.89,112.27,147.81,113.36,145.19,113.29Z"/><path class="cls-23" d="M167.63,110c-4.74-.15-9.48-.17-14.22.1-4.22.24-8.33,1.74-12.35,2.92,4.25,0,8.17-.71,12.35-.9,4.74-.27,9.48-.26,14.22-.1,1.62,0,8.4.59,6.36-2.86C172.74,110.35,168.81,110.05,167.63,110Z"/><path class="cls-23" d="M133.68,248.85a46.7,46.7,0,0,0,28.8-.73c3.13-1.15,4.59-2.91,6.84-5.35a131.19,131.19,0,0,1-13.94,4C149.49,248,139.57,250.61,133.68,248.85Z"/><path class="cls-16" d="M208.42,233.74A53.23,53.23,0,0,0,202.6,232c-.49-.11-.88.65-.36.87a55.47,55.47,0,0,0,5.86,2C208.85,235.12,209.15,234,208.42,233.74Z"/><path class="cls-16" d="M204,235.54a33.26,33.26,0,0,0-5.64-1.59.34.34,0,0,0-.18.65,33.3,33.3,0,0,0,5.48,1.76C204.13,236.45,204.52,235.75,204,235.54Z"/><path class="cls-31" d="M315.22,180.09c-1.54,3.18-3.1,6.43-3.57,9.94s.35,7.37,3,9.77c4.29,4,11.67,2.19,15.59-2.14s5.27-10.32,6.49-16q2.85-13.44,5.72-26.88c1-4.85,5.63-14.18-1.93-14.06-6.22.11-9.92,7.78-12.11,12.29Q321.76,166.51,315.22,180.09Z"/><g id="POLYLINE-13" data-name="POLYLINE"><path class="cls-32" d="M317.28,184.11c-1.11-.51-2.21-1-3.29-1.57-5.16-2.64-9.85-6-14.91-8.82-3.24-1.7-6.42-3.5-9.63-5.23-2.41-1.29-5.31-4-8-4.49-.55,2,.37,4.05,1.56,5.65-4.78.65-9.55,1.57-14.41,2.09a5.72,5.72,0,0,0,1.56,5.84A9.46,9.46,0,0,0,276,180c5.52.5,11.36-2,16.76-.12,3.61,1.28,6.54,5.29,9.33,7.87,4,3.74,8,7.4,12.31,10.86,3.07-.86,4.33-2.68,5-5.79S320.18,185.44,317.28,184.11Z"/></g><g id="POLYLINE-14" data-name="POLYLINE"><path class="cls-33" d="M363.46,356.08c1.75,3.5,8,15.8,3.78,18.94a7.36,7.36,0,0,1-2,1l-4.66,1.68c-9.42,3.4-17.75,4.71-27.7,5.49a3.76,3.76,0,0,1-2.75-.48c-3.41-2.75,3.48-3.44,4.57-4,3.06-1.49,6-5.2,8.28-7.68a52.67,52.67,0,0,0,7.85-10.41c1.34-2.5.46-2.42,2.71-4a90,90,0,0,1,8.92-2.54C362.77,354.73,363.12,355.39,363.46,356.08Z"/></g><g id="POLYLINE-15" data-name="POLYLINE"><path class="cls-34" d="M324.74,243c0-.91,0-1.83.05-2.74l29.64-25.95c.69,1.07,1.34,2.18,1.93,3.31a34.78,34.78,0,0,1,3.94,15.07,50.81,50.81,0,0,1-1.87,14.13c-1.36,5.32-2.89,10.58-4,16-1.2,5.83-2.21,11.77-3.93,17.49-1.36,4.51-3.36,8.77-3.13,13.59a20.06,20.06,0,0,0,1,6.06,21.12,21.12,0,0,0,3.25,5.15,63.63,63.63,0,0,1,7.77,12.41,43.49,43.49,0,0,1,3.45,14.69c.44,5.43.6,11,1.86,16.36.43,1.82,1.34,3.45,1.81,5.25a11.75,11.75,0,0,1,.13,4.54l-12.88,3a18,18,0,0,1-1.25-4.24c-.29-1.79-.16-3.63-.4-5.44a34.7,34.7,0,0,0-4-11.46c-2.22-4.29-4.42-8.57-6.36-13-1.76-4-3.27-8.26-5.56-12s-5.38-6.34-8.11-9.52a11.66,11.66,0,0,1-3.11-6.51,40.36,40.36,0,0,1,.11-6.41c.09-1.81.06-3.63,0-5.45-.17-5.21-.35-10.43-.44-15.64-.17-10,1.36-21.06-.23-30.75-1.52-9.24-3.22-17.15,4.11-24.85a23.09,23.09,0,0,1,26.83-4.31,4,4,0,0,1-1.55,4.7"/></g><g id="POLYLINE-16" data-name="POLYLINE"><path class="cls-27" d="M348.69,362.52c.94,3.8,4.36,17.17-.46,19.31a7.67,7.67,0,0,1-2.18.49l-4.91.61a228.41,228.41,0,0,1-26.27,1.49c-4.11,0-9.75-2.1-2.86-4.63a59.53,59.53,0,0,0,13.41-7.19,52,52,0,0,0,9.93-8.43c1.87-2.15,1-2.27,3.53-3.29a91.43,91.43,0,0,1,9.25-.53C348.32,361.05,348.51,361.77,348.69,362.52Z"/></g><g id="POLYLINE-17" data-name="POLYLINE"><path class="cls-35" d="M342.75,214.86c5.83-3.89,17.38-5.82,23.34-.91,6.17,5.09,2.15,12.93.6,20.67-4.17,20.84-14.13,36.9-21.27,56.13-3.79,10.2,2.48,17.93,4.62,27.5,2.94,13.17-1,26.24-.5,39.35a12.16,12.16,0,0,1-.87,4.45l-13.23.1a18.09,18.09,0,0,1-.29-4.41c.12-1.81.65-3.57.81-5.39a34.7,34.7,0,0,0-1.39-12.07c-2.13-8.14-3.93-17.77-6.72-26.26-3.06-9.31-6.19-14.32-5.13-24.32,1.67-15.79,7.38-30.65,9.88-46.24C334.28,233,332.66,221.6,342.75,214.86Z"/></g><path class="cls-34" d="M328.59,227.57a29.94,29.94,0,0,0,15.46,9.5,24.13,24.13,0,0,0,17.8-2.62,10.82,10.82,0,0,0,4.65-4.89,5.51,5.51,0,0,0-1.26-6.28c-1.38-1.11-3.28-1.26-5-1.36l-36-2a14,14,0,0,0,11.37,12.39"/><path class="cls-13" d="M334.14,129.66c5,2.8,11.05.58,16.61.11,1-.12-.13-5.28-.31-5.81-1.49-4.54-3-9.18-5.92-13-2.29-3-4.17-6.27-7.16-8.77-.78-.65-10.49-5.87-10.53-5.19-.3,5.67.51,11.08,1.22,16.73.56,4.54.23,10.55,3.78,14.14A10.5,10.5,0,0,0,334.14,129.66Z"/><path class="cls-13" d="M336.32,84.37c5.6-2.49,12.62-2.8,17.4-.56C363,88.12,363.85,97,365.22,105.9c.65,4.2,5.15,17.33,1.89,20.72a6.35,6.35,0,0,1-3.17,1.46l-9.78,2.46a17.86,17.86,0,0,1-7.09.79c-5.58-.91-5.93-5.29-7.86-9.38-2.26-4.81-6-9-8.32-13.91-2.44-5.12-5.24-12.29-1.92-17.66A16.27,16.27,0,0,1,336.32,84.37Z"/><g id="POLYLINE-18" data-name="POLYLINE"><path class="cls-11" d="M366.18,202.2q0,1.8.09,3.6c.4,7.59,6.76,13.57-.94,20.29-3.76,3.28-9,4.35-13.95,4.57-14.44.62-36.81-3.75-30.5-21.75,3-8.51,4.21-19.92,3.49-28.92-.38-4.72-1.36-9.39-1.53-14.13-.32-9,4.24-12.91,8.35-20,3.5-6.09,7.5-10.88,14.61-12.59,3.8-.91,8.08-.77,11.95-.87a10.63,10.63,0,0,1,9,4c3.64,4.25,1.74,8.7,1.25,14.1-1.08,12.09-1.13,24.24-1.38,36.37C366.56,191.88,366.16,197.08,366.18,202.2Z"/></g><path class="cls-31" d="M351.94,171.48a22.77,22.77,0,0,0,3.38,6.73l14.23,21.94a195.34,195.34,0,0,0-2-34.6c-.41-2.81-.93-5.7-2.54-8C357.39,146.47,350.35,165.05,351.94,171.48Z"/><g id="POLYLINE-19" data-name="POLYLINE"><path class="cls-32" d="M359.34,203.37c-.52,1.11-1,2.21-1.61,3.28a74.39,74.39,0,0,1-8.43,12.52c-5.87,7.16-12.11,14.17-15.69,22.59-.32.75,3.62-.65,3.83-.77,1.41-.86,2.46-3.16,3.39-4.45C340,242,337.88,246.83,336,252c-.5,1.38,8.76-2.27,9.85-3.65,2.9-3.66,4.56-9.29,5.77-13.73a20.15,20.15,0,0,1,1.63-4.86c2.35-4.2,6.28-7.66,9.56-11.12,3.78-4,7.48-8,11-12.21-.82-3.07-2.63-4.36-5.73-5.06S360.69,200.49,359.34,203.37Z"/></g><g id="POLYLINE-20" data-name="POLYLINE"><path class="cls-11" d="M362.66,179.58c.54,2.38,1.23,4.71,1.88,7a19.16,19.16,0,0,1,.93,4.15c0,1.58-1.18,3.33-1.92,4.64-1,1.8-2.2,3.43-3.37,5.12-.49.7-1.92,2.45-.55,2.94s3.29,0,4.64-.14c2.34-.2,5.06-.41,7.12,1a9.26,9.26,0,0,1,1,.8c.42.39,1.16,1.44,1.83,1.45s.84-.61,1.09-1c.61-1,1.17-1.93,1.76-2.89,1.59-2.54,3.33-5.17,3.78-8.2.56-3.74-.18-7.81-.56-11.55-.47-4.63-.89-9.26-1.75-13.83a41.61,41.61,0,0,1-.94-6.17c-.06-2.12.12-4.24,0-6.35A26.2,26.2,0,0,0,367.68,138a19.51,19.51,0,0,0-4.42-2.17,5.18,5.18,0,0,0-2.77-.4c-1.45.35-1.42,2.35-1.61,3.52-.48,2.91-2.21,5-2.93,7.74a20.47,20.47,0,0,0,1.16,14.64C360.12,167.35,361.17,173,362.66,179.58Z"/></g><g id="POLYLINE-21" data-name="POLYLINE"><path class="cls-32" d="M330,120.15a5.77,5.77,0,0,0,2.16,3.69c3.17,2.31,8.43.29,9.91,5,.32,1,1,2.44,1.28,3.82a4.08,4.08,0,0,1-.27,3.08c-.25.4-.72.81-.61,1.32s.72.81,1.16,1a6.83,6.83,0,0,0,2.88.22c5.66-.46,9.95-3.39,14.91-5.49-1.45-2.12-4.37-3.14-5.83-5.42-2.42-3.79-2.56-9.37-2-13.71.42-3.5,3.39-6.47,2.13-10-.89-2.46-3.33-1.8-4.51,0a26.23,26.23,0,0,0-1.62,3.43c-.34.73-.75,1.67-1.69,1.28-3.32-1.32-1.74-7.69-3.22-10.53-1.41-2.67-3.95-4.17-6.68-5.22-1.65-.63-4.51-1.65-6.2-.57-1.06.69-1.43,2.21-1.86,3.32-.48,1.28-1.14,2.49-1.52,3.8C326.81,104.8,328.76,114.6,330,120.15Z"/></g><path class="cls-13" d="M345.46,83.46c5.56,2,10,7.16,11.71,13.12,1.51,5.34.84,9.23-.34,14.52q-1.56-4.65-3.13-9.31c-1.35.31-3.19.23-3.62,1.69-.35,1.2.23,2.46-.31,3.79-1.89-1.21-4.48-3-5.19-5.22a45.55,45.55,0,0,1-1-6.8c.23,1.65-.81,3.58-.82,5.27a18.92,18.92,0,0,0-3.83.18c-5.69.38-4-3.77-5-7.34-.07.55-.5,6.55-.61,6.55l-6.57.21a8.5,8.5,0,0,1,.17-7.06c1.67-4.07,2.44-6.44,6.31-8.54A14.7,14.7,0,0,1,345.46,83.46Z"/><path class="cls-36" d="M333.28,124.06h-.21c1.56,1.07,3.46,1,5.26,1.5a4.81,4.81,0,0,1,3.72,3.25c.39,1.27.88,2.62,1.33,3.81,1.06-.91,1.15-2.74,1.41-4a19.41,19.41,0,0,0,.4-3.64c.08-3.55-3-2.13-5.28-1.75A46.42,46.42,0,0,1,333.28,124.06Z"/><path class="cls-30" d="M330.84,109.87c3.12-.43,9.94.52,12.59.92a.32.32,0,0,1,.09-.35c1.89-1.73,3.85-3.41,5.84-5,.49-.41,1.2.29.71.7q-2.93,2.48-6,4.79l.41.06c1.7,3.51.77,8,.11,10.2,1.9-1.06,3.69-1.83,5.22-3.53,1.75-2,2.22-4.07,3.11-6.43a.33.33,0,0,1,.64.09c.16,4.39-4.82,10.1-9.18,10.55-.16.48-.27.77-.27.77s-4.82,5.66-11.08,1.46-5.28-12-5.28-12S326.92,110.41,330.84,109.87Z"/><path class="cls-36" d="M282.48,176.93a12.73,12.73,0,0,0-2-2.67c-.79-.93-1.57-1.87-2.35-2.8-.37-.45-1,.19-.64.64l.22.27a51.83,51.83,0,0,0-9.29,1.39.36.36,0,0,0,.1.7,48.07,48.07,0,0,0,9.76-1.4l1.53,1.87A11.42,11.42,0,0,0,282,177.4C282.33,177.61,282.6,177.21,282.48,176.93Z"/><path class="cls-36" d="M279.53,175c-3.09,0-6.27.88-9.3,1.4-.56.09-.32.93.23.84,3-.45,6.25-.64,9.16-1.57A.34.34,0,0,0,279.53,175Z"/><path class="cls-36" d="M281.14,176.8a12.47,12.47,0,0,0-3.16.82l-3.48,1.13c-.54.17-.32,1,.23.85l3.51-1a11.72,11.72,0,0,0,3.07-1.1A.36.36,0,0,0,281.14,176.8Z"/><path class="cls-36" d="M343.3,241.56c-1,.1-2.27,3.35-4.65,9.88-.14.38.46.62.65.27a50,50,0,0,0,4.62-9.89C344,241.44,343.67,241.53,343.3,241.56Z"/><path class="cls-36" d="M346,242.36c-.95,3.16-1.71,5.89-4,8.37a.42.42,0,0,0,.59.59c2.26-2.23,4.31-5.58,4.07-8.88A.32.32,0,0,0,346,242.36Z"/></g></g></g></svg>