<svg xmlns="http://www.w3.org/2000/svg" xmlns:xlink="http://www.w3.org/1999/xlink" viewBox="0 0 345.2 316.04"><defs><style>.cls-1{isolation:isolate;}.cls-141,.cls-2,.cls-41{opacity:0.2;}.cls-3{opacity:0;}.cls-4{opacity:0.09;}.cls-5{opacity:0.18;}.cls-6{opacity:0.27;}.cls-7{opacity:0.36;}.cls-8{opacity:0.45;}.cls-9{opacity:0.55;}.cls-10{opacity:0.64;}.cls-11{opacity:0.73;}.cls-12{opacity:0.82;}.cls-13{opacity:0.91;}.cls-14,.cls-140,.cls-149,.cls-150,.cls-153,.cls-157,.cls-158,.cls-16,.cls-24,.cls-33,.cls-35,.cls-40,.cls-55,.cls-64,.cls-65,.cls-68,.cls-82,.cls-86,.cls-91{mix-blend-mode:color-dodge;}.cls-14{fill:url(#radial-gradient);}.cls-15{fill:url(#linear-gradient);}.cls-16{fill:url(#radial-gradient-2);}.cls-17{opacity:0.6;fill:url(#radial-gradient-3);}.cls-17,.cls-45,.cls-50,.cls-81,.cls-83{mix-blend-mode:screen;}.cls-18{fill:url(#linear-gradient-2);}.cls-19{fill:url(#linear-gradient-3);}.cls-20{fill:url(#linear-gradient-4);}.cls-21{fill:url(#linear-gradient-5);}.cls-22{fill:url(#linear-gradient-6);}.cls-23{fill:url(#linear-gradient-7);}.cls-24{fill:url(#radial-gradient-4);}.cls-25{fill:#bcbec0;}.cls-148,.cls-155,.cls-25,.cls-30,.cls-46,.cls-51,.cls-54,.cls-61,.cls-63,.cls-66,.cls-69,.cls-70,.cls-85,.cls-87,.cls-89{mix-blend-mode:multiply;}.cls-26{opacity:0.8;}.cls-27{fill:url(#linear-gradient-8);}.cls-28{fill:#6b24d6;}.cls-29{fill:#f49587;}.cls-30{fill:url(#Linear_Gradient_1);}.cls-31{fill:url(#New_Gradient_Swatch_copy_13);}.cls-32{fill:#bb8cff;}.cls-33{fill:url(#Radial_Gradient_1);}.cls-34{fill:url(#New_Gradient_Swatch_copy_13-2);}.cls-36{fill:url(#Radial_Gradient_1-2);}.cls-37{fill:url(#Radial_Gradient_1-3);}.cls-38{fill:url(#Radial_Gradient_1-4);}.cls-39{fill:url(#New_Gradient_Swatch_copy_22);}.cls-40{fill:url(#Radial_Gradient_1-5);}.cls-42{fill:#58595b;}.cls-43{fill:url(#linear-gradient-9);}.cls-44{fill:url(#linear-gradient-10);}.cls-45{fill:url(#Radial_Gradient_1-6);}.cls-46{fill:url(#linear-gradient-11);}.cls-47{fill:url(#New_Gradient_Swatch_copy_10);}.cls-48{fill:url(#linear-gradient-12);}.cls-49{fill:url(#linear-gradient-13);}.cls-50{fill:url(#Radial_Gradient_1-7);}.cls-51{fill:url(#linear-gradient-14);}.cls-52{fill:url(#New_Gradient_Swatch_copy_10-2);}.cls-53{fill:url(#New_Gradient_Swatch_copy_22-2);}.cls-54{fill:#e6e7e8;}.cls-55{fill:url(#Radial_Gradient_1-8);}.cls-56{fill:#10054d;}.cls-57{fill:url(#linear-gradient-15);}.cls-58{fill:url(#linear-gradient-16);}.cls-59{fill:url(#linear-gradient-17);}.cls-60{fill:url(#linear-gradient-18);}.cls-61{fill:url(#linear-gradient-19);}.cls-62{fill:url(#linear-gradient-20);}.cls-63{fill:url(#linear-gradient-21);}.cls-64{fill:url(#linear-gradient-22);}.cls-65{opacity:0.7;fill:url(#linear-gradient-23);}.cls-66{fill:url(#linear-gradient-24);}.cls-67{fill:url(#New_Gradient_Swatch_copy_22-3);}.cls-68{fill:url(#Radial_Gradient_1-9);}.cls-69{fill:url(#linear-gradient-25);}.cls-70{fill:url(#linear-gradient-26);}.cls-71{fill:url(#linear-gradient-27);}.cls-72{fill:url(#linear-gradient-28);}.cls-73{fill:url(#linear-gradient-29);}.cls-74{fill:url(#linear-gradient-30);}.cls-75{fill:url(#linear-gradient-31);}.cls-76{fill:url(#linear-gradient-32);}.cls-77{fill:url(#linear-gradient-33);}.cls-78{fill:url(#linear-gradient-34);}.cls-79{fill:url(#linear-gradient-35);}.cls-80{fill:url(#New_Gradient_Swatch_copy_20);}.cls-81{fill:url(#Radial_Gradient_1-10);}.cls-82{fill:url(#linear-gradient-36);}.cls-83{fill:url(#linear-gradient-37);}.cls-84{fill:url(#New_Gradient_Swatch_copy_13-3);}.cls-85{fill:#d1d3d4;}.cls-86{fill:url(#Radial_Gradient_1-11);}.cls-87{fill:url(#linear-gradient-38);}.cls-88{fill:url(#New_Gradient_Swatch_copy_22-4);}.cls-89{fill:url(#linear-gradient-39);}.cls-90{fill:url(#New_Gradient_Swatch_copy_22-5);}.cls-91{fill:url(#White_Black_Radial);}.cls-92{fill:url(#New_Gradient_Swatch_copy_25);}.cls-93{fill:url(#New_Gradient_Swatch_copy_25-2);}.cls-94{fill:url(#New_Gradient_Swatch_copy_25-3);}.cls-95{fill:url(#New_Gradient_Swatch_copy_25-4);}.cls-96{fill:url(#New_Gradient_Swatch_copy_25-5);}.cls-97{fill:url(#New_Gradient_Swatch_copy_25-6);}.cls-98{fill:url(#New_Gradient_Swatch_copy_25-7);}.cls-99{fill:url(#New_Gradient_Swatch_copy_25-8);}.cls-100{fill:url(#New_Gradient_Swatch_copy_25-9);}.cls-101{fill:url(#New_Gradient_Swatch_copy_25-10);}.cls-102{fill:url(#New_Gradient_Swatch_copy_25-11);}.cls-103{fill:url(#New_Gradient_Swatch_copy_25-12);}.cls-104{fill:url(#New_Gradient_Swatch_copy_25-13);}.cls-105{fill:url(#New_Gradient_Swatch_copy_25-14);}.cls-106{fill:url(#New_Gradient_Swatch_copy_25-15);}.cls-107{fill:url(#New_Gradient_Swatch_copy_25-16);}.cls-108{fill:url(#New_Gradient_Swatch_copy_25-17);}.cls-109{fill:url(#New_Gradient_Swatch_copy_25-18);}.cls-110{fill:url(#New_Gradient_Swatch_copy_8);}.cls-111{fill:url(#New_Gradient_Swatch_copy_8-2);}.cls-112{fill:url(#New_Gradient_Swatch_copy_8-3);}.cls-113{fill:url(#linear-gradient-40);}.cls-114{fill:url(#linear-gradient-41);}.cls-115{fill:url(#linear-gradient-42);}.cls-116{fill:url(#linear-gradient-43);}.cls-117{fill:url(#New_Gradient_Swatch_copy_8-4);}.cls-118{fill:url(#New_Gradient_Swatch_copy_8-5);}.cls-119{fill:url(#New_Gradient_Swatch_copy_8-6);}.cls-120{fill:url(#linear-gradient-44);}.cls-121{fill:url(#linear-gradient-45);}.cls-122{fill:url(#linear-gradient-46);}.cls-123{fill:url(#linear-gradient-47);}.cls-124{fill:url(#New_Gradient_Swatch_copy_8-7);}.cls-125{fill:url(#New_Gradient_Swatch_copy_8-8);}.cls-126{fill:url(#New_Gradient_Swatch_copy_8-9);}.cls-127{fill:url(#linear-gradient-48);}.cls-128{fill:url(#linear-gradient-49);}.cls-129{fill:url(#linear-gradient-50);}.cls-130{fill:url(#linear-gradient-51);}.cls-131{fill:url(#New_Gradient_Swatch_copy_8-10);}.cls-132{fill:url(#New_Gradient_Swatch_copy_8-11);}.cls-133{fill:url(#New_Gradient_Swatch_copy_8-12);}.cls-134{fill:url(#linear-gradient-52);}.cls-135{fill:url(#linear-gradient-53);}.cls-136{fill:url(#linear-gradient-54);}.cls-137{fill:url(#linear-gradient-55);}.cls-138{fill:url(#linear-gradient-56);}.cls-139{fill:url(#New_Gradient_Swatch_copy_9);}.cls-140{fill:url(#Radial_Gradient_1-12);}.cls-141{fill:url(#linear-gradient-57);}.cls-142{fill:url(#linear-gradient-58);}.cls-143{fill:url(#New_Gradient_Swatch_copy_9-2);}.cls-144{fill:url(#linear-gradient-59);}.cls-145{fill:url(#linear-gradient-60);}.cls-146{fill:url(#linear-gradient-61);}.cls-147{fill:url(#New_Gradient_Swatch_copy_18);}.cls-148{fill:url(#Linear_Gradient_1-2);}.cls-149{fill:url(#radial-gradient-5);}.cls-150{fill:url(#New_Gradient_Swatch_copy);}.cls-151{fill:url(#New_Gradient_Swatch_copy_18-2);}.cls-152{fill:url(#New_Gradient_Swatch_copy_9-3);}.cls-153{fill:url(#Radial_Gradient_1-13);}.cls-154{fill:url(#New_Gradient_Swatch_copy_10-3);}.cls-156{fill:url(#Linear_Gradient_1-3);}.cls-157{fill:url(#radial-gradient-6);}.cls-158{fill:url(#radial-gradient-7);}</style><radialGradient id="radial-gradient" cx="-240.85" cy="-1527.94" r="36.41" gradientTransform="matrix(0.52, 0, 0, 0.66, 425.81, 1085.57)" gradientUnits="userSpaceOnUse"><stop offset="0" stop-color="#972a74"/><stop offset="0.04" stop-color="#8a266a"/><stop offset="0.19" stop-color="#601b4a"/><stop offset="0.35" stop-color="#3d112f"/><stop offset="0.51" stop-color="#230a1b"/><stop offset="0.67" stop-color="#0f040c"/><stop offset="0.83" stop-color="#040103"/><stop offset="1"/></radialGradient><linearGradient id="linear-gradient" x1="189.1" y1="21.77" x2="277.11" y2="174.21" gradientUnits="userSpaceOnUse"><stop offset="0.06" stop-color="#200041"/><stop offset="0.26" stop-color="#210243"/><stop offset="0.36" stop-color="#25084b"/><stop offset="0.43" stop-color="#2c1358"/><stop offset="0.47" stop-color="#311b61"/><stop offset="0.48" stop-color="#351f65"/><stop offset="0.5" stop-color="#422c73"/><stop offset="0.51" stop-color="#584188"/><stop offset="0.52" stop-color="#765fa7"/><stop offset="0.53" stop-color="#8770b8"/><stop offset="0.54" stop-color="#7e67ae"/><stop offset="0.56" stop-color="#5c468d"/><stop offset="0.59" stop-color="#442e75"/><stop offset="0.61" stop-color="#362066"/><stop offset="0.63" stop-color="#311b61"/><stop offset="0.67" stop-color="#2a1155"/><stop offset="0.75" stop-color="#230446"/><stop offset="0.81" stop-color="#200041"/><stop offset="1" stop-color="#200041"/></linearGradient><radialGradient id="radial-gradient-2" cx="325.87" cy="83.7" r="165.16" gradientUnits="userSpaceOnUse"><stop offset="0" stop-color="#711f56"/><stop offset="0.16" stop-color="#6c1e52"/><stop offset="0.36" stop-color="#5c1946"/><stop offset="0.58" stop-color="#431233"/><stop offset="0.82" stop-color="#200918"/><stop offset="1"/></radialGradient><radialGradient id="radial-gradient-3" cx="298.24" cy="71.9" r="97.3" gradientUnits="userSpaceOnUse"><stop offset="0" stop-color="#af8afc"/><stop offset="1" stop-color="#10054d"/></radialGradient><linearGradient id="linear-gradient-2" x1="306.09" y1="162.35" x2="37.1" y2="78.14" gradientUnits="userSpaceOnUse"><stop offset="0.19" stop-color="#3d065f"/><stop offset="0.93" stop-color="#3d065f"/></linearGradient><linearGradient id="linear-gradient-3" x1="309.59" y1="266.45" x2="173" y2="-22.18" gradientUnits="userSpaceOnUse"><stop offset="0" stop-color="#311b61"/><stop offset="0.2" stop-color="#290f52"/><stop offset="0.49" stop-color="#200041"/><stop offset="1" stop-color="#0f001f"/></linearGradient><linearGradient id="linear-gradient-4" x1="209.48" y1="145.53" x2="295.26" y2="145.53" xlink:href="#linear-gradient-3"/><linearGradient id="linear-gradient-5" x1="288.59" y1="263.66" x2="217.25" y2="30.99" gradientUnits="userSpaceOnUse"><stop offset="0" stop-color="#a56ef4"/><stop offset="0.21" stop-color="#a186d3"/><stop offset="0.41" stop-color="#9e98bc"/><stop offset="0.53" stop-color="#9d9eb3"/><stop offset="0.62" stop-color="#a4a4b8"/><stop offset="0.75" stop-color="#b7b7c7"/><stop offset="0.9" stop-color="#d6d4df"/><stop offset="1" stop-color="#eeebf2"/></linearGradient><linearGradient id="linear-gradient-6" x1="-362.85" y1="10331.7" x2="-347.5" y2="10331.7" gradientTransform="matrix(-0.5, 1.44, -0.87, 0.5, 9073.4, -4535.73)" xlink:href="#linear-gradient-3"/><linearGradient id="linear-gradient-7" x1="307.68" y1="117.62" x2="297.09" y2="117.17" gradientUnits="userSpaceOnUse"><stop offset="0" stop-color="#3d065f"/><stop offset="1" stop-color="#5f27bd"/></linearGradient><radialGradient id="radial-gradient-4" cx="302.36" cy="113.11" r="6.22" xlink:href="#radial-gradient-2"/><linearGradient id="linear-gradient-8" x1="211.8" y1="278.7" x2="253.8" y2="164.7" gradientUnits="userSpaceOnUse"><stop offset="0" stop-color="#112a6c"/><stop offset="0.14" stop-color="#114280"/><stop offset="0.43" stop-color="#1380b4"/><stop offset="0.48" stop-color="#138bbd"/><stop offset="0.71" stop-color="#169ac7"/><stop offset="1" stop-color="#1cb5d7"/></linearGradient><linearGradient id="Linear_Gradient_1" x1="286.4" y1="245.61" x2="306.9" y2="268.61" gradientUnits="userSpaceOnUse"><stop offset="0" stop-color="#fff"/><stop offset="1"/></linearGradient><linearGradient id="New_Gradient_Swatch_copy_13" x1="184.93" y1="157.03" x2="250.17" y2="83.95" gradientUnits="userSpaceOnUse"><stop offset="0.04" stop-color="#6b24d6"/><stop offset="0.29" stop-color="#7733dc"/><stop offset="0.79" stop-color="#975ced"/><stop offset="1" stop-color="#a56ef4"/></linearGradient><radialGradient id="Radial_Gradient_1" cx="181.05" cy="141.66" r="44.53" xlink:href="#Linear_Gradient_1"/><linearGradient id="New_Gradient_Swatch_copy_13-2" x1="180.4" y1="170.81" x2="223.9" y2="354.31" xlink:href="#New_Gradient_Swatch_copy_13"/><radialGradient id="Radial_Gradient_1-2" cx="319.55" cy="364.66" r="155.15" gradientTransform="translate(239.68 29.23) rotate(60.08)" xlink:href="#Linear_Gradient_1"/><radialGradient id="Radial_Gradient_1-3" cx="319.55" cy="364.66" r="155.15" xlink:href="#Linear_Gradient_1"/><radialGradient id="Radial_Gradient_1-4" cx="319.55" cy="364.66" r="155.15" xlink:href="#Linear_Gradient_1"/><radialGradient id="New_Gradient_Swatch_copy_22" cx="191.78" cy="227.36" r="3.86" gradientUnits="userSpaceOnUse"><stop offset="0" stop-color="#eeebf2"/><stop offset="0.58" stop-color="#d4d1d8"/><stop offset="0.94" stop-color="#a5a6b9"/><stop offset="1" stop-color="#9d9eb3"/></radialGradient><radialGradient id="Radial_Gradient_1-5" cx="191.63" cy="227.01" r="3.71" xlink:href="#Linear_Gradient_1"/><linearGradient id="linear-gradient-9" x1="82.12" y1="235.55" x2="67.75" y2="216.3" gradientUnits="userSpaceOnUse"><stop offset="0.06" stop-color="#2d2f32"/><stop offset="0.15" stop-color="#43464a"/><stop offset="0.25" stop-color="#5d6066"/><stop offset="0.48" stop-color="#1e1f21"/><stop offset="1" stop-color="#46484d"/></linearGradient><linearGradient id="linear-gradient-10" x1="62.9" y1="228.44" x2="79.27" y2="228.44" gradientTransform="translate(125.01 -4.65) rotate(30.31)" gradientUnits="userSpaceOnUse"><stop offset="0.04" stop-color="#1e1f21"/><stop offset="0.31" stop-color="#2c2e30"/><stop offset="0.84" stop-color="#515359"/><stop offset="1" stop-color="#5d6066"/></linearGradient><radialGradient id="Radial_Gradient_1-6" cx="72.77" cy="228.17" r="8.84" xlink:href="#Linear_Gradient_1"/><linearGradient id="linear-gradient-11" x1="65.05" y1="228.58" x2="77.66" y2="228.58" gradientUnits="userSpaceOnUse"><stop offset="0" stop-color="#bcbec0"/><stop offset="1" stop-color="#e6e7e8"/></linearGradient><linearGradient id="New_Gradient_Swatch_copy_10" x1="64.66" y1="228.74" x2="77.26" y2="228.74" gradientUnits="userSpaceOnUse"><stop offset="0.04" stop-color="#9d9eb3"/><stop offset="0.58" stop-color="#d4d1d8"/><stop offset="1" stop-color="#eeebf2"/></linearGradient><linearGradient id="linear-gradient-12" x1="159.78" y1="280.07" x2="145.41" y2="260.82" xlink:href="#linear-gradient-9"/><linearGradient id="linear-gradient-13" x1="140.56" y1="272.97" x2="156.93" y2="272.97" gradientTransform="matrix(1, 0, 0, 1, 0, 0)" xlink:href="#linear-gradient-10"/><radialGradient id="Radial_Gradient_1-7" cx="150.43" cy="272.69" r="8.84" xlink:href="#Linear_Gradient_1"/><linearGradient id="linear-gradient-14" x1="142.71" y1="273.11" x2="155.32" y2="273.11" xlink:href="#linear-gradient-11"/><linearGradient id="New_Gradient_Swatch_copy_10-2" x1="142.32" y1="273.26" x2="154.93" y2="273.26" xlink:href="#New_Gradient_Swatch_copy_10"/><radialGradient id="New_Gradient_Swatch_copy_22-2" cx="128.63" cy="176.52" r="120.66" xlink:href="#New_Gradient_Swatch_copy_22"/><radialGradient id="Radial_Gradient_1-8" cx="110.2" cy="222.26" r="56.84" xlink:href="#Linear_Gradient_1"/><linearGradient id="linear-gradient-15" x1="152.45" y1="233.64" x2="191.17" y2="233.64" gradientUnits="userSpaceOnUse"><stop offset="0" stop-color="#10054d"/><stop offset="1" stop-color="#363885"/></linearGradient><linearGradient id="linear-gradient-16" x1="135.86" y1="235.81" x2="150.04" y2="235.81" xlink:href="#linear-gradient-15"/><linearGradient id="linear-gradient-17" x1="193.08" y1="279.66" x2="186.96" y2="273.83" gradientTransform="matrix(1, 0, 0, 1, 0, 0)" xlink:href="#linear-gradient-10"/><linearGradient id="linear-gradient-18" x1="162.85" y1="272.03" x2="173.99" y2="272.03" xlink:href="#linear-gradient-11"/><linearGradient id="linear-gradient-19" x1="168.64" y1="274.54" x2="168.39" y2="266.28" gradientUnits="userSpaceOnUse"><stop offset="0" stop-color="#9c9c9c"/><stop offset="0" stop-color="#9d9d9d"/><stop offset="0.31" stop-color="#c7c7c7"/><stop offset="0.59" stop-color="#e6e6e6"/><stop offset="0.83" stop-color="#f8f8f8"/><stop offset="1" stop-color="#fff"/></linearGradient><linearGradient id="linear-gradient-20" x1="199.08" y1="255.16" x2="203.3" y2="255.16" xlink:href="#linear-gradient-11"/><linearGradient id="linear-gradient-21" x1="199.08" y1="255.16" x2="203.07" y2="255.16" xlink:href="#linear-gradient-19"/><linearGradient id="linear-gradient-22" x1="152.46" y1="225.44" x2="188.72" y2="225.44" gradientUnits="userSpaceOnUse"><stop offset="0" stop-color="#9c9c9c"/><stop offset="0.01" stop-color="#999"/><stop offset="0.26" stop-color="#636363"/><stop offset="0.49" stop-color="#383838"/><stop offset="0.7" stop-color="#191919"/><stop offset="0.88" stop-color="#070707"/><stop offset="1"/></linearGradient><linearGradient id="linear-gradient-23" x1="199.12" y1="227.86" x2="98.37" y2="173.86" gradientUnits="userSpaceOnUse"><stop offset="0" stop-color="#d1d3d4"/><stop offset="0.19" stop-color="#979899"/><stop offset="0.4" stop-color="#616263"/><stop offset="0.59" stop-color="#373838"/><stop offset="0.76" stop-color="#191919"/><stop offset="0.9" stop-color="#070707"/><stop offset="1"/></linearGradient><linearGradient id="linear-gradient-24" x1="151.87" y1="249.24" x2="142.06" y2="255.34" gradientUnits="userSpaceOnUse"><stop offset="0" stop-color="#696969"/><stop offset="0.24" stop-color="#9c9c9c"/><stop offset="0.48" stop-color="#c7c7c7"/><stop offset="0.69" stop-color="#e6e6e6"/><stop offset="0.87" stop-color="#f8f8f8"/><stop offset="1" stop-color="#fff"/></linearGradient><radialGradient id="New_Gradient_Swatch_copy_22-3" cx="146" cy="246.58" r="5.19" xlink:href="#New_Gradient_Swatch_copy_22"/><radialGradient id="Radial_Gradient_1-9" cx="144.89" cy="242.29" r="6" xlink:href="#Linear_Gradient_1"/><linearGradient id="linear-gradient-25" x1="105.39" y1="250.65" x2="110.19" y2="242.76" xlink:href="#linear-gradient-19"/><linearGradient id="linear-gradient-26" x1="51.03" y1="218.87" x2="55.31" y2="211.82" xlink:href="#linear-gradient-19"/><linearGradient id="linear-gradient-27" x1="156.85" y1="270.66" x2="204.13" y2="270.66" xlink:href="#linear-gradient-9"/><linearGradient id="linear-gradient-28" x1="165.91" y1="271.75" x2="172.19" y2="271.75" xlink:href="#linear-gradient-11"/><linearGradient id="linear-gradient-29" x1="235.99" y1="272.2" x2="238.8" y2="272.2" gradientTransform="matrix(-1, 0, 0, 1, 408.77, 0)" gradientUnits="userSpaceOnUse"><stop offset="0" stop-color="#bcbec0"/><stop offset="0.69" stop-color="#e9eaea"/><stop offset="1" stop-color="#fff"/></linearGradient><linearGradient id="linear-gradient-30" x1="163.74" y1="272.2" x2="168.73" y2="272.2" xlink:href="#linear-gradient-11"/><linearGradient id="linear-gradient-31" x1="239.57" y1="272.56" x2="241.8" y2="272.56" xlink:href="#linear-gradient-29"/><linearGradient id="linear-gradient-32" x1="199.53" y1="256.14" x2="202.31" y2="256.14" xlink:href="#linear-gradient-11"/><linearGradient id="linear-gradient-33" x1="206.06" y1="256.19" x2="207.98" y2="256.19" xlink:href="#linear-gradient-29"/><linearGradient id="linear-gradient-34" x1="200.74" y1="253.85" x2="202.77" y2="253.85" xlink:href="#linear-gradient-11"/><linearGradient id="linear-gradient-35" x1="205.71" y1="253.89" x2="207.11" y2="253.89" xlink:href="#linear-gradient-29"/><radialGradient id="New_Gradient_Swatch_copy_20" cx="165.56" cy="-3046.01" r="2.14" gradientTransform="translate(0 5347.33) scale(1 1.67)" gradientUnits="userSpaceOnUse"><stop offset="0" stop-color="#feeca8"/><stop offset="1" stop-color="#ffa98c"/></radialGradient><radialGradient id="Radial_Gradient_1-10" cx="193.26" cy="268.87" r="17.55" xlink:href="#Linear_Gradient_1"/><linearGradient id="linear-gradient-36" x1="221.53" y1="256.61" x2="159.06" y2="248.94" xlink:href="#linear-gradient-23"/><linearGradient id="linear-gradient-37" x1="98.52" y1="230.53" x2="103.41" y2="222.45" xlink:href="#linear-gradient-22"/><linearGradient id="New_Gradient_Swatch_copy_13-3" x1="44.24" y1="210.83" x2="48.18" y2="210.83" xlink:href="#New_Gradient_Swatch_copy_13"/><radialGradient id="Radial_Gradient_1-11" cx="97.35" cy="213.39" r="44.8" xlink:href="#Linear_Gradient_1"/><linearGradient id="linear-gradient-38" x1="137.29" y1="246.57" x2="141.01" y2="246.57" xlink:href="#linear-gradient-19"/><radialGradient id="New_Gradient_Swatch_copy_22-4" cx="137.47" cy="245.26" r="3.6" xlink:href="#New_Gradient_Swatch_copy_22"/><linearGradient id="linear-gradient-39" x1="128.14" y1="241.63" x2="131.85" y2="241.63" xlink:href="#linear-gradient-19"/><radialGradient id="New_Gradient_Swatch_copy_22-5" cx="128.32" cy="240.32" r="3.6" xlink:href="#New_Gradient_Swatch_copy_22"/><radialGradient id="White_Black_Radial" cx="122.86" cy="221.94" r="14.27" xlink:href="#Linear_Gradient_1"/><linearGradient id="New_Gradient_Swatch_copy_25" x1="46.55" y1="180.45" x2="107.05" y2="214.73" gradientUnits="userSpaceOnUse"><stop offset="0" stop-color="#25054d"/><stop offset="1" stop-color="#45108a"/></linearGradient><linearGradient id="New_Gradient_Swatch_copy_25-2" x1="46.5" y1="180.53" x2="107.01" y2="214.81" xlink:href="#New_Gradient_Swatch_copy_25"/><linearGradient id="New_Gradient_Swatch_copy_25-3" x1="46.47" y1="180.58" x2="106.98" y2="214.87" xlink:href="#New_Gradient_Swatch_copy_25"/><linearGradient id="New_Gradient_Swatch_copy_25-4" x1="46.45" y1="180.62" x2="106.95" y2="214.91" xlink:href="#New_Gradient_Swatch_copy_25"/><linearGradient id="New_Gradient_Swatch_copy_25-5" x1="46.43" y1="180.66" x2="106.93" y2="214.94" xlink:href="#New_Gradient_Swatch_copy_25"/><linearGradient id="New_Gradient_Swatch_copy_25-6" x1="46.39" y1="180.73" x2="106.89" y2="215.02" xlink:href="#New_Gradient_Swatch_copy_25"/><linearGradient id="New_Gradient_Swatch_copy_25-7" x1="46.35" y1="180.79" x2="106.86" y2="215.08" xlink:href="#New_Gradient_Swatch_copy_25"/><linearGradient id="New_Gradient_Swatch_copy_25-8" x1="46.32" y1="180.84" x2="106.83" y2="215.12" xlink:href="#New_Gradient_Swatch_copy_25"/><linearGradient id="New_Gradient_Swatch_copy_25-9" x1="42.89" y1="186.91" x2="103.39" y2="221.19" xlink:href="#New_Gradient_Swatch_copy_25"/><linearGradient id="New_Gradient_Swatch_copy_25-10" x1="42.89" y1="186.9" x2="103.4" y2="221.19" xlink:href="#New_Gradient_Swatch_copy_25"/><linearGradient id="New_Gradient_Swatch_copy_25-11" x1="42.89" y1="186.9" x2="103.4" y2="221.18" xlink:href="#New_Gradient_Swatch_copy_25"/><linearGradient id="New_Gradient_Swatch_copy_25-12" x1="42.9" y1="186.89" x2="103.4" y2="221.18" xlink:href="#New_Gradient_Swatch_copy_25"/><linearGradient id="New_Gradient_Swatch_copy_25-13" x1="42.9" y1="186.89" x2="103.41" y2="221.17" xlink:href="#New_Gradient_Swatch_copy_25"/><linearGradient id="New_Gradient_Swatch_copy_25-14" x1="42.9" y1="186.88" x2="103.41" y2="221.17" xlink:href="#New_Gradient_Swatch_copy_25"/><linearGradient id="New_Gradient_Swatch_copy_25-15" x1="42.9" y1="186.88" x2="103.41" y2="221.16" xlink:href="#New_Gradient_Swatch_copy_25"/><linearGradient id="New_Gradient_Swatch_copy_25-16" x1="42.91" y1="186.87" x2="103.41" y2="221.16" xlink:href="#New_Gradient_Swatch_copy_25"/><linearGradient id="New_Gradient_Swatch_copy_25-17" x1="42.91" y1="186.87" x2="103.42" y2="221.15" xlink:href="#New_Gradient_Swatch_copy_25"/><linearGradient id="New_Gradient_Swatch_copy_25-18" x1="42.91" y1="186.86" x2="103.42" y2="221.15" xlink:href="#New_Gradient_Swatch_copy_25"/><linearGradient id="New_Gradient_Swatch_copy_8" x1="6481.08" y1="236.89" x2="6551.24" y2="221.16" gradientTransform="matrix(-1, 0, 0, 1, 6547.09, 0)" gradientUnits="userSpaceOnUse"><stop offset="0.04" stop-color="#ffa98c"/><stop offset="0.32" stop-color="#ffb892"/><stop offset="0.86" stop-color="#fee1a3"/><stop offset="1" stop-color="#feeca8"/></linearGradient><linearGradient id="New_Gradient_Swatch_copy_8-2" x1="6494.62" y1="230.87" x2="6526.44" y2="221.34" xlink:href="#New_Gradient_Swatch_copy_8"/><linearGradient id="New_Gradient_Swatch_copy_8-3" x1="6524.78" y1="183.29" x2="6506.27" y2="218.57" xlink:href="#New_Gradient_Swatch_copy_8"/><linearGradient id="linear-gradient-40" x1="6515.24" y1="222.84" x2="6525.42" y2="219.8" gradientTransform="matrix(-1, 0, 0, 1, 6547.09, 0)" gradientUnits="userSpaceOnUse"><stop offset="0.04" stop-color="#c97052"/><stop offset="0.34" stop-color="#d47e61"/><stop offset="0.92" stop-color="#f2a48a"/><stop offset="1" stop-color="#f7aa90"/></linearGradient><linearGradient id="linear-gradient-41" x1="6512.76" y1="207.04" x2="6507.84" y2="216.41" xlink:href="#linear-gradient-40"/><linearGradient id="linear-gradient-42" x1="6921.08" y1="1900.46" x2="6927.5" y2="1903.93" gradientTransform="matrix(-0.87, -0.5, 0, 1.15, 6030.75, 1501.95)" xlink:href="#linear-gradient-40"/><linearGradient id="linear-gradient-43" x1="6924.74" y1="1900.46" x2="6931.17" y2="1903.93" gradientTransform="matrix(-0.87, -0.5, 0, 1.15, 6030.75, 1501.95)" xlink:href="#linear-gradient-40"/><linearGradient id="New_Gradient_Swatch_copy_8-4" x1="6507.88" y1="246.24" x2="6569.68" y2="232.38" xlink:href="#New_Gradient_Swatch_copy_8"/><linearGradient id="New_Gradient_Swatch_copy_8-5" x1="6519.81" y1="240.93" x2="6547.84" y2="232.54" xlink:href="#New_Gradient_Swatch_copy_8"/><linearGradient id="New_Gradient_Swatch_copy_8-6" x1="6546.37" y1="199.02" x2="6530.07" y2="230.1" xlink:href="#New_Gradient_Swatch_copy_8"/><linearGradient id="linear-gradient-44" x1="6537.97" y1="233.87" x2="6546.93" y2="231.18" xlink:href="#linear-gradient-40"/><linearGradient id="linear-gradient-45" x1="6535.78" y1="219.95" x2="6531.45" y2="228.2" xlink:href="#linear-gradient-40"/><linearGradient id="linear-gradient-46" x1="6948.04" y1="1920.34" x2="6953.7" y2="1923.39" gradientTransform="matrix(-0.87, -0.5, 0, 1.15, 6030.75, 1501.95)" xlink:href="#linear-gradient-40"/><linearGradient id="linear-gradient-47" x1="6951.27" y1="1920.34" x2="6956.93" y2="1923.39" gradientTransform="matrix(-0.87, -0.5, 0, 1.15, 6030.75, 1501.95)" xlink:href="#linear-gradient-40"/><linearGradient id="New_Gradient_Swatch_copy_8-7" x1="38.61" y1="245.94" x2="76.64" y2="234.55" gradientTransform="matrix(1, 0, 0, 1, 0, 0)" xlink:href="#New_Gradient_Swatch_copy_8"/><linearGradient id="New_Gradient_Swatch_copy_8-8" x1="3.89" y1="250.56" x2="51.85" y2="239.81" gradientTransform="matrix(1, 0, 0, 1, 0, 0)" xlink:href="#New_Gradient_Swatch_copy_8"/><linearGradient id="New_Gradient_Swatch_copy_8-9" x1="49.76" y1="204.64" x2="33.46" y2="235.71" gradientTransform="matrix(1, 0, 0, 1, 0, 0)" xlink:href="#New_Gradient_Swatch_copy_8"/><linearGradient id="linear-gradient-48" x1="41.36" y1="239.48" x2="50.32" y2="236.8" gradientTransform="matrix(1, 0, 0, 1, 0, 0)" xlink:href="#linear-gradient-40"/><linearGradient id="linear-gradient-49" x1="39.17" y1="225.56" x2="34.84" y2="233.82" gradientTransform="matrix(1, 0, 0, 1, 0, 0)" xlink:href="#linear-gradient-40"/><linearGradient id="linear-gradient-50" x1="-553.81" y1="-1323.2" x2="-548.16" y2="-1320.15" gradientTransform="matrix(0.87, -0.5, 0, 1.15, 516.34, 1501.95)" xlink:href="#linear-gradient-40"/><linearGradient id="linear-gradient-51" x1="-550.58" y1="-1323.2" x2="-544.93" y2="-1320.15" gradientTransform="matrix(0.87, -0.5, 0, 1.15, 516.34, 1501.95)" xlink:href="#linear-gradient-40"/><linearGradient id="New_Gradient_Swatch_copy_8-10" x1="31.08" y1="225.08" x2="63.16" y2="215.48" gradientTransform="matrix(1, 0, 0, 1, 0, 0)" xlink:href="#New_Gradient_Swatch_copy_8"/><linearGradient id="New_Gradient_Swatch_copy_8-11" x1="1.79" y1="228.98" x2="42.25" y2="219.91" gradientTransform="matrix(1, 0, 0, 1, 0, 0)" xlink:href="#New_Gradient_Swatch_copy_8"/><linearGradient id="New_Gradient_Swatch_copy_8-12" x1="40.48" y1="190.24" x2="26.73" y2="216.45" gradientTransform="matrix(1, 0, 0, 1, 0, 0)" xlink:href="#New_Gradient_Swatch_copy_8"/><linearGradient id="linear-gradient-52" x1="33.4" y1="219.63" x2="40.96" y2="217.37" gradientTransform="matrix(1, 0, 0, 1, 0, 0)" xlink:href="#linear-gradient-40"/><linearGradient id="linear-gradient-53" x1="31.55" y1="207.89" x2="27.9" y2="214.86" gradientTransform="matrix(1, 0, 0, 1, 0, 0)" xlink:href="#linear-gradient-40"/><linearGradient id="linear-gradient-54" x1="-562.17" y1="-1345.56" x2="-557.4" y2="-1342.99" gradientTransform="matrix(0.87, -0.5, 0, 1.15, 516.34, 1501.95)" xlink:href="#linear-gradient-40"/><linearGradient id="linear-gradient-55" x1="-559.45" y1="-1345.56" x2="-554.68" y2="-1342.99" gradientTransform="matrix(0.87, -0.5, 0, 1.15, 516.34, 1501.95)" xlink:href="#linear-gradient-40"/><linearGradient id="linear-gradient-56" x1="78.93" y1="269.93" x2="53.42" y2="269.93" gradientUnits="userSpaceOnUse"><stop offset="0.04" stop-color="#9f19ab"/><stop offset="0.13" stop-color="#a31cac"/><stop offset="0.22" stop-color="#ae25b1"/><stop offset="0.31" stop-color="#c234b8"/><stop offset="0.4" stop-color="#dc48c1"/><stop offset="0.48" stop-color="#ff63ce"/><stop offset="0.48" stop-color="#ff63ce"/><stop offset="0.61" stop-color="#ed55c7"/><stop offset="0.74" stop-color="#e04bc3"/><stop offset="0.87" stop-color="#dc48c1"/></linearGradient><linearGradient id="New_Gradient_Swatch_copy_9" x1="81.03" y1="237.59" x2="64.18" y2="269.71" gradientUnits="userSpaceOnUse"><stop offset="0.04" stop-color="#9f19ab"/><stop offset="0.24" stop-color="#ae25b1"/><stop offset="0.65" stop-color="#d744bf"/><stop offset="1" stop-color="#ff63ce"/></linearGradient><radialGradient id="Radial_Gradient_1-12" cx="64.98" cy="269.41" r="7.18" xlink:href="#Linear_Gradient_1"/><linearGradient id="linear-gradient-57" x1="78.93" y1="271.37" x2="53.42" y2="271.37" xlink:href="#linear-gradient-56"/><linearGradient id="linear-gradient-58" x1="60.43" y1="256.71" x2="73.52" y2="259.47" gradientUnits="userSpaceOnUse"><stop offset="0.01" stop-color="#c1a1d5"/><stop offset="0.05" stop-color="#c8abda"/><stop offset="0.11" stop-color="#dac6e6"/><stop offset="0.2" stop-color="#f7f2f9"/><stop offset="0.22" stop-color="#fff"/><stop offset="0.25" stop-color="#f9f5fb"/><stop offset="0.31" stop-color="#e8dbef"/><stop offset="0.36" stop-color="#d5bfe3"/><stop offset="0.4" stop-color="#c7afe1"/><stop offset="0.48" stop-color="#b397de"/><stop offset="0.55" stop-color="#a788dc"/><stop offset="0.61" stop-color="#a383db"/><stop offset="0.76" stop-color="#ae8ddc"/><stop offset="1" stop-color="#c8a6de"/></linearGradient><linearGradient id="New_Gradient_Swatch_copy_9-2" x1="60.73" y1="243.93" x2="68.09" y2="247.61" xlink:href="#New_Gradient_Swatch_copy_9"/><linearGradient id="linear-gradient-59" x1="59.24" y1="263.26" x2="72.12" y2="265.97" gradientUnits="userSpaceOnUse"><stop offset="0" stop-color="#c211a1"/><stop offset="0.03" stop-color="#c518a5"/><stop offset="0.08" stop-color="#ce2daf"/><stop offset="0.09" stop-color="#cf30b1"/><stop offset="0.21" stop-color="#ff63ce"/><stop offset="0.28" stop-color="#eb48bf"/><stop offset="0.41" stop-color="#c211a1"/><stop offset="0.54" stop-color="#a919ab"/><stop offset="0.73" stop-color="#ac18aa"/><stop offset="0.9" stop-color="#b715a5"/><stop offset="1" stop-color="#c211a1"/></linearGradient><linearGradient id="linear-gradient-60" x1="60.78" y1="255.94" x2="73.66" y2="258.65" xlink:href="#linear-gradient-59"/><linearGradient id="linear-gradient-61" x1="62.34" y1="248.55" x2="75.22" y2="251.26" xlink:href="#linear-gradient-59"/><linearGradient id="New_Gradient_Swatch_copy_18" x1="68.3" y1="246.65" x2="63.83" y2="246.65" gradientUnits="userSpaceOnUse"><stop offset="0.04" stop-color="#9f19ab"/><stop offset="0.16" stop-color="#ae25b1"/><stop offset="0.41" stop-color="#d744bf"/><stop offset="0.63" stop-color="#ff63ce"/><stop offset="0.87" stop-color="#dc48c1"/></linearGradient><linearGradient id="Linear_Gradient_1-2" x1="66.33" y1="245.86" x2="66.33" y2="253.49" xlink:href="#Linear_Gradient_1"/><radialGradient id="radial-gradient-5" cx="-3003.4" cy="-196.69" r="7.34" gradientTransform="matrix(0.32, -0.06, 0.19, 0.98, 1078.24, 263.39)" gradientUnits="userSpaceOnUse"><stop offset="0" stop-color="#10054d"/><stop offset="0.1" stop-color="#0d043d"/><stop offset="0.32" stop-color="#070222"/><stop offset="0.54" stop-color="#03010f"/><stop offset="0.76" stop-color="#010004"/><stop offset="1"/></radialGradient><radialGradient id="New_Gradient_Swatch_copy" cx="13778.15" cy="868.07" r="7.34" gradientTransform="matrix(-0.32, -0.06, -0.19, 0.98, 4683.36, 263.39)" xlink:href="#radial-gradient"/><linearGradient id="New_Gradient_Swatch_copy_18-2" x1="262.29" y1="122.08" x2="239.96" y2="71.35" xlink:href="#New_Gradient_Swatch_copy_18"/><linearGradient id="New_Gradient_Swatch_copy_9-3" x1="223.02" y1="116.74" x2="266.42" y2="81.38" xlink:href="#New_Gradient_Swatch_copy_9"/><radialGradient id="Radial_Gradient_1-13" cx="255.38" cy="91.94" r="21.84" xlink:href="#Linear_Gradient_1"/><linearGradient id="New_Gradient_Swatch_copy_10-3" x1="-291.1" y1="2200.9" x2="-301.1" y2="2193.34" gradientTransform="matrix(0.5, 0.87, -0.58, 1, 1674.7, -1840.34)" xlink:href="#New_Gradient_Swatch_copy_10"/><linearGradient id="Linear_Gradient_1-3" x1="313.97" y1="177.21" x2="285.9" y2="161.73" xlink:href="#Linear_Gradient_1"/><radialGradient id="radial-gradient-6" cx="354.28" cy="-5462.9" r="54.47" gradientTransform="matrix(0.33, 0, 0, 0.42, 137.2, 2372.51)" gradientUnits="userSpaceOnUse"><stop offset="0" stop-color="#ba348e"/><stop offset="0.13" stop-color="#8a276a"/><stop offset="0.27" stop-color="#601b4a"/><stop offset="0.41" stop-color="#3e112f"/><stop offset="0.55" stop-color="#230a1a"/><stop offset="0.7" stop-color="#0f040c"/><stop offset="0.85" stop-color="#040103"/><stop offset="1"/></radialGradient><radialGradient id="radial-gradient-7" cx="332.16" cy="-5631.32" r="77.7" gradientTransform="matrix(0.33, 0, 0, 0.42, 106.15, 2383.47)" xlink:href="#radial-gradient"/></defs><title>Recurso 1</title><g class="cls-1"><g id="Capa_2" data-name="Capa 2"><g id="Layer_1" data-name="Layer 1"><g class="cls-2"><path class="cls-3" d="M302.42,283.4a14.55,14.55,0,0,1-7.28-1.75L251,256.51l-44.18-25.15a7.71,7.71,0,0,1-4.18-6.65c0-3,1.84-5.71,5-7.55l28.92-16.27a17.88,17.88,0,0,1,8.83-2.25,14.56,14.56,0,0,1,7.28,1.76l44.19,25.14L341,250.69a7.7,7.7,0,0,1,4.18,6.65c0,3-1.84,5.7-5,7.55l-28.92,16.27A17.87,17.87,0,0,1,302.42,283.4Z"/><path class="cls-4" d="M208.4,217.78l7.85-4.37c.32-.19,15-8.21,15.31-8l5.05-2.48c2.29-1.32,5.64-1.75,8.54-1.75a14.88,14.88,0,0,1,7,1.83l35.38,20.15,7.54,4.3L338,251.86a9.18,9.18,0,0,1,3.33,3.24,6.8,6.8,0,0,1,.88,3.1c.09,2.84-1.66,5.53-4.8,7.34l-7.84,4.37c-.32.19-15,8.22-15.31,8.06l-5.06,2.47c-2.28,1.32-5.63,1.76-8.53,1.76a15,15,0,0,1-7-1.83l-35.38-20.16-7.54-4.29-42.93-24.45a9.28,9.28,0,0,1-3.33-3.25,6.76,6.76,0,0,1-.88-3.1C203.52,222.28,205.26,219.6,208.4,217.78Z"/><path class="cls-5" d="M209.19,218.41l7.63-4.22c.64-.37,14.41-7.62,15-7.3l4.9-2c2.05-1.19,5.62-1.26,8.23-1.26a15.47,15.47,0,0,1,6.77,1.9L286,225.09l7.32,4.18L335,253a10.1,10.1,0,0,1,3.29,3.09,6.7,6.7,0,0,1,.95,2.95c.17,2.72-1.49,5.35-4.57,7.13l-7.63,4.22c-.64.37-14.41,7.61-15,7.29l-4.9,2c-2.06,1.18-5.62,1.26-8.23,1.26a15.43,15.43,0,0,1-6.77-1.91L257.85,259.5l-7.33-4.17-41.66-23.76a9.91,9.91,0,0,1-3.29-3.09,6.68,6.68,0,0,1-1-2.94C204.45,222.81,206.1,220.19,209.19,218.41Z"/><path class="cls-6" d="M210,219l7.42-4.06c1-.56,13.79-7,14.62-6.54l4.76-1.57c1.82-1.06,5.6-.77,7.92-.77a16.24,16.24,0,0,1,6.52,2l33.3,19,7.1,4L332,254.19a11.14,11.14,0,0,1,3.25,2.93,6.55,6.55,0,0,1,1,2.8c.25,2.61-1.32,5.17-4.35,6.92l-7.42,4.06c-1,.56-13.79,7-14.62,6.54L305.15,279c-1.82,1.06-5.6.77-7.92.77a16.24,16.24,0,0,1-6.52-2l-33.3-19-7.1-4.05-40.4-23.06a11.14,11.14,0,0,1-3.25-2.93,6.6,6.6,0,0,1-1-2.8C205.37,223.34,206.94,220.78,210,219Z"/><path class="cls-7" d="M210.75,219.65l7.21-3.9c1.28-.74,13.17-6.43,14.28-5.79l4.61-1.12c1.59-.92,5.59-.27,7.61-.27,1.77,0,5,1.33,6.27,2.06L283,229.06l6.88,3.93L329,255.36a12.43,12.43,0,0,1,3.2,2.77,6.53,6.53,0,0,1,1.12,2.65c.33,2.49-1.14,5-4.12,6.71L322,271.4c-1.28.73-13.17,6.42-14.28,5.78l-4.6,1.12c-1.6.92-5.59.28-7.62.28-1.76,0-5-1.33-6.27-2.07L257,258.08l-6.88-3.93L211,231.78a12.24,12.24,0,0,1-3.2-2.77,6.48,6.48,0,0,1-1.12-2.65C206.3,223.87,207.78,221.37,210.75,219.65Z"/><path class="cls-8" d="M211.54,220.27l7-3.74c1.6-.93,12.56-5.83,13.94-5l4.45-.67c1.37-.79,5.58.22,7.32.22,1.51,0,4.93,1.51,6,2.14l31.22,17.86,6.66,3.81L326,256.53a14.38,14.38,0,0,1,3.16,2.61,6.85,6.85,0,0,1,1.2,2.5c.41,2.38-1,4.82-3.9,6.5l-7,3.75c-1.59.92-12.55,5.83-13.93,5l-4.46.66c-1.36.79-5.57-.21-7.31-.21-1.51,0-4.93-1.51-6-2.14l-31.23-17.86-6.65-3.81L212,231.89a14.41,14.41,0,0,1-3.16-2.62,6.56,6.56,0,0,1-1.2-2.5C207.23,224.39,208.62,222,211.54,220.27Z"/><path class="cls-9" d="M212.32,220.89l6.79-3.58C221,216.2,231,212.08,232.7,213l4.3-.21c1.14-.66,5.56.71,7,.71,1.26,0,4.86,1.69,5.76,2.21L280,233l6.44,3.69,36.62,21a17.21,17.21,0,0,1,3.11,2.46,6.57,6.57,0,0,1,1.28,2.35c.5,2.27-.8,4.64-3.67,6.3L317,272.38c-1.92,1.11-11.93,5.23-13.59,4.28l-4.31.21c-1.14.66-5.56-.71-7-.71-1.26,0-4.86-1.69-5.76-2.21L256.1,256.66,249.66,253,213,232a17.21,17.21,0,0,1-3.11-2.46,6.73,6.73,0,0,1-1.28-2.35C208.15,224.92,209.45,222.55,212.32,220.89Z"/><path class="cls-10" d="M213.1,221.52l6.58-3.43c2.23-1.29,11.31-4.64,13.24-3.52l4.16.24c.91-.53,5.54,1.2,6.7,1.2,1,0,4.79,1.87,5.51,2.29L278.44,235l6.21,3.56L320,258.86a21.45,21.45,0,0,1,3.06,2.3,7,7,0,0,1,1.37,2.2c.58,2.15-.64,4.46-3.45,6.09l-6.57,3.43c-2.24,1.29-11.31,4.63-13.25,3.51l-4.15-.24c-.92.53-5.55-1.2-6.71-1.2-1,0-4.79-1.87-5.51-2.29L255.66,256l-6.21-3.57L214.09,232.1a22.13,22.13,0,0,1-3.07-2.3,6.69,6.69,0,0,1-1.36-2.2C209.07,225.45,210.29,223.14,213.1,221.52Z"/><path class="cls-11" d="M213.89,222.14l6.36-3.27c2.55-1.48,10.69-4,12.9-2.76l4,.69c.69-.4,5.54,1.69,6.41,1.69s4.71,2,5.25,2.37L276.92,237l6,3.44L317,260a19.71,19.71,0,0,1,3,2.14,4.55,4.55,0,0,1,1.44,2.05c.67,2-.46,4.29-3.22,5.88l-6.36,3.27c-2.56,1.48-10.69,4-12.9,2.76l-4-.69c-.68.39-5.53-1.69-6.4-1.69s-4.71-2.06-5.26-2.37l-28.1-16.14-6-3.45-34.09-19.58a19.24,19.24,0,0,1-3-2.14,4.63,4.63,0,0,1-1.45-2.06C210,226,211.13,223.73,213.89,222.14Z"/><path class="cls-12" d="M214.67,222.76l6.15-3.11c2.87-1.66,10.07-3.45,12.56-2l3.85,1.15c.46-.27,5.52,2.18,6.1,2.18a41.35,41.35,0,0,1,5,2.45L275.4,239l5.77,3.31L314,261.19a27.09,27.09,0,0,1,3,2,4.5,4.5,0,0,1,1.53,1.9c.76,1.92-.29,4.11-3,5.67l-6.15,3.11c-2.87,1.66-10.07,3.45-12.56,2L293,274.72c-.46.27-5.52-2.18-6.1-2.18a41.35,41.35,0,0,1-5-2.45l-27.07-15.57L249,251.21l-32.84-18.89a27.09,27.09,0,0,1-3-2,4.54,4.54,0,0,1-1.53-1.91C210.92,226.51,212,224.32,214.67,222.76Z"/><path class="cls-13" d="M215.45,223.38l5.94-3c3.2-1.84,9.45-2.84,12.22-1.24l3.7,1.59c.23-.13,5.5,2.68,5.79,2.68s4.57,2.42,4.75,2.52l26,15,5.55,3.2L311,262.36c.14.08,2.87,1.71,2.93,1.83a4.36,4.36,0,0,1,1.61,1.76c.85,1.8-.12,3.92-2.77,5.45l-5.94,3c-3.19,1.84-9.44,2.84-12.21,1.25l-3.7-1.6c-.23.13-5.51-2.68-5.8-2.68s-4.57-2.41-4.75-2.52l-26-15-5.55-3.19-31.57-18.2c-.14-.08-2.87-1.7-2.94-1.83a4.41,4.41,0,0,1-1.61-1.75C211.84,227,212.8,224.91,215.45,223.38Z"/><path d="M292.43,275.34,253.91,253.1l-38.53-22.24c-3-1.76-2.66-4.83.85-6.86l5.73-2.8c3.52-2,8.83-2.24,11.87-.49L272.36,243l38.53,22.24c3,1.75,2.66,4.82-.86,6.85l-5.72,2.8C300.79,276.88,295.48,277.1,292.43,275.34Z"/></g><ellipse class="cls-14" cx="300.98" cy="71.31" rx="18.88" ry="24.17" transform="translate(-4.52 119.76) rotate(-22.34)"/><path class="cls-15" d="M292.49,270l-67.38-38.9c-7.6-4.39-13.76-16.16-13.76-26.29V25.38c0-5.16-4.24-6.29-1.67-8.15.1-.07,6-2.75,6.13-2.8a9.93,9.93,0,0,1,9.3.55l67.38,38.89c7.6,4.39,13.76,16.16,13.76,26.3V259.6c0,5.38-1.74,9.22-4.51,11-.17.1-7.29,3.49-7.48,3.55C291.81,275,295.81,271.92,292.49,270Z"/><path class="cls-16" d="M291.87,54.08l-67.38-38.9c-3.59-2.07,63.65,40.14,63.65,40.14,7.6,4.39,13.76,16.16,13.76,26.3,0,0,3.73,183.57,3.73,178.19V80.37C305.63,70.24,299.47,58.47,291.87,54.08Z"/><path class="cls-17" d="M287.25,272.39l-67.37-38.9c-7.6-4.38-13.76-16.15-13.76-26.29V27.77c0-10.13,6.16-14.79,13.76-10.4l67.37,38.9C294.85,60.66,301,72.43,301,82.56V262C301,272.12,294.85,276.78,287.25,272.39Z"/><path class="cls-18" d="M286.06,273l-67.38-38.9c-7.6-4.39-13.76-16.16-13.76-26.29V28.42c0-10.13,6.16-14.79,13.76-10.4l67.38,38.9c7.6,4.38,13.76,16.16,13.76,26.29V262.64C299.82,272.77,293.66,277.43,286.06,273Z"/><path class="cls-19" d="M206.79,209V29.39c0-8.88,5.41-13,12.07-9.12l67,38.7c6.66,3.84,12.06,14.16,12.06,23V261.67c0,8.88-5.4,13-12.06,9.12l-67-38.7C212.2,228.25,206.79,217.93,206.79,209Z"/><path class="cls-20" d="M209.48,210.14V31.39c0-7.43,4.52-10.85,10.09-7.63l65.59,37.87c5.58,3.22,10.1,11.86,10.1,19.29V259.66c0,7.44-4.52,10.86-10.1,7.64l-65.59-37.87C214,226.21,209.48,217.57,209.48,210.14Z"/><path class="cls-21" d="M220.33,25.74c-5.25-3-9.51-.61-9.51,5.42V211.92c0,6,4.26,13.38,9.51,16.41l64.07,37c5.26,3,9.52.61,9.52-5.43V79.14c0-6-4.26-13.38-9.52-16.41Z"/><path class="cls-22" d="M301.62,124.73V112.61a5,5,0,0,1,2.11-4h0c1.16-.67,2.1,0,2.1,1.59V122.3a5.05,5.05,0,0,1-2.1,4h0C302.57,127,301.62,126.27,301.62,124.73Z"/><path class="cls-23" d="M302.89,126.11c-.6,0-.81-.74-.81-1.39V112.61A4.58,4.58,0,0,1,304,109a1.16,1.16,0,0,1,.6-.19c.6,0,.82.74.82,1.38V122.3a4.62,4.62,0,0,1-1.88,3.62A1.22,1.22,0,0,1,302.89,126.11Z"/><path class="cls-24" d="M302.7,125V112.92a4.58,4.58,0,0,1,1.88-3.62,1.23,1.23,0,0,1,.54-.18.66.66,0,0,0-.56-.32,1.16,1.16,0,0,0-.6.19,4.58,4.58,0,0,0-1.88,3.62v12.12c0,.64.21,1.38.81,1.38H303A2.06,2.06,0,0,1,302.7,125Z"/><path class="cls-25" d="M284.4,62.73l-64.07-37c-5.25-3-9.51-.61-9.51,5.42V211.92c0,6,4.26,13.38,9.51,16.41l64.07,37c5.26,3,9.52.61,9.52-5.43V79.14C293.92,73.11,289.66,65.76,284.4,62.73Zm8.69,197.16a7.05,7.05,0,0,1-1.27,4.45,3.88,3.88,0,0,1-3.15,1.46h0a7.83,7.83,0,0,1-3.85-1.2l-64.07-37c-5-2.89-9.11-9.94-9.11-15.69V31.16c0-3.64,1.7-5.9,4.42-5.9a7.89,7.89,0,0,1,3.86,1.2l64.07,37c5,2.89,9.1,9.94,9.1,15.69Z"/><g class="cls-26"><polygon class="cls-27" points="267.27 248.96 244.27 217.99 230.01 187.84 225.06 163.88 210.82 145.18 210.82 180.18 216.77 185.76 225.87 203.41 224.72 210.4 228.4 215.95 231.16 214.38 251.96 246.59 269.98 257 267.27 248.96"/><path class="cls-28" d="M283.28,98.74l10.64,6.14v-2.31l-10.64-6.14V62.08l-2-1.16V95.27l-6.61-3.81-6.2-16.09L210.82,42.09V44.4l12.6,7.27v30.2l-12.6-7.28V76.9l12.6,7.28v20.58l-12.6-7.3v2.32l14.6,8.45V85.33l43.16,24.93V156l-5.36-3.1-18.58,5.61-33.82-19.53v2.31l22.76,13.14v30l-22.76,10.14v2.18l23.54-10.48,20.84,35.59L235.51,237.1l1.88,1.08,33.34-25.84,10.55,6v43.94h2v-42.8l10.47,6,.17-.29v-1.92l-10.64-6.09V187.74l10.64,6.14v-2.31l-10.64-6.14V166.74l10.64,6.14v-2.31l-10.64-6.14V118.74l10.64,6.14v-2.31l-10.64-6.14Zm-47.7,56.8L244,160.4l.38.22L263,155l5.61,3.24V177l-7.94-4.59-25.06,11.16Zm45.7,60.54L270.56,210,256.8,220.61l-20.6-35.17,24.33-10.82,8.05,4.65v.06h.11l12.59,7.26Zm0-31.8-10.7-6.17v-18.7l10.7,6.17Zm0-21-10.7-6.17V111.41l10.7,6.17Zm0-48L225.42,83V52.83l41.44,23.92,6.19,16.09,8.23,4.74Z"/><polygon class="cls-29" points="288.74 265.39 292.33 263.63 262.34 202.47 262.34 171.38 251.6 151.32 251.6 43.79 247.6 41.48 247.6 152.32 258.34 172.38 258.34 203.4 288.74 265.39"/></g><path class="cls-30" d="M269.05,261.16s12.88-7.93,21-15.5c7.5-7,12-17.5,12-17.5s4,31.5-2,37S269.05,261.16,269.05,261.16Z"/><path class="cls-31" d="M245.75,121.48v7.63a5.79,5.79,0,0,1-3.64,5.37,17.58,17.58,0,0,1-15.78-1.43l-21-13.83a6.64,6.64,0,0,1-.47-10.94V86.62l-7,4.18a22,22,0,0,0,.22,38l20.72,12.05a27.07,27.07,0,0,0,28.49-.8,8.89,8.89,0,0,0,4-6.95l0-8.44Z"/><path class="cls-32" d="M245.18,120.51v8.6A5.18,5.18,0,0,1,241.9,134a17,17,0,0,1-15.26-1.38l-21-13.83a6.07,6.07,0,0,1-.77-9.72v-1.41a7.18,7.18,0,0,0,.17,12.08l21,13.84A18.16,18.16,0,0,0,242.31,135a6.29,6.29,0,0,0,4-5.89v-6.65l4.43,2.51,0,8.08a8.37,8.37,0,0,1-3.72,6.51,26.33,26.33,0,0,1-27.89.78l-20.72-12a21.49,21.49,0,0,1-.22-37l6.7-4V86l-7.28,4.35a22.62,22.62,0,0,0,.23,39l20.72,12a27.42,27.42,0,0,0,29.08-.81,9.48,9.48,0,0,0,4.23-7.42l0-8.76Z"/><path class="cls-33" d="M236,139.55l-.09-1.12a23.54,23.54,0,0,0,4.34-.8l.31,1.09A24.1,24.1,0,0,1,236,139.55Zm-4.63-.06a24,24,0,0,1-4.53-1l.34-1.08a23.37,23.37,0,0,0,4.32.91Zm13.5-2.48-.52-1c.58-.3,1.15-.63,1.7-1a5.39,5.39,0,0,0,1.61-1.58l.94.62a6.46,6.46,0,0,1-1.94,1.92C246.05,136.35,245.45,136.69,244.84,137Zm-22.29-.3-4-2.18.55-1,4,2.18Zm-7.93-4.37-4-2.18.55-1,4,2.18Zm-9-5-1.37-.76a18.57,18.57,0,0,1-2.53-1.69l.7-.89a16.72,16.72,0,0,0,2.38,1.59l1.37.76Zm-7.15-5.8a17.35,17.35,0,0,1-2.25-4.09l1.06-.41a16,16,0,0,0,2.1,3.82Zm-3.33-8.63c0-.54-.08-1.08-.08-1.63a18.16,18.16,0,0,1,.24-3l1.12.18a16.92,16.92,0,0,0-.23,2.75,15.81,15.81,0,0,0,.08,1.62Zm2.58-8.64-1-.48a17.55,17.55,0,0,1,2.54-3.92l.86.74A16.15,16.15,0,0,0,197.74,104.29Z"/><path class="cls-34" d="M316.37,168l-9.79-8v26.81a38.46,38.46,0,0,1,4.73,53.66h0a73,73,0,0,1-93.26,16.7L103.11,190.07,42.27,226.13,168.87,299a120.16,120.16,0,0,0,156.87-33.14l2.67-3.64A69,69,0,0,0,316.37,168Z"/><path class="cls-32" d="M317,167.23,306.88,159l-.13.15v2.33l9,7.33A67.94,67.94,0,0,1,327.6,261.6l-2.67,3.64a119,119,0,0,1-155.56,32.87l-125.12-72,58.86-34.88,114.44,66.83a73.72,73.72,0,0,0,94.53-16.94,39.59,39.59,0,0,0-5.19-55.36l-.14.16v2.38a37.59,37.59,0,0,1,3.79,51.55,71.72,71.72,0,0,1-92,16.48L103.61,189.21l-.5-.3L40.28,226.14l128.09,73.7a121,121,0,0,0,158.17-33.42l2.67-3.64A69.93,69.93,0,0,0,317,167.23Z"/><g class="cls-35"><rect class="cls-36" x="93.57" y="219.85" width="2" height="4" transform="translate(-144.88 193.16) rotate(-60.08)"/><path class="cls-37" d="M244.11,291.78l-.07-2c2.57-.1,5.17-.3,7.74-.6l.23,2C249.39,291.47,246.73,291.68,244.11,291.78Zm-7.93,0c-2.63-.12-5.28-.34-7.89-.67l.25-2c2.55.32,5.15.54,7.73.65Zm23.66-1.84-.4-2c2.53-.51,5.07-1.13,7.55-1.84l.55,1.93C265,288.76,262.42,289.39,259.84,289.91Zm-39.37-.13c-2.58-.54-5.16-1.18-7.68-1.93l.56-1.91c2.47.72,5,1.36,7.53,1.88Zm54.59-4.23-.7-1.87c2.41-.91,4.82-1.92,7.15-3l.85,1.81C280,283.59,277.53,284.63,275.06,285.55Zm-69.78-.23c-2.45-.94-4.9-2-7.28-3.13l.86-1.8c2.33,1.11,4.73,2.14,7.14,3.06Zm84.11-6.49-1-1.74c2.25-1.28,4.46-2.66,6.59-4.11l1.13,1.66C294,276.11,291.69,277.53,289.39,278.83ZM191,278.49l-6.8-3.91,1-1.74,6.8,3.92Zm-13.6-7.82-6.8-3.92,1-1.73,6.8,3.91Zm125.08-.75-1.26-1.56c2-1.61,4-3.33,5.85-5.11l1.37,1.46C306.53,266.52,304.52,268.27,302.48,269.92ZM163.8,262.84l-6.8-3.91,1-1.74,6.8,3.92ZM314,259l-1.49-1.33c1.72-1.92,3.39-3.93,4.95-6l1.59,1.21C317.43,255,315.73,257.08,314,259ZM150.2,255l-6.8-3.92,1-1.73,6.8,3.91Zm-13.6-7.83-6.8-3.91,1-1.74,6.8,3.92Zm186.92-.65-1.62-1.1a50.35,50.35,0,0,0,3.73-6.54l1.77.84A53.21,53.21,0,0,1,323.52,246.54ZM123,239.37l-6.8-3.92,1-1.73,6.8,3.91Zm206.92-6.92-1.83-.56a50.08,50.08,0,0,0,1.58-7.19l1.9.27A51.74,51.74,0,0,1,329.92,232.45Zm-220.52-.91-6.8-3.91,1-1.74,6.8,3.92Zm220.76-14.19a50.14,50.14,0,0,0-.61-7.35l1.89-.3a52.71,52.71,0,0,1,.64,7.63Zm-2.32-14.52a48.49,48.49,0,0,0-2.75-6.83l1.72-.85a51.13,51.13,0,0,1,2.86,7.1Zm-6.5-13.17a48.84,48.84,0,0,0-4.09-5.1l-.56-.5,1.27-1.43.64.56a53.74,53.74,0,0,1,4.32,5.37Z"/><polygon class="cls-38" points="313.49 180.73 310.94 178.45 310.83 176 314.63 179.45 313.49 180.73"/></g><path class="cls-39" d="M189.83,226.89l.34,5.22a1,1,0,0,0,1.58.82l3.3-2a1.06,1.06,0,0,0,.49-1l-.67-5.2a1,1,0,0,0-1.61-.73l-3,2A1.05,1.05,0,0,0,189.83,226.89Z"/><path class="cls-40" d="M190.73,232.84l-.33-5.22a1,1,0,0,1,.45-.93l3-2a1.06,1.06,0,0,1,1-.08,1,1,0,0,0-1.59-.65l-3,2a1.05,1.05,0,0,0-.45.93l.34,5.22a1,1,0,0,0,.59.87Z"/><path class="cls-41" d="M47.2,225.35l96.23,55.58a41,41,0,0,0,40.81-.1l17.3-10a2.63,2.63,0,0,0,0-4.56l-114.82-67a2.64,2.64,0,0,0-2.65,0l-36.9,21.49A2.64,2.64,0,0,0,47.2,225.35Z"/><polygon class="cls-42" points="139.1 267.6 152.68 259.7 138.47 257.12 139.1 267.6"/><polygon class="cls-42" points="62.34 224.29 75.92 216.4 61.71 213.81 62.34 224.29"/><path class="cls-43" d="M84,230.48c0,2.53-.88,4.33-2.3,5.2l-4.53,2.62c-1.48.83-.54-1.05-2.78-2.34-4.52-2.61-8.19-8.94-8.19-14.12,0-2.57-2.37-2.59-.92-3.45l4.82-2.66c1.47-.8,3.49-.65,5.71.63C80.34,219,84,225.29,84,230.48Z"/><ellipse class="cls-44" cx="71.08" cy="228.44" rx="6.66" ry="11.54" transform="translate(-105.58 67.1) rotate(-30.31)"/><path class="cls-45" d="M71.47,218.85c-2.16-1.25-4.13-1.42-5.6-.68a6.46,6.46,0,0,1,4.9,1c4.52,2.61,8.18,8.93,8.18,14.12,0,2.7-1,4.56-2.58,5.35,2-.55,3.29-2.54,3.29-5.63C79.66,227.79,76,221.46,71.47,218.85Z"/><path class="cls-46" d="M71.35,221.35c-3.48-2-6.3-.41-6.3,3.59a13.89,13.89,0,0,0,6.3,10.87c3.49,2,6.31.4,6.31-3.59A13.86,13.86,0,0,0,71.35,221.35Zm2.41,8,2-.17c.29,0,.67.37.76.8a8.4,8.4,0,0,1,.18,1.7,5.71,5.71,0,0,1-.18,1.5c-.09.32-.47.28-.76-.09l-2-2.42a1.11,1.11,0,0,1-.26-.7v-.23C73.49,229.47,73.59,229.32,73.76,229.31Zm1.25-2-2,.17a.73.73,0,0,1-.54-.32,1.84,1.84,0,0,0-.17-.22,1.12,1.12,0,0,1-.28-.7v-2.59c0-.39.32-.49.65-.19a11.76,11.76,0,0,1,2.41,3C75.36,226.88,75.3,227.31,75,227.33Zm-4.36-4.47v2.58c0,.23-.11.38-.28.38l-.18,0a.67.67,0,0,1-.54-.3l-2-2.43c-.29-.36-.35-.86-.12-1A3.11,3.11,0,0,1,70,221.9,1.11,1.11,0,0,1,70.65,222.86ZM67,224.11l2,2.42a1.17,1.17,0,0,1,.26.69v.24c0,.23-.1.37-.26.39L67,228c-.29,0-.67-.36-.76-.79a8.45,8.45,0,0,1-.19-1.71,5.67,5.67,0,0,1,.19-1.49C66.32,223.7,66.7,223.74,67,224.11Zm.71,5.72,2-.17a.7.7,0,0,1,.54.32l.18.22a1.15,1.15,0,0,1,.28.7v2.58c0,.4-.33.49-.66.2a12.08,12.08,0,0,1-2.41-3C67.35,230.28,67.41,229.85,67.7,229.83Zm4.36,4.47v-2.59c0-.22.1-.37.28-.38h.17a.62.62,0,0,1,.54.3l2,2.43c.29.36.35.86.11,1a3.1,3.1,0,0,1-2.41.2A1.08,1.08,0,0,1,72.06,234.3Z"/><path class="cls-47" d="M71,221.5c-3.48-2-6.3-.4-6.3,3.6A13.89,13.89,0,0,0,71,236c3.48,2,6.3.4,6.3-3.59A13.89,13.89,0,0,0,71,221.5Zm2.41,8,1.95-.17c.3,0,.68.37.76.79a7.86,7.86,0,0,1,.19,1.71,5.3,5.3,0,0,1-.19,1.5c-.08.32-.46.27-.76-.09l-1.95-2.42a1.12,1.12,0,0,1-.27-.7s0-.08,0-.12,0-.07,0-.11C73.09,229.63,73.2,229.48,73.37,229.47Zm1.25-2-2,.17a.7.7,0,0,1-.54-.32l-.17-.22a1.14,1.14,0,0,1-.28-.7v-2.59c0-.39.32-.49.65-.2a12,12,0,0,1,2.41,3C75,227,74.91,227.46,74.62,227.49ZM70.25,223v2.58c0,.23-.1.38-.27.38l-.18,0a.69.69,0,0,1-.54-.31l-2-2.42c-.3-.37-.36-.86-.12-1a3.11,3.11,0,0,1,2.41-.21A1.08,1.08,0,0,1,70.25,223Zm-3.65,1.24,2,2.43a1.1,1.1,0,0,1,.27.69v.24a.33.33,0,0,1-.27.39l-2,.16c-.3,0-.67-.36-.76-.79a8.45,8.45,0,0,1-.19-1.71,5.67,5.67,0,0,1,.19-1.49C65.93,223.85,66.3,223.9,66.6,224.26Zm.71,5.72,2-.16a.65.65,0,0,1,.54.32l.18.21a1.19,1.19,0,0,1,.27.71v2.58c0,.39-.32.49-.65.2a12,12,0,0,1-2.41-3C67,230.44,67,230,67.31,230Zm4.36,4.48v-2.59c0-.22.1-.38.28-.38h.17a.65.65,0,0,1,.54.3l2,2.42c.29.37.35.86.11,1a3.06,3.06,0,0,1-2.41.21A1.08,1.08,0,0,1,71.67,234.46Z"/><path class="cls-48" d="M161.67,275c0,2.53-.87,4.32-2.3,5.19l-4.53,2.63c-1.48.83-.53-1.05-2.78-2.35-4.52-2.61-8.19-8.93-8.19-14.12,0-2.56-2.37-2.58-.91-3.44l4.81-2.67c1.48-.79,3.49-.65,5.71.64C158,263.5,161.67,269.82,161.67,275Z"/><path class="cls-49" d="M156.93,277.7c0,5.18-3.67,7.27-8.19,4.66s-8.18-8.93-8.18-14.12,3.66-7.27,8.18-4.66S156.93,272.51,156.93,277.7Z"/><path class="cls-50" d="M149.14,263.38c-2.17-1.25-4.14-1.42-5.6-.69a6.45,6.45,0,0,1,4.89,1c4.52,2.61,8.19,8.93,8.19,14.12,0,2.7-1,4.55-2.59,5.35,2-.56,3.29-2.55,3.29-5.63C157.32,272.31,153.66,266,149.14,263.38Z"/><path class="cls-51" d="M149,265.87c-3.49-2-6.31-.4-6.31,3.6A13.88,13.88,0,0,0,149,280.34c3.48,2,6.3.4,6.3-3.6A13.89,13.89,0,0,0,149,265.87Zm2.4,8,2-.17c.29,0,.67.37.76.79a8.53,8.53,0,0,1,.19,1.71,5.69,5.69,0,0,1-.19,1.5c-.09.32-.47.27-.76-.09l-2-2.43a1.12,1.12,0,0,1-.26-.69v-.24C151.15,274,151.26,273.85,151.42,273.84Zm1.25-2-1.95.16a.65.65,0,0,1-.54-.32l-.18-.21a1.2,1.2,0,0,1-.28-.7V268.2c0-.39.33-.49.66-.2a12.18,12.18,0,0,1,2.4,3C153,271.4,153,271.83,152.67,271.86Zm-4.36-4.47V270c0,.23-.11.38-.28.38l-.17,0a.66.66,0,0,1-.54-.31l-2-2.42c-.29-.37-.35-.86-.11-1a3.08,3.08,0,0,1,2.4-.21A1.09,1.09,0,0,1,148.31,267.39Zm-3.66,1.24,2,2.43a1.06,1.06,0,0,1,.26.69V272c0,.22-.09.37-.26.38l-2,.17c-.29,0-.67-.36-.76-.79a8.5,8.5,0,0,1-.18-1.71,5.76,5.76,0,0,1,.18-1.5C144,268.22,144.36,268.27,144.65,268.63Zm.71,5.72,2-.16a.68.68,0,0,1,.54.32l.17.21a1.2,1.2,0,0,1,.28.71V278c0,.39-.33.49-.66.2a12.18,12.18,0,0,1-2.4-3C145,274.81,145.07,274.38,145.36,274.35Zm4.36,4.48v-2.59c0-.22.11-.38.28-.38l.18,0a.69.69,0,0,1,.54.31l1.95,2.42c.29.37.35.86.11,1a3.08,3.08,0,0,1-2.4.21A1.09,1.09,0,0,1,149.72,278.83Z"/><path class="cls-52" d="M148.62,266c-3.48-2-6.3-.4-6.3,3.59a13.89,13.89,0,0,0,6.3,10.88c3.48,2,6.31.4,6.31-3.6A13.9,13.9,0,0,0,148.62,266Zm2.41,8,2-.16c.29,0,.67.36.76.79a8.43,8.43,0,0,1,.18,1.71,5.69,5.69,0,0,1-.18,1.49c-.09.33-.47.28-.76-.08l-2-2.43a1.1,1.1,0,0,1-.26-.69v-.24C150.76,274.15,150.86,274,151,274Zm1.25-2-2,.16a.68.68,0,0,1-.54-.32l-.17-.21a1.14,1.14,0,0,1-.28-.71v-2.58c0-.39.32-.49.65-.2a11.64,11.64,0,0,1,2.41,3C152.63,271.56,152.57,272,152.28,272Zm-4.36-4.48v2.59c0,.22-.11.37-.28.38h-.18a.65.65,0,0,1-.54-.3L145,267.79c-.3-.36-.35-.86-.12-1a3.07,3.07,0,0,1,2.41-.21A1.09,1.09,0,0,1,147.92,267.54Zm-3.66,1.25,2,2.42a1.17,1.17,0,0,1,.26.7v.23c0,.23-.1.38-.26.39l-2,.17c-.29,0-.67-.37-.76-.79a8.53,8.53,0,0,1-.19-1.71,5.69,5.69,0,0,1,.19-1.5C143.59,268.38,144,268.43,144.26,268.79Zm.71,5.72,1.95-.17a.7.7,0,0,1,.54.32l.18.22a1.18,1.18,0,0,1,.28.7v2.59c0,.39-.33.49-.66.2a12.46,12.46,0,0,1-2.41-3C144.62,275,144.67,274.53,145,274.51Zm4.36,4.47V276.4c0-.23.1-.38.28-.38l.17,0a.66.66,0,0,1,.54.31l2,2.42c.29.36.35.86.11,1a3.1,3.1,0,0,1-2.41.21A1.1,1.1,0,0,1,149.33,279Z"/><path class="cls-53" d="M201.88,248.76,170.32,200a5.24,5.24,0,0,0-1.8-1.7L84.38,149.81a5.3,5.3,0,0,0-5.19-.05l-23.72,13a5.24,5.24,0,0,0-2.39,2.71l-7.25,15.43a5.28,5.28,0,0,0-.36,1.84l-.55,28.46a5.3,5.3,0,0,0,2.68,4.71l14.85,8.41a13.93,13.93,0,0,1-.21-2.38c0-5.87,4.14-8.23,9.26-5.28s9.26,10.11,9.26,16a10.84,10.84,0,0,1-.17,2l58.51,33c0-.4-.06-.79-.06-1.18,0-5.87,4.15-8.24,9.27-5.28s9.26,10.1,9.26,16c0,.33,0,.64,0,.94l3.47,2a5.28,5.28,0,0,0,5,.14l33.82-16.71a5.29,5.29,0,0,0,3-4.75v-7A5.29,5.29,0,0,0,201.88,248.76Z"/><path class="cls-54" d="M163.6,265.59,159,251.44,139.9,215.26a8.29,8.29,0,0,0-3.31-3.53L53.85,164.12a5.25,5.25,0,0,0-.77,1.34l-7.25,15.43a5.28,5.28,0,0,0-.36,1.84l-.55,28.46a5.3,5.3,0,0,0,2.68,4.71l14.85,8.41a13.93,13.93,0,0,1-.21-2.38c0-5.87,4.14-8.23,9.26-5.28s9.26,10.11,9.26,16a10.84,10.84,0,0,1-.17,2l58.51,33c0-.4-.06-.79-.06-1.18,0-5.87,4.15-8.24,9.27-5.28s9.26,10.1,9.26,16c0,.33,0,.64,0,.94l3.47,2a5.23,5.23,0,0,0,3.54.6V269.54A8.77,8.77,0,0,0,163.6,265.59Z"/><path class="cls-55" d="M164.66,265.47,160,251.33,141,215.14a8.21,8.21,0,0,0-3.3-3.53L54.91,164c-.29.36.17.59,0,1l81.92,47.12a8.18,8.18,0,0,1,3.3,3.54l19.09,36.18L163.83,266a8.83,8.83,0,0,1,.93,4v10.4c.51.06.33.2.83.12V269.42A8.89,8.89,0,0,0,164.66,265.47Z"/><path class="cls-56" d="M152.59,228.92l8.06-2.92a57.42,57.42,0,0,0,14.71-7.92l2.14-1.59a2,2,0,0,1,2.93.51l11.1,16.72a2.05,2.05,0,0,1-.56,2.84l-5.67,3.79a64,64,0,0,1-14.08,7.11l-8.87,3.18a2,2,0,0,1-2.55-1.06l-8.37-17.86A2.06,2.06,0,0,1,152.59,228.92Z"/><path class="cls-57" d="M153.73,229.35l7.69-2.79a54.48,54.48,0,0,0,14-7.54l2-1.52a2,2,0,0,1,2.79.49l10.58,15.93a1.94,1.94,0,0,1-.54,2.7l-5.39,3.62A61,61,0,0,1,171.49,247L163,250a1.94,1.94,0,0,1-2.42-1l-8-17A2,2,0,0,1,153.73,229.35Z"/><path class="cls-56" d="M134.86,224.31l.47,15.7a1.12,1.12,0,0,0,.57,1l18.86,10.8V249.1L145.13,228l-8.59-4.68A1.13,1.13,0,0,0,134.86,224.31Z"/><polygon class="cls-58" points="135.86 223.89 136.33 239.8 150.04 247.73 149.67 239.86 144.83 228.78 135.86 223.89"/><path class="cls-59" d="M156.68,271.49l6.9,3.69a10,10,0,0,0,8,.27l5.25-2.1c8.18-3.27,15.75-8.36,22.88-13l3.32-2.66,1.06.07-.16,7-1,1.05a97.46,97.46,0,0,1-31.31,16.63h0a10,10,0,0,1-7.79-.77l-6.65-3.9Z"/><path class="cls-60" d="M163.07,268.22h0a6.24,6.24,0,0,0,5.93.32h0a2.93,2.93,0,0,1,4.06,1.82l.93,3.14-4.82,1.9a6.23,6.23,0,0,1-5-.16l-1.35-.64Z"/><path class="cls-61" d="M163.07,268.22h0a6.24,6.24,0,0,0,5.93.32h0a2.93,2.93,0,0,1,4.06,1.82l.93,3.14-5.57-.26C163,272.1,163.07,268.22,163.07,268.22Z"/><path class="cls-62" d="M199.5,255.62l-.42,4.57s3.91-2.42,4.14-3.36a56.79,56.79,0,0,0-.15-6.7l-1.13,1.37h0A5.61,5.61,0,0,0,199.5,255.62Z"/><path class="cls-63" d="M199.5,255.62l-.42,4.57a49.65,49.65,0,0,0,2.74-5.18c.23-.94,1.25-4.88,1.25-4.88l-1.13,1.37h0A5.61,5.61,0,0,0,199.5,255.62Z"/><path class="cls-56" d="M191.53,233.72,190.42,232a2.32,2.32,0,0,1-1,1.6l-6.37,4.27a72.23,72.23,0,0,1-15.84,8l-7.83,2.81.41.87a2,2,0,0,0,2.55,1.06l8.87-3.18a64,64,0,0,0,14.08-7.11l5.67-3.79A2.05,2.05,0,0,0,191.53,233.72Z"/><path class="cls-64" d="M188.72,230.73,180.26,218a2,2,0,0,0-2.79-.49l-2,1.52a54.48,54.48,0,0,1-14,7.54l-7.69,2.79a1.94,1.94,0,0,0-1.18,2.41,64.19,64.19,0,0,0,16.42,2A60.25,60.25,0,0,0,188.72,230.73Z"/><polygon class="cls-65" points="141.76 212.16 166.3 198.19 82.23 150.17 57.7 163.91 141.76 212.16"/><path class="cls-66" d="M152.51,250.17c1.31.8-6.72,4.36-9.87,5s-.49,1.44-.58.92C141.61,253.64,148.09,247.47,152.51,250.17Z"/><path class="cls-67" d="M143.07,245.82l.53,6.22a1.4,1.4,0,0,0,2,1.17l6.76-2a1.4,1.4,0,0,0,.83-1.48l-2.23-5.83a1.4,1.4,0,0,0-1.81-1.13L144,244.37A1.41,1.41,0,0,0,143.07,245.82Z"/><path class="cls-68" d="M144.91,252.8l-.53-6.23a1.41,1.41,0,0,1,1-1.44l5.07-1.64a1.36,1.36,0,0,1,.35-.07,1.4,1.4,0,0,0-1.66-.69L144,244.37a1.41,1.41,0,0,0-1,1.45l.53,6.22a1.38,1.38,0,0,0,1.46,1.27A1.6,1.6,0,0,1,144.91,252.8Z"/><path class="cls-69" d="M142.21,260.24,78,223.39a18.78,18.78,0,0,1,2.81,9.24,10.84,10.84,0,0,1-.17,2l58.51,33c0-.4-.06-.79-.06-1.18C139,263.22,140.27,261.06,142.21,260.24Z"/><path class="cls-70" d="M62.24,221.93c0-3,1.06-5,2.78-6l-20-11.49-.13,6.73a5.3,5.3,0,0,0,2.68,4.71l14.85,8.41A13.93,13.93,0,0,1,62.24,221.93Z"/><path class="cls-71" d="M156.85,272.19l6.9,3.7a10,10,0,0,0,8,.27l5.25-2.11a98,98,0,0,0,22.88-13l4.22-3.42V264a3.21,3.21,0,0,1-1.2,2.5l-.56.45c-9.89,6.51-19.05,11.94-30.6,16.26h0a9.94,9.94,0,0,1-7.79-.77l-6.66-3.9Z"/><path class="cls-72" d="M172.19,270.5,170.52,274s-5.08-3.15-4.58-4.23S172.19,270.5,172.19,270.5Z"/><path class="cls-73" d="M170,273c0,.89.63,1.25,1.4.8a3.09,3.09,0,0,0,1.41-2.42c0-.89-.63-1.25-1.41-.8A3.1,3.1,0,0,0,170,273Z"/><path class="cls-74" d="M168.73,271.21,167.41,274s-4-2.5-3.65-3.37S168.73,271.21,168.73,271.21Z"/><path class="cls-75" d="M167,273.2c0,.71.5,1,1.12.64a2.46,2.46,0,0,0,1.12-1.93c0-.71-.5-1-1.12-.63A2.43,2.43,0,0,0,167,273.2Z"/><path class="cls-76" d="M202.31,255l-1.14,2.41s-1.95-1.48-1.6-2.22S202.31,255,202.31,255Z"/><path class="cls-77" d="M200.8,256.75c0,.61.42.85.95.55a2.13,2.13,0,0,0,1-1.66c0-.61-.43-.85-1-.55A2.12,2.12,0,0,0,200.8,256.75Z"/><path class="cls-78" d="M202.77,253.05l-.83,1.76s-1.42-1.08-1.17-1.62S202.77,253.05,202.77,253.05Z"/><path class="cls-79" d="M201.67,254.3c0,.44.31.62.7.39a1.55,1.55,0,0,0,.7-1.2c0-.45-.32-.63-.7-.4A1.52,1.52,0,0,0,201.67,254.3Z"/><path class="cls-80" d="M166.33,269.13a6.25,6.25,0,0,1-3.26-.91l-.22,6.38,1.35.64a6.34,6.34,0,0,0,2.77.59Z"/><path class="cls-56" d="M174.65,267.41l.68,1.81a2.61,2.61,0,0,0,3.61,1.43c2.51-1.24,6.38-3.22,9.61-5.13,3.6-2.14,6.56-4.07,8.07-5.08a2.62,2.62,0,0,0,1.16-2l.19-3.33a.74.74,0,0,0-1.14-.66c-2.11,1.4-6.55,4.31-10.34,6.46-4.22,2.4-9.62,4.8-11.45,5.59A.74.74,0,0,0,174.65,267.41Z"/><path class="cls-81" d="M197.3,254.31a.79.79,0,0,1,.09.38l-.2,3.33a2.59,2.59,0,0,1-1.16,2c-1.51,1-4.47,2.94-8.07,5.08-3.23,1.91-7.1,3.89-9.6,5.13a2.6,2.6,0,0,1-2.31,0,2.61,2.61,0,0,0,2.89.39c2.51-1.24,6.38-3.22,9.61-5.13,3.6-2.14,6.56-4.07,8.07-5.08a2.62,2.62,0,0,0,1.16-2l.19-3.33A.73.73,0,0,0,197.3,254.31Z"/><path class="cls-82" d="M193.49,237.68s6.42,9.41,5.95,11.44-10.48,8.32-15.8,10.74-15,6.84-17.3,5.28-4.23-12.91-4.23-12.91a128,128,0,0,0,18.49-6.65C189.84,241.36,193.49,237.68,193.49,237.68Z"/><path class="cls-56" d="M190.75,240l-.06-.09a.73.73,0,0,0-1.11-.1,1.09,1.09,0,0,1-.17.13l-4,2.72a46,46,0,0,1-10.07,5.08l-4.4,1.58a.56.56,0,0,0-.32.76h0a1.3,1.3,0,0,0,1.62.67l5.64-2a40.73,40.73,0,0,0,9-4.52l3.6-2.41A1.31,1.31,0,0,0,190.75,240Z"/><polygon class="cls-83" points="45.53 191.83 153.31 252.65 156.6 260.83 45.45 198.4 45.53 191.83"/><path class="cls-84" d="M44.38,205.06l3.8,2v9.56h0a6.64,6.64,0,0,1-3.94-6.24Z"/><polygon class="cls-85" points="138.38 260.9 81.26 228.13 81.61 227.52 138.73 260.29 138.38 260.9"/><polygon class="cls-86" points="143.55 222.99 51.5 170.03 51.15 170.64 111.32 205.26 111.32 244.31 112.02 244.31 112.02 205.66 132.69 217.55 132.69 256.75 133.39 256.75 133.39 217.96 143.2 223.6 143.55 222.99"/><path class="cls-87" d="M139.73,247.64c0,1.18-.83,1.65-1.86,1.06a4.1,4.1,0,0,1-1.86-3.2c0-1.18.84-1.65,1.86-1.06A4.09,4.09,0,0,1,139.73,247.64Z"/><path class="cls-88" d="M139.7,247.56c.41.82-.33.95-1.64.3a7.83,7.83,0,0,1-3.11-2.68c-.41-.82.33-1,1.64-.3A7.9,7.9,0,0,1,139.7,247.56Z"/><path class="cls-89" d="M130.57,242.71c0,1.17-.83,1.65-1.86,1a4.09,4.09,0,0,1-1.85-3.2c0-1.18.83-1.65,1.85-1.06A4.09,4.09,0,0,1,130.57,242.71Z"/><path class="cls-90" d="M130.54,242.62c.41.83-.33,1-1.64.3a7.83,7.83,0,0,1-3.11-2.68c-.41-.82.33-1,1.64-.29A7.81,7.81,0,0,1,130.54,242.62Z"/><path class="cls-85" d="M129.83,237.44h0a1.68,1.68,0,0,1-.79-.2l-13.2-7.09a3.67,3.67,0,0,1-1.94-3.25V213.53a1.68,1.68,0,0,1,1.67-1.68,1.69,1.69,0,0,1,.85.23l13.26,7.74a3.7,3.7,0,0,1,1.83,3.18v12.76A1.67,1.67,0,0,1,131,237,1.7,1.7,0,0,1,129.83,237.44Zm-14.26-24.88a1,1,0,0,0-1,1V226.9a3,3,0,0,0,1.57,2.63l13.2,7.09a1,1,0,0,0,1.14-.16,1,1,0,0,0,.29-.7V223a3,3,0,0,0-1.48-2.57l-13.26-7.74A1,1,0,0,0,115.57,212.56Z"/><path class="cls-91" d="M130,238h0a1.68,1.68,0,0,1-.79-.2L116,230.7a3.71,3.71,0,0,1-1.94-3.25V214.08a1.67,1.67,0,0,1,2.52-1.45l13.27,7.74a3.69,3.69,0,0,1,1.82,3.18v12.76A1.67,1.67,0,0,1,130,238ZM115.73,213.1a1,1,0,0,0-1,1v13.37a3,3,0,0,0,1.57,2.63l13.2,7.09a1,1,0,0,0,1.14-.16,1,1,0,0,0,.29-.7V223.55a3,3,0,0,0-1.48-2.58l-13.26-7.73A1,1,0,0,0,115.73,213.1Z"/><path class="cls-92" d="M59.4,187.7c0,1.6-.4,2.61-1.19,3s-2,.16-3.46-.71l-2.4-1.39v-9.76L55,180.38a8.91,8.91,0,0,1,3.23,3.13A8,8,0,0,1,59.4,187.7Zm-1.87-1a4.85,4.85,0,0,0-2.42-4.54l-1-.55v6.35l.77.45Q57.53,189.88,57.53,186.67Z"/><path class="cls-93" d="M66.06,196.52l-4.9-2.83v-9.76l4.9,2.83v1.69L63,186.67v2.14l2.88,1.66v1.7L63,190.5V193l3.09,1.79Z"/><path class="cls-94" d="M67.83,197.54v-9.76l1.81,1v8.05l3.45,2v1.71Z"/><path class="cls-95" d="M74.56,201.42v-9.75l1.81,1v9.76Z"/><path class="cls-96" d="M83.36,196.74l1.82,1.06-2.89,8.08-2-1.13-2.88-11.42,1.82,1,1.6,6.73q.14.58.27,1.35c.1.52.16.87.18,1.06a13,13,0,0,1,.44-1.9Z"/><path class="cls-97" d="M91.15,211l-4.9-2.83v-9.76l4.9,2.83v1.7l-3.1-1.79v2.14L90.93,205v1.7L88.05,205v2.51l3.1,1.79Z"/><path class="cls-98" d="M94.72,209.32v3.74l-1.8-1v-9.76l2.48,1.44A7.68,7.68,0,0,1,98,205.9a4.57,4.57,0,0,1,.83,2.68,1.79,1.79,0,0,1-.41,1.29,1.38,1.38,0,0,1-1.17.38q1.92,4.4,2.5,5.69l-2-1.15-2-4.92Zm0-1.68.58.33a2,2,0,0,0,1.27.4c.27-.06.4-.32.4-.79a2,2,0,0,0-.41-1.23,4.47,4.47,0,0,0-1.29-1l-.55-.32Z"/><path class="cls-99" d="M103.43,212.35l1.77-3,1.94,1.12-2.82,4.33v3.8l-1.79-1v-3.73l-2.82-7.65,2,1.13Z"/><polygon class="cls-100" points="52.18 191.18 52.18 193.06 55.74 195.18 55.74 193.26 52.18 191.18"/><polygon class="cls-101" points="57.63 194.27 57.63 196.15 61.19 198.26 61.19 196.34 57.63 194.27"/><polygon class="cls-102" points="63.08 197.35 63.08 199.23 66.64 201.34 66.64 199.42 63.08 197.35"/><polygon class="cls-103" points="68.54 200.43 68.54 202.31 72.1 204.43 72.1 202.51 68.54 200.43"/><polygon class="cls-104" points="73.99 203.52 73.99 205.4 77.55 207.51 77.55 205.59 73.99 203.52"/><polygon class="cls-105" points="79.44 206.6 79.44 208.48 83 210.59 83 208.67 79.44 206.6"/><polygon class="cls-106" points="84.9 209.68 84.9 211.56 88.46 213.68 88.46 211.76 84.9 209.68"/><polygon class="cls-107" points="90.35 212.77 90.35 214.65 93.91 216.76 93.91 214.84 90.35 212.77"/><polygon class="cls-108" points="95.8 215.85 95.8 217.73 99.36 219.84 99.36 217.92 95.8 215.85"/><polygon class="cls-109" points="101.25 218.93 101.25 220.81 104.82 222.92 104.82 221.01 101.25 218.93"/><polygon class="cls-41" points="0 243.68 30.83 261.18 69.33 239.68 41 222.68 0 243.68"/><polygon class="cls-110" points="39.94 225.49 39.94 242.59 23.44 233.04 23.44 215.8 39.94 225.49"/><polygon class="cls-111" points="39.92 225.49 39.92 242.59 55.57 233.55 55.57 216.31 39.92 225.49"/><polygon class="cls-112" points="55.57 216.31 39.92 225.49 23.44 215.8 39.13 206.67 55.57 216.31"/><polygon class="cls-113" points="32.94 221.45 32.94 226.04 29.21 223.91 29.21 219.19 32.94 221.45"/><polygon class="cls-114" points="48.58 212.27 32.92 221.45 29.21 219.19 44.9 210.05 48.58 212.27"/><polygon class="cls-115" points="36.8 231.7 38.11 235.74 37.26 235.25 37.26 240.08 36.34 239.55 36.34 234.72 35.49 234.24 36.8 231.7"/><polygon class="cls-116" points="32.32 232.4 33.63 229.86 34.93 233.91 34.09 233.42 34.09 238.25 33.17 237.72 33.17 232.89 32.32 232.4"/><polygon class="cls-117" points="16.25 236.2 16.25 251.26 1.72 242.84 1.72 227.66 16.25 236.2"/><polygon class="cls-118" points="16.23 236.2 16.23 251.26 30.02 243.29 30.02 228.11 16.23 236.2"/><polygon class="cls-119" points="30.02 228.11 16.23 236.2 1.72 227.66 15.54 219.62 30.02 228.11"/><polygon class="cls-120" points="10.08 232.64 10.08 236.68 6.8 234.8 6.8 230.64 10.08 232.64"/><polygon class="cls-121" points="23.86 224.55 10.06 232.64 6.8 230.64 20.62 222.6 23.86 224.55"/><polygon class="cls-122" points="13.48 241.66 14.63 245.23 13.89 244.8 13.89 249.04 13.08 248.58 13.08 244.33 12.33 243.9 13.48 241.66"/><polygon class="cls-123" points="9.54 242.28 10.69 240.05 11.84 243.61 11.09 243.18 11.09 247.43 10.28 246.96 10.28 242.71 9.54 242.28"/><polygon class="cls-124" points="34.24 241.81 34.24 256.87 48.77 248.46 48.77 233.28 34.24 241.81"/><polygon class="cls-125" points="34.26 241.81 34.26 256.87 20.47 248.91 20.47 233.72 34.26 241.81"/><polygon class="cls-126" points="20.47 233.72 34.26 241.81 48.77 233.28 34.95 225.23 20.47 233.72"/><polygon class="cls-127" points="40.4 238.25 40.4 242.29 43.68 240.42 43.68 236.26 40.4 238.25"/><polygon class="cls-128" points="26.63 230.17 40.42 238.25 43.68 236.26 29.86 228.21 26.63 230.17"/><polygon class="cls-129" points="37 247.28 35.85 250.84 36.6 250.41 36.6 254.66 37.41 254.19 37.41 249.94 38.15 249.51 37 247.28"/><polygon class="cls-130" points="40.95 247.9 39.8 245.66 38.65 249.23 39.39 248.79 39.39 253.04 40.2 252.58 40.2 248.33 40.95 247.9"/><polygon class="cls-131" points="27.39 221.6 27.39 234.31 39.65 227.21 39.65 214.4 27.39 221.6"/><polygon class="cls-132" points="27.41 221.6 27.41 234.31 15.77 227.59 15.77 214.78 27.41 221.6"/><polygon class="cls-133" points="15.77 214.78 27.41 221.6 39.65 214.4 27.99 207.61 15.77 214.78"/><polygon class="cls-134" points="32.59 218.6 32.59 222.01 35.36 220.43 35.36 216.92 32.59 218.6"/><polygon class="cls-135" points="20.97 211.78 32.6 218.6 35.36 216.92 23.7 210.13 20.97 211.78"/><polygon class="cls-136" points="29.72 226.21 28.75 229.22 29.38 228.85 29.38 232.44 30.06 232.04 30.06 228.46 30.69 228.1 29.72 226.21"/><polygon class="cls-137" points="33.05 226.74 32.08 224.85 31.11 227.86 31.74 227.49 31.74 231.08 32.42 230.68 32.42 227.1 33.05 226.74"/><path class="cls-138" d="M78.79,266.25v-.34h-25v.62h0a3.07,3.07,0,0,0,1.83,3l5.75,3.32c2.75,1.58,7.55,1.38,10.73-.45l4.11-2.37C78.06,269,79,267.55,78.79,266.25Z"/><path class="cls-139" d="M61.34,271.89l-5.75-3.32c-2.75-1.59-2.4-4.36.77-6.2L60.47,260c3.18-1.83,8-2,10.73-.44L77,262.88c2.75,1.58,2.4,4.36-.77,6.19l-4.11,2.37C68.89,273.28,64.09,273.48,61.34,271.89Z"/><path class="cls-140" d="M76.18,268.83l-4.11,2.37c-3.18,1.84-8,2-10.73.45l-5.75-3.32a3.28,3.28,0,0,1-1.84-2.49,3.1,3.1,0,0,0,1.84,2.87L61.34,272c2.75,1.58,7.55,1.38,10.73-.45l4.11-2.37c1.83-1.06,2.71-2.43,2.61-3.7C78.71,266.67,77.83,267.88,76.18,268.83Z"/><path class="cls-141" d="M78.79,267.69v-.34h0a4.71,4.71,0,0,1-2.6,3.17l-4.11,2.37c-3.18,1.83-8,2-10.73.44L55.59,270a3.29,3.29,0,0,1-1.83-2.46V268h0a3.07,3.07,0,0,0,1.83,3l5.75,3.32c2.75,1.59,7.55,1.39,10.73-.44l4.11-2.38C78.06,270.42,79,269,78.79,267.69Z"/><path class="cls-142" d="M68.79,246.72H63.87l-5.34,18.09h0v.06c0,2.51,3.49,4.55,7.8,4.55s7.8-2,7.8-4.55v-.06h0Z"/><path class="cls-143" d="M68.79,246.73c0,.8-1.1,1.44-2.46,1.44s-2.46-.64-2.46-1.44,1.1-1.43,2.46-1.43S68.79,245.94,68.79,246.73Z"/><path class="cls-144" d="M74.13,264.81l-1.06-3.59v.13c0,2.17-3,3.93-6.74,3.93s-6.75-1.76-6.75-3.93c0,0,0-.09,0-.13l-1.06,3.59h0v.06c0,2.51,3.49,4.55,7.8,4.55s7.8-2,7.8-4.55v-.06Z"/><path class="cls-145" d="M70.93,254V254c0,1.48-2.06,2.68-4.6,2.68s-4.6-1.2-4.6-2.68a.22.22,0,0,1,0-.08l-1.09,3.66a.25.25,0,0,1,0,.08c0,1.82,2.54,3.3,5.67,3.3S72,259.52,72,257.7c0,0,0,0,0-.07Z"/><path class="cls-146" d="M68.79,246.72h0c0,.79-1.1,1.44-2.46,1.44s-2.46-.65-2.46-1.44h0l-1.07,3.63v0c0,1.13,1.58,2.05,3.53,2.05s3.53-.92,3.53-2.05v0Z"/><ellipse class="cls-147" cx="66.33" cy="246.65" rx="2.02" ry="1.03"/><ellipse class="cls-148" cx="66.33" cy="246.65" rx="2.02" ry="1.03"/><path class="cls-149" d="M68.38,246.08l-1.59.31,1.7,18.09h0a.13.13,0,0,0,0,.06c.47,2.47,2,4.24,3.38,4S74,266,73.54,263.57v-.06h0Z"/><path class="cls-150" d="M64.62,246.08l1.59.31-1.7,18.09h0a.13.13,0,0,1,0,.06c-.47,2.47-2,4.24-3.38,4S59,266,59.46,263.57v-.06h0Z"/><path class="cls-151" d="M251.94,72.85c-4.57-2.64-8.67-2.72-11.51-.74l-3.28,1.53.4,2.11a15,15,0,0,0-1.1,5.93c0,6.73,3.59,17.34,7.32,26.54l3.89,20.3,4.28-2.15s15.5-12.82,15.5-26.79C267.44,89.76,260.5,77.79,251.94,72.85Z"/><path class="cls-152" d="M263.16,101.72c0,14-15.5,26.8-15.5,26.8s-15.5-30.73-15.5-44.69c0-9.83,6.94-13.78,15.5-8.84S263.16,91.9,263.16,101.72Z"/><path class="cls-153" d="M248.64,74.45c-4.47-2.58-8.49-2.71-11.32-.87,2.75-1.24,6.36-.89,10.34,1.41,8.56,4.94,15.5,16.91,15.5,26.73,0,12-11.38,23.09-14.63,26l.11.22s15.5-12.83,15.5-26.79C264.14,91.37,257.2,79.4,248.64,74.45Z"/><ellipse class="cls-154" cx="247.66" cy="92.78" rx="4.59" ry="7.96" transform="matrix(0.86, -0.5, 0.5, 0.86, -12.97, 137.67)"/><path class="cls-85" d="M249.4,98.45a12.43,12.43,0,0,1-5.64-9.74,4.37,4.37,0,0,1,1.07-3.16c-1.68.15-2.82,1.58-2.82,4a12.44,12.44,0,0,0,5.65,9.73c1.88,1.09,3.54,1,4.57,0A4.86,4.86,0,0,1,249.4,98.45Z"/><g class="cls-155"><path class="cls-156" d="M316.37,168l-10.13-8.26v26.42S319.28,170.38,316.37,168Z"/></g><ellipse class="cls-157" cx="255.88" cy="90.64" rx="18.22" ry="22.75" transform="translate(-13.32 125.61) rotate(-26.91)"/><ellipse class="cls-158" cx="217.45" cy="31.25" rx="26" ry="32.46" transform="translate(9.4 101.79) rotate(-26.91)"/></g></g></g></svg>