<svg xmlns="http://www.w3.org/2000/svg" xmlns:xlink="http://www.w3.org/1999/xlink" viewBox="0 0 2872 2915.94"><defs><style>.cls-1{fill:none;}.cls-2{isolation:isolate;}.cls-3{fill:url(#linear-gradient);}.cls-4{clip-path:url(#clip-path);}.cls-5{opacity:0.5;mix-blend-mode:soft-light;}.cls-6{fill:#fcfdfe;}.cls-7{clip-path:url(#clip-path-2);}.cls-8{fill:url(#linear-gradient-2);}.cls-9{fill:#beb8f2;}.cls-10{fill:url(#linear-gradient-3);}.cls-11{clip-path:url(#clip-path-3);}.cls-12{clip-path:url(#clip-path-4);}.cls-13{fill:url(#linear-gradient-4);}.cls-14{fill:url(#linear-gradient-5);}.cls-15{clip-path:url(#clip-path-5);}.cls-16{fill:url(#linear-gradient-6);}.cls-17{fill:url(#linear-gradient-7);}.cls-18{fill:url(#linear-gradient-8);}.cls-19{fill:#de8bdf;}.cls-20{fill:#f4f7fa;}.cls-21{fill:#fff;}.cls-22{fill:url(#linear-gradient-9);}.cls-23{fill:url(#linear-gradient-10);}.cls-24{fill:url(#linear-gradient-11);}.cls-25{fill:url(#linear-gradient-12);}.cls-26{fill:url(#linear-gradient-13);}.cls-27{fill:url(#linear-gradient-14);}.cls-28{fill:url(#linear-gradient-15);}.cls-29{fill:url(#linear-gradient-16);}.cls-30,.cls-31,.cls-38,.cls-47,.cls-61{opacity:0.3;}.cls-30,.cls-31,.cls-38,.cls-47,.cls-57,.cls-61,.cls-63{mix-blend-mode:multiply;}.cls-30{fill:url(#linear-gradient-17);}.cls-31{fill:url(#linear-gradient-18);}.cls-32{fill:url(#linear-gradient-19);}.cls-33{fill:url(#linear-gradient-20);}.cls-34{fill:url(#linear-gradient-21);}.cls-35{fill:url(#linear-gradient-22);}.cls-36{fill:url(#linear-gradient-23);}.cls-37{fill:url(#linear-gradient-24);}.cls-38{fill:url(#linear-gradient-25);}.cls-39{fill:url(#linear-gradient-26);}.cls-40{fill:url(#linear-gradient-27);}.cls-41{fill:url(#linear-gradient-28);}.cls-42{fill:url(#linear-gradient-29);}.cls-43{fill:url(#linear-gradient-30);}.cls-44{fill:url(#linear-gradient-31);}.cls-45{fill:url(#linear-gradient-32);}.cls-46{fill:url(#linear-gradient-33);}.cls-47{fill:url(#linear-gradient-34);}.cls-48{fill:url(#linear-gradient-35);}.cls-49{fill:url(#linear-gradient-36);}.cls-50{fill:url(#linear-gradient-37);}.cls-51{fill:url(#linear-gradient-38);}.cls-52{fill:url(#linear-gradient-39);}.cls-53{fill:url(#linear-gradient-40);}.cls-54{fill:url(#linear-gradient-41);}.cls-55{fill:url(#linear-gradient-42);}.cls-56{fill:url(#linear-gradient-43);}.cls-57{opacity:0.25;fill:url(#linear-gradient-44);}.cls-58{fill:url(#linear-gradient-45);}.cls-59{fill:url(#linear-gradient-46);}.cls-60{fill:url(#linear-gradient-47);}.cls-61{fill:url(#linear-gradient-48);}.cls-62{fill:url(#linear-gradient-49);}.cls-63{opacity:0.4;fill:url(#linear-gradient-50);}.cls-64{fill:url(#linear-gradient-51);}.cls-65{fill:url(#linear-gradient-52);}.cls-66{fill:url(#linear-gradient-53);}.cls-67{fill:url(#linear-gradient-54);}.cls-68{fill:url(#linear-gradient-55);}.cls-69{fill:url(#linear-gradient-56);}.cls-70{fill:url(#linear-gradient-57);}.cls-71{fill:url(#linear-gradient-58);}.cls-72{fill:url(#linear-gradient-59);}</style><linearGradient id="linear-gradient" x1="3743.24" y1="-832.13" x2="4283.71" y2="57.62" gradientTransform="matrix(0.97, 0.24, -0.24, 0.97, -3421.17, 454.13)" gradientUnits="userSpaceOnUse"><stop offset="0" stop-color="#ff9085"/><stop offset="1" stop-color="#fb6fbb"/></linearGradient><clipPath id="clip-path"><path class="cls-1" d="M531.72,1466.16l232,56.56c21.52-29.54,53.55-85.91,8.66-112.68-62.41-37.21-34.11-156.34-5-193.67,36-46.21,117.66-155.52,22.08-214.57-79.57-49.16-141-64.62-118.94-177.47S649.25,626.7,546.61,607.86C438.61,588,387.15,424.63,288.18,450c-172.46,44.18-96.92,324.17,69.61,441.76s44,157.37,16,247.22c-38.16,122.67,136.69,138.5,168.78,198.56C567.74,1384.61,548,1435.84,531.72,1466.16Z"/></clipPath><clipPath id="clip-path-2"><path class="cls-1" d="M863.9,1645.35l-256.56-.87S559.5,1512.71,622.68,1420C751.61,1231,577,1131.26,510.14,1078.55,409.28,999.07,355.07,885,503.93,836s.22-280-181.16-384.89C145.27,348.45,225.31-26.3,629.88,160.59c241.6,111.61,202.83,368,214,502.18S1054.54,808.7,985.72,972.29C926.94,1112,815.8,1213.7,900,1310.2S992.63,1514.59,863.9,1645.35Z"/></clipPath><linearGradient id="linear-gradient-2" x1="-6259.14" y1="163.8" x2="-6769.89" y2="1615.41" gradientTransform="matrix(-1, 0, 0, 1, -5843.64, -34.49)" gradientUnits="userSpaceOnUse"><stop offset="0" stop-color="#ffc444"/><stop offset="1" stop-color="#f36f56"/></linearGradient><linearGradient id="linear-gradient-3" x1="-10666.85" y1="-205.13" x2="-10030.47" y2="1467.02" gradientTransform="matrix(-1, -0.07, -0.07, 1, -8256.79, -227.98)" gradientUnits="userSpaceOnUse"><stop offset="0" stop-color="#aa80f9"/><stop offset="1" stop-color="#6165d7"/></linearGradient><clipPath id="clip-path-3"><path class="cls-1" d="M1968.31,1712.27l-205.21-52.86s-52.85-153.72,23-194.7,46.81-188.59,40.45-269.11C1809.3,977.16,2045.37,997,2045.63,714.52c.07-75.13-24.91-218.43,38.43-278.28,72.17-68.17,124.85-1.29,171.25-58.31,72.53-89.11,190.22-121.07,260.37-29.37,69.24,90.51-14.89,270.68-224,415.49-138.27,120.88-140.43,157.07-129.55,245.2,7.62,61.72,66.5,222.53-17.28,286.74S1997,1429.59,2029.27,1499.3C2078.39,1605.38,1968.31,1712.27,1968.31,1712.27Z"/></clipPath><clipPath id="clip-path-4"><path class="cls-1" d="M1696.07,2027.61l244.81,76.74s85.45-111.14,53.24-218.58c-65.73-219.19,130.83-261.46,210.52-291.48C2324.8,1549,2411,1456.71,2283.89,1365s84.45-267,289.05-312.11c200.22-44.18,237.22-425.58-204.91-369.76-264,33.34-304.61,289.49-355.85,414s-244.88,75.41-228.74,252.16c13.78,151,89,281.48-20.48,348S1612.9,1864.05,1696.07,2027.61Z"/></clipPath><linearGradient id="linear-gradient-4" x1="5215.1" y1="-1291.13" x2="4704.34" y2="160.51" gradientTransform="matrix(0.95, 0.3, -0.3, 0.95, -2786.48, 410.71)" gradientUnits="userSpaceOnUse"><stop offset="0" stop-color="#e38ddd"/><stop offset="1" stop-color="#9571f6"/></linearGradient><linearGradient id="linear-gradient-5" x1="-7663.66" y1="1216.38" x2="-7123.19" y2="2106.14" gradientTransform="matrix(-1, 0.02, 0.02, 1, -5436.99, 231.8)" xlink:href="#linear-gradient-2"/><clipPath id="clip-path-5"><path class="cls-1" d="M1935,2160.12l-238.69,5.42c-14.67-33.48-33.84-95.41,15.75-111.91,68.94-22.94,66.89-145.37,46.49-188.08-25.24-52.86-81.5-177.16,24.53-214.3,88.27-30.92,151.55-32.83,154.28-147.78s63.19-188.45,167.47-184.81c109.74,3.84,195.1-144.7,286.31-98.67,158.94,80.19,25,337.41-162.88,416.48s-76.74,144.26-68.74,238c10.92,128-163.24,105.9-207.49,157.67C1917.34,2072.74,1925.67,2127,1935,2160.12Z"/></clipPath><linearGradient id="linear-gradient-6" x1="2328.39" y1="2248.8" x2="1125.77" y2="1222.91" gradientUnits="userSpaceOnUse"><stop offset="0" stop-color="#444b8c"/><stop offset="1" stop-color="#26264f"/></linearGradient><linearGradient id="linear-gradient-7" x1="-6032.33" y1="7467.26" x2="-1600.66" y2="7632.11" gradientTransform="translate(-6143.13 -3424.95) rotate(-90)" xlink:href="#linear-gradient-6"/><linearGradient id="linear-gradient-8" x1="711.96" y1="1415.71" x2="2032.9" y2="1415.71" gradientTransform="matrix(1, 0, 0, 1, 0, 0)" xlink:href="#linear-gradient"/><linearGradient id="linear-gradient-9" x1="1127.01" y1="164.55" x2="2284.66" y2="2531.69" gradientTransform="matrix(1, 0, 0, 1, 0, 0)" xlink:href="#linear-gradient-3"/><linearGradient id="linear-gradient-10" x1="968.2" y1="242.22" x2="2125.85" y2="2609.36" gradientTransform="matrix(1, 0, 0, 1, 0, 0)" xlink:href="#linear-gradient-3"/><linearGradient id="linear-gradient-11" x1="679.27" y1="383.52" x2="1836.92" y2="2750.66" gradientTransform="matrix(1, 0, 0, 1, 0, 0)" xlink:href="#linear-gradient-3"/><linearGradient id="linear-gradient-12" x1="317.08" y1="560.65" x2="1474.73" y2="2927.79" gradientTransform="matrix(1, 0, 0, 1, 0, 0)" xlink:href="#linear-gradient-3"/><linearGradient id="linear-gradient-13" x1="442.36" y1="499.38" x2="1600.01" y2="2866.52" gradientTransform="matrix(1, 0, 0, 1, 0, 0)" xlink:href="#linear-gradient-3"/><linearGradient id="linear-gradient-14" x1="566.63" y1="438.61" x2="1724.28" y2="2805.74" gradientTransform="matrix(1, 0, 0, 1, 0, 0)" xlink:href="#linear-gradient-3"/><linearGradient id="linear-gradient-15" x1="689.9" y1="378.33" x2="1847.55" y2="2745.47" gradientTransform="matrix(1, 0, 0, 1, 0, 0)" xlink:href="#linear-gradient-3"/><linearGradient id="linear-gradient-16" x1="812.18" y1="318.52" x2="1969.83" y2="2685.66" gradientTransform="matrix(1, 0, 0, 1, 0, 0)" xlink:href="#linear-gradient-3"/><linearGradient id="linear-gradient-17" x1="1314.99" y1="1367.14" x2="2073.98" y2="1367.14" gradientTransform="matrix(1, 0, 0, 1, 0, 0)" xlink:href="#linear-gradient"/><linearGradient id="linear-gradient-18" x1="659.24" y1="1693.74" x2="1305.27" y2="1717.77" gradientTransform="matrix(1, 0, 0, 1, 0, 0)" xlink:href="#linear-gradient"/><linearGradient id="linear-gradient-19" x1="1974.96" y1="2249.73" x2="2053.24" y2="2150.61" gradientTransform="translate(9.56 -106.06) rotate(-2.14)" xlink:href="#linear-gradient-3"/><linearGradient id="linear-gradient-20" x1="-9081.48" y1="4978.62" x2="-8952.71" y2="4978.62" gradientTransform="matrix(-0.94, 0.35, 0.35, 0.94, -7386.13, 1268.4)" xlink:href="#linear-gradient-6"/><linearGradient id="linear-gradient-21" x1="-8150.52" y1="5968.59" x2="-8096.22" y2="5856.2" gradientTransform="matrix(-0.85, 0.53, 0.53, 0.85, -7282.4, 1980.75)" xlink:href="#linear-gradient-2"/><linearGradient id="linear-gradient-22" x1="-8793.63" y1="5118.93" x2="-8664.85" y2="5118.93" gradientTransform="matrix(-0.93, 0.37, 0.37, 0.93, -7367.35, 1354.9)" xlink:href="#linear-gradient-6"/><linearGradient id="linear-gradient-23" x1="-7948.7" y1="5974.23" x2="-7894.4" y2="5861.84" gradientTransform="matrix(-0.85, 0.53, 0.53, 0.85, -7282.4, 1980.75)" xlink:href="#linear-gradient-2"/><linearGradient id="linear-gradient-24" x1="1500.98" y1="2676.66" x2="1816.74" y2="2276.84" gradientTransform="translate(9.56 -106.06) rotate(-2.14)" xlink:href="#linear-gradient-3"/><linearGradient id="linear-gradient-25" x1="1591.56" y1="2467.58" x2="1902.35" y2="2074.06" gradientTransform="translate(27.06 47.01) rotate(-0.03)" xlink:href="#linear-gradient-3"/><linearGradient id="linear-gradient-26" x1="1359.45" y1="2722.49" x2="1678.52" y2="2318.47" gradientTransform="matrix(1, -0.04, 0.03, 0.9, 10.94, -65.18)" xlink:href="#linear-gradient-3"/><linearGradient id="linear-gradient-27" x1="986.14" y1="4886.37" x2="1418.76" y2="4338.58" gradientTransform="translate(-440.71 -1347.63) rotate(-20.29)" xlink:href="#linear-gradient-6"/><linearGradient id="linear-gradient-28" x1="1233.52" y1="4391.34" x2="743.22" y2="4934.45" gradientTransform="translate(-440.71 -1347.63) rotate(-20.29)" xlink:href="#linear-gradient-6"/><linearGradient id="linear-gradient-29" x1="1562.91" y1="3659.13" x2="1492.44" y2="3459.48" gradientTransform="translate(-181.15 -749.92) rotate(-11.08)" gradientUnits="userSpaceOnUse"><stop offset="0" stop-color="#311944"/><stop offset="1" stop-color="#893976"/></linearGradient><linearGradient id="linear-gradient-30" x1="1255.07" y1="3369.88" x2="1280.9" y2="3548.4" xlink:href="#linear-gradient-29"/><linearGradient id="linear-gradient-31" x1="1263.2" y1="3405.91" x2="1409.24" y2="3405.91" gradientTransform="translate(-181.15 -749.92) rotate(-11.08)" xlink:href="#linear-gradient-2"/><linearGradient id="linear-gradient-32" x1="2062.69" y1="2741.01" x2="1925.29" y2="2545.91" gradientTransform="matrix(1, -0.08, 0.08, 1, -51.09, -301.06)" xlink:href="#linear-gradient-6"/><linearGradient id="linear-gradient-33" x1="1799.14" y1="3063.89" x2="2099.82" y2="2453.14" gradientTransform="matrix(1, -0.08, 0.08, 1, -51.09, -301.06)" xlink:href="#linear-gradient-29"/><linearGradient id="linear-gradient-34" x1="1652.24" y1="2671.88" x2="2312.81" y2="2671.88" gradientTransform="matrix(1, -0.08, 0.08, 1, -51.09, -301.06)" xlink:href="#linear-gradient-29"/><linearGradient id="linear-gradient-35" x1="1758.83" y1="-377" x2="1773.38" y2="-764.47" gradientTransform="translate(-16.08 1671.12) rotate(21.36)" xlink:href="#linear-gradient-2"/><linearGradient id="linear-gradient-36" x1="-9412.35" y1="547.09" x2="-9550.34" y2="196.61" gradientTransform="matrix(-0.98, -0.21, -0.21, 0.98, -7367.86, -641.15)" xlink:href="#linear-gradient-6"/><linearGradient id="linear-gradient-37" x1="1068.7" y1="638.63" x2="1064.16" y2="1004.06" gradientTransform="matrix(0.99, 0.15, -0.15, 0.99, 903.93, 895.83)" xlink:href="#linear-gradient-2"/><linearGradient id="linear-gradient-38" x1="-9458.51" y1="512.4" x2="-9557.23" y2="261.66" gradientTransform="matrix(-0.98, -0.21, -0.21, 0.98, -7367.86, -641.15)" xlink:href="#linear-gradient-6"/><linearGradient id="linear-gradient-39" x1="-9555.13" y1="361.32" x2="-9550" y2="407.09" gradientTransform="matrix(-0.98, -0.21, -0.21, 0.98, -7367.86, -641.15)" gradientUnits="userSpaceOnUse"><stop offset="0" stop-color="#ffc444"/><stop offset="1" stop-color="#f36f56"/></linearGradient><linearGradient id="linear-gradient-40" x1="60.78" y1="-499.86" x2="342.46" y2="-232.12" gradientTransform="matrix(0.95, 0.3, -0.3, 0.95, -114.18, 1358.73)" xlink:href="#linear-gradient-3"/><linearGradient id="linear-gradient-41" x1="608.66" y1="2128.1" x2="690.88" y2="2128.1" gradientTransform="translate(-135.21 498.45) rotate(6.16)" xlink:href="#linear-gradient-3"/><linearGradient id="linear-gradient-42" x1="765.66" y1="2152" x2="847.89" y2="2152" gradientTransform="translate(-135.21 498.45) rotate(6.16)" xlink:href="#linear-gradient-3"/><linearGradient id="linear-gradient-43" x1="302.12" y1="2155.83" x2="802.03" y2="2155.83" gradientTransform="translate(-176.91 -42.47) rotate(-1)" xlink:href="#linear-gradient-6"/><linearGradient id="linear-gradient-44" x1="285.01" y1="1586.56" x2="767.85" y2="1586.56" gradientTransform="translate(21.73 465.67) rotate(5.92)" xlink:href="#linear-gradient-6"/><linearGradient id="linear-gradient-45" x1="1274.85" y1="713.28" x2="336.27" y2="218.67" gradientTransform="translate(21.73 465.67) rotate(5.92)" gradientUnits="userSpaceOnUse"><stop offset="0" stop-color="#311944"/><stop offset="1" stop-color="#6b3976"/></linearGradient><linearGradient id="linear-gradient-46" x1="1264.13" y1="733.6" x2="325.57" y2="238.99" xlink:href="#linear-gradient-45"/><linearGradient id="linear-gradient-47" x1="372.46" y1="73.6" x2="1189.06" y2="591.04" gradientTransform="translate(-11.83 1058.17) rotate(14.31)" xlink:href="#linear-gradient-3"/><linearGradient id="linear-gradient-48" x1="437.78" y1="670.24" x2="1211.79" y2="1160.69" gradientTransform="translate(21.73 465.67) rotate(5.92)" xlink:href="#linear-gradient-3"/><linearGradient id="linear-gradient-49" x1="-7334.96" y1="883.09" x2="-7319.99" y2="484.32" gradientTransform="matrix(-1, -0.02, -0.02, 1, -6852.82, 102.77)" xlink:href="#linear-gradient-2"/><linearGradient id="linear-gradient-50" x1="505.33" y1="535.56" x2="517.59" y2="208.98" gradientTransform="translate(21.73 465.67) rotate(5.92)" xlink:href="#linear-gradient-2"/><linearGradient id="linear-gradient-51" x1="-7301.15" y1="1518.8" x2="-7305.18" y2="1844.08" gradientTransform="matrix(-0.99, 0.16, 0.17, 1.03, -7025.84, 374.4)" xlink:href="#linear-gradient-2"/><linearGradient id="linear-gradient-52" x1="1295.5" y1="674.09" x2="356.93" y2="179.48" xlink:href="#linear-gradient-45"/><linearGradient id="linear-gradient-53" x1="573.77" y1="-369.21" x2="1036.76" y2="-75.83" gradientTransform="matrix(0.95, 0.3, -0.3, 0.95, -114.18, 1358.73)" xlink:href="#linear-gradient-3"/><linearGradient id="linear-gradient-54" x1="1275.78" y1="711.48" x2="337.22" y2="216.87" xlink:href="#linear-gradient-45"/><linearGradient id="linear-gradient-55" x1="435.23" y1="-390.54" x2="347.32" y2="-286.78" gradientTransform="matrix(0.95, 0.3, -0.3, 0.95, -114.18, 1358.73)" xlink:href="#linear-gradient-2"/><linearGradient id="linear-gradient-56" x1="140.89" y1="-222.82" x2="623.69" y2="-222.82" gradientTransform="matrix(0.95, 0.3, -0.3, 0.95, -114.18, 1358.73)" xlink:href="#linear-gradient"/><linearGradient id="linear-gradient-57" x1="-4386.09" y1="-3311.41" x2="-4217.64" y2="-3311.41" gradientTransform="matrix(0.62, 0.78, -0.78, 0.62, 447.35, 6760.3)" xlink:href="#linear-gradient-2"/><linearGradient id="linear-gradient-58" x1="-10463.21" y1="1175.82" x2="-10294.75" y2="1175.82" gradientTransform="matrix(-0.79, 0.62, -0.62, -0.79, -7331.97, 8522.22)" xlink:href="#linear-gradient-2"/><linearGradient id="linear-gradient-59" x1="230.47" y1="-213.98" x2="108.85" y2="47.86" gradientTransform="matrix(0.95, 0.3, -0.3, 0.95, -114.18, 1358.73)" xlink:href="#linear-gradient-3"/></defs><title>Recurso 2</title><g class="cls-2"><g id="Capa_2" data-name="Capa 2"><g id="Illustration"><path class="cls-3" d="M553.91,1398.85l2.41,1.84c47.79,36.18,106.42,67.28,178.8,88.11L778.3,1498c20.38-30.92,34.22-64-6-88-62.41-37.21-34.11-156.34-5-193.67,36-46.21,117.66-155.52,22.08-214.57-79.57-49.16-141-64.62-118.94-177.47S649.25,626.7,546.61,607.86C438.61,588,387.15,424.63,288.18,450c-172.46,44.18-96.92,324.17,69.61,441.76s44,157.37,16,247.22c-38.16,122.66,136.69,138.5,168.78,198.56C553.45,1357.87,555.91,1379,553.91,1398.85Z"/><g class="cls-4"><g class="cls-5"><path class="cls-6" d="M649.84,1456.3l5.17.24C672,1078.66,505.42,694.42,220.4,453.75l-3.34,4C500.88,697.36,666.71,1080,649.84,1456.3Z"/><path class="cls-6" d="M641.43,1249.49l5,1.25c35.85-144.26,187.3-226,188.83-226.83l-2.43-4.57C831.31,1020.16,677.85,1103,641.43,1249.49Z"/><path class="cls-6" d="M651.06,1386.7l5-1.28c-37.46-146-298.67-230.24-301.31-231.07l-1.56,4.93C355.81,1160.1,614.32,1243.5,651.06,1386.7Z"/><path class="cls-6" d="M540.76,892.68l5.11-.85c-19.72-117.92,90.46-264.45,91.57-265.91l-4.11-3.14C632.2,624.27,520.68,772.58,540.76,892.68Z"/><path class="cls-6" d="M422.71,683.46l3.69-3.62C331,582.62,147,577.51,145.17,577.47l-.12,5.18C146.88,582.68,328.77,587.76,422.71,683.46Z"/></g></g><g class="cls-7"><path class="cls-8" d="M863.9,1645.35l-256.56-.87S559.5,1512.71,622.68,1420C751.61,1231,577,1131.26,510.14,1078.55,409.28,999.07,365.07,896.66,486.9,830.74,624.75,756.16,504.15,556,322.77,451.09,145.27,348.45,225.31-26.3,629.88,160.59c241.6,111.61,202.83,368,214,502.18S1054.54,808.7,985.72,972.29C926.94,1112,815.8,1213.7,900,1310.2S992.63,1514.59,863.9,1645.35Z"/><g class="cls-5"><path class="cls-9" d="M752.78,1668.79l-5.32-1c.61-3.3,61.1-333.67,22.31-679.26C734,670.15,604.27,273.32,189,190.9l1.06-5.31c184.85,36.69,329.46,137.64,429.83,300.06C700.09,615.4,752.32,784.42,775.17,988,814,1334.42,753.4,1665.48,752.78,1668.79Z"/><path class="cls-9" d="M658.92,555.34l-5.37-.69C676.43,375.84,609.14,121.5,608.46,119l5.23-1.4C614.37,120.11,681.93,375.48,658.92,555.34Z"/><path class="cls-9" d="M589.08,449c-181.94-114.21-352.47-60.29-354.17-59.73l-1.69-5.14c1.73-.57,174.57-55.33,358.74,60.28Z"/><path class="cls-9" d="M782.82,1215.85C723.13,960.28,376,896.48,372.6,896.14l.18-5.41c3.4,0,355.09,66,415.31,323.88Z"/><path class="cls-9" d="M784.86,1107.65l-5.3-1.12c34.66-163.85,212.89-276.06,214.69-277.17l2.85,4.6C995.32,835.06,819,946.09,784.86,1107.65Z"/><path class="cls-9" d="M755.83,1615.59c-7.47-99.41-149.11-178.59-150.53-179.38l2.61-4.74c5.94,3.27,145.63,81.37,153.32,183.72Z"/><path class="cls-9" d="M771.21,1537.55l-5.34-.93c13.53-77.66,131.28-163.82,170-192.13,5.47-4,10.19-7.46,10.91-8.24l4,3.61c-1,1.12-4.13,3.43-11.74,9C900.78,1376.85,784.36,1462,771.21,1537.55Z"/></g></g><path class="cls-10" d="M2029.27,1499.3c28.24,61,1.33,122-24.5,163-6.16,0-9.74,1.75-16,3.26-56.17,13.67-82.51,6.71-139.61,10.85-12.29.89-48.81-8.27-63.47-13l-27.21-9.38s-48.27-148.33,27.59-189.31,46.81-188.59,40.45-269.11C1809.3,977.16,2045.37,997,2045.63,714.52c.07-75.13-24.91-218.43,38.43-278.28,72.17-68.17,124.85-1.29,171.25-58.31,72.53-89.11,190.22-121.07,260.37-29.37,69.24,90.51-14.89,270.68-224,415.49-138.27,120.88-140.44,157.07-129.55,245.2,7.62,61.72,66.5,222.53-17.28,286.74S1997,1429.59,2029.27,1499.3Z"/><g class="cls-11"><g class="cls-5"><path class="cls-6" d="M1878.93,1678.75l-4.17-.53c3.1-24.83,6.53-49.85,10.19-74.34,27.17-181.33,70.28-353.55,128.13-511.91,49-134.17,109.3-260.28,179.15-374.82C2248.41,625,2311.05,539.87,2378.42,464c47.37-53.32,96.56-101.53,146.22-143.27,8.65-7.28,17.91-14.24,26.86-21,11.93-9,24.26-18.24,35.26-28.34l2.84,3.1c-11.15,10.24-23.56,19.57-35.57,28.59-8.91,6.7-18.12,13.62-26.68,20.83-49.51,41.61-98.56,89.67-145.78,142.84-67.21,75.67-129.71,160.64-185.75,252.54C2126.11,833.64,2066,959.5,2017,1093.42c-57.76,158.08-100.8,330-127.92,511.08C1885.45,1629,1882,1653.94,1878.93,1678.75Z"/><path class="cls-6" d="M2116.61,862.19l-3.81-1.79c76.6-163.24,9.34-464.83,8.65-467.86l4.1-.93C2126.24,394.65,2193.81,697.64,2116.61,862.19Z"/><path class="cls-6" d="M1942.38,1337.62l-4-1.32c39.07-117,258.16-207.37,260.37-208.27l1.59,3.89C2198.16,1132.81,1980.84,1222.42,1942.38,1337.62Z"/><path class="cls-6" d="M1926,1405.94l-4.15-.6c11.59-79.7-15.18-194.59-75.39-323.49-3-6.48-3-6.48-2.93-7.27l4.17.55-2.09-.28,2-.52c.15.46,1.3,2.91,2.62,5.74C1910.76,1209.71,1937.66,1325.44,1926,1405.94Z"/><path class="cls-6" d="M1885.22,1633.49l-3.81-1.76c37.36-80.46,165-112.22,166.32-112.53l1,4.08C2047.46,1523.59,1921.72,1554.88,1885.22,1633.49Z"/><path class="cls-6" d="M1872.58,1679.07c-15.83-69.76-52.21-137.25-111.22-206.34l3.2-2.73c59.46,69.62,96.13,137.7,112.11,208.14Z"/><path class="cls-6" d="M2342.62,512.13l-3.7-2c47.64-88.39,77.21-192.29,86.92-226.44,2.35-8.26,3.19-11.17,3.66-12.13l3.78,1.84c-.35.74-1.7,5.46-3.4,11.44C2420.14,319.11,2390.48,423.34,2342.62,512.13Z"/><path class="cls-6" d="M2243.9,644.38l-3-3c67.11-66.06,255.4-63.94,263.39-63.82l-.07,4.2C2502.34,581.74,2309.75,579.56,2243.9,644.38Z"/></g></g><g class="cls-12"><path class="cls-13" d="M1696.07,2027.61l244.81,76.74s85.45-111.14,53.24-218.58c-65.73-219.19,130.83-261.46,210.52-291.48,120.16-45.27,193.27-129.52,97.07-229.19-108.85-112.77,66.63-267.11,271.23-312.26,200.22-44.18,237.22-425.58-204.91-369.76-264,33.34-304.61,289.49-355.85,414s-244.88,75.41-228.74,252.16c13.78,151,89,281.48-20.48,348S1612.9,1864.05,1696.07,2027.61Z"/><g class="cls-5"><path class="cls-9" d="M1794.9,2083.54l5.38.67c.41-3.33,42.63-336.53,184.09-654.23,130.32-292.68,374-631.7,794.72-584.72l.6-5.38C2592.4,819,2424,871.48,2279.25,996c-115.65,99.44-216.54,244.76-299.87,431.93C1837.62,1746.31,1795.31,2080.21,1794.9,2083.54Z"/><path class="cls-9" d="M2221,1050.58l5.33,1c32.25-177.36,173.29-399.46,174.71-401.68l-4.56-2.92C2395.05,649.19,2253.44,872.18,2221,1050.58Z"/><path class="cls-9" d="M2319.74,970.29c208-53.87,354.2,49.09,355.65,50.14l3.17-4.39c-1.47-1.07-149.67-105.52-360.18-51Z"/><path class="cls-9" d="M1903.21,1642.72c134.16-225.56,484.3-181.44,487.68-180.73l1.46-5.2c-3.25-1-358.44-44.4-493.8,183.16Z"/><path class="cls-9" d="M1934,1539l5.39.53c16.5-166.65-119.47-327.5-120.85-329.1l-4.11,3.52C1815.77,1215.51,1950.25,1374.64,1934,1539Z"/><path class="cls-9" d="M1808.08,2031.92c37.18-92.5,196.12-125.16,197.72-125.48l-1.06-5.31c-6.65,1.32-163.41,33.54-201.69,128.77Z"/><path class="cls-9" d="M1817,1952.88l5.36.73c10.58-78.12-75.6-195.85-103.92-234.53-4-5.47-7.46-10.19-7.91-11.15l-4.94,2.22c.62,1.37,2.9,4.51,8.48,12.13C1742.09,1760.53,1827.3,1876.93,1817,1952.88Z"/></g></g><path class="cls-14" d="M1927.79,2089.62l-2.75,1.28c-54.45,25.07-118.38,42.85-193.55,47.64l-44.15-.3c-13.26-34.57-19.68-69.84,24.72-84.61,68.94-22.94,66.89-145.37,46.49-188.08-25.24-52.86-81.5-177.16,24.53-214.3,88.27-30.92,151.55-32.83,154.28-147.78s63.19-188.45,167.47-184.81c109.74,3.84,195.1-144.7,286.31-98.67,158.94,80.19,25,337.41-162.88,416.48s-76.74,144.26-68.74,238c10.92,128-163.24,105.9-207.49,157.67C1937,2049.69,1930.11,2069.78,1927.79,2089.62Z"/><g class="cls-15"><g class="cls-5"><path class="cls-6" d="M1821.76,2125.13l-5.1-.89c64.63-372.69,309.81-712.19,639.87-886l2.41,4.58C2130.27,1415.9,1886.12,1754,1821.76,2125.13Z"/><path class="cls-6" d="M1874.4,1925l-5.17.14c-4-148.59-134.38-261-135.7-262.1l3.35-3.94C1738.22,1660.18,1870.31,1774,1874.4,1925Z"/><path class="cls-6" d="M1835.52,2056.89l-4.62-2.33c67.94-134.53,341.16-160.71,343.91-161l.47,5.16C2172.56,1899,1902.17,1924.92,1835.52,2056.89Z"/><path class="cls-6" d="M2049.36,1598.09l-4.8-1.93c44.59-110.93-31.54-277.7-32.32-279.37l4.7-2.18C2017.72,1316.3,2094.78,1485.11,2049.36,1598.09Z"/><path class="cls-6" d="M2209.6,1419.12l-2.83-4.33c114.09-74.45,294.85-39.93,296.66-39.57l-1,5.08C2500.64,1379.94,2321.91,1345.83,2209.6,1419.12Z"/></g></g><path class="cls-16" d="M2035.1,112.05V2625.23c0,37.58-32.11,45.67-68.52,46.86l-1247.9,64.54-18.9.62a68.14,68.14,0,0,1-70.59-68.4V68.43A68.14,68.14,0,0,1,699.78,0l25.65.84L1977.9,98.29C2014.31,99.48,2035.1,74.47,2035.1,112.05Z"/><path class="cls-17" d="M2074,112.05V2625.23c0,37.58-29.74,69.31-66.15,70.5L738.65,2737.25a68.14,68.14,0,0,1-70.58-68.4V68.43A68.14,68.14,0,0,1,738.65,0L2007.83,41.56C2044.24,42.75,2074,74.47,2074,112.05Z"/><path class="cls-18" d="M2032.9,250.21V2578.37c0,35.09-27.79,64.67-61.81,65.74L777.66,2681.6a63.55,63.55,0,0,1-65.7-63.81v-2404a63.73,63.73,0,0,1,65.7-64l1193.43,34.81C2005.11,185.61,2032.9,215.13,2032.9,250.21Z"/><path class="cls-19" d="M1406.58,99A22.91,22.91,0,0,1,1383,122.28c-13-.39-23.6-11.46-23.6-24.72A22.93,22.93,0,0,1,1383,74.3C1396,74.71,1406.58,85.77,1406.58,99Z"/><path class="cls-20" d="M1847.7,1664.06l-953.14,12.78a21.47,21.47,0,0,1-21.82-21.54V1446.59a22,22,0,0,1,21.82-22l953.14-6.44a20.82,20.82,0,0,1,20.72,21.12v203.24C1868.42,1654.26,1859.15,1663.91,1847.7,1664.06Z"/><path class="cls-20" d="M1845.53,2048.5l-948.69,22.58a23.44,23.44,0,0,1-24.1-23.55V1843.39a24.62,24.62,0,0,1,24.1-24.54l948.69-16.27c12.65-.22,22.89,10.12,22.89,23.09v198.8C1868.42,2037.44,1858.18,2048.2,1845.53,2048.5Z"/><path class="cls-21" d="M1751.46,794.53c0,209.49-166.64,379.34-374.27,379.37-210,0-381.89-173.22-381.89-387s171.94-383.54,381.89-379.28C1584.82,411.85,1751.46,585.05,1751.46,794.53Z"/><path class="cls-22" d="M1531.51,677.23c0,86.31-68.92,155.64-154.22,154.84-85.6-.8-155.23-71.89-155.23-158.78s69.63-156.21,155.23-154.83C1462.59,519.83,1531.51,590.91,1531.51,677.23Z"/><path class="cls-23" d="M1377.19,1173.9a370.16,370.16,0,0,0,240.33-88.17c-22.06-114.11-121-200.89-240.33-201.8-120.14-.91-220.84,85.38-243.45,200.74C1200,1140.44,1285,1173.91,1377.19,1173.9Z"/><path class="cls-24" d="M1508.39,1575.29,988.2,1581A31.91,31.91,0,0,1,956,1549h0a32.71,32.71,0,0,1,32.19-32.59l520.19-4.78c17.2-.16,31.26,14,31.26,31.5h0C1539.65,1560.64,1525.59,1575.1,1508.39,1575.29Z"/><path class="cls-25" d="M1033.84,1941.6a42.1,42.1,0,0,1-40.95,42,40.06,40.06,0,0,1-41-40.28,42.09,42.09,0,0,1,41-42A40.07,40.07,0,0,1,1033.84,1941.6Z"/><path class="cls-26" d="M1187.21,1938.46c0,22.6-18.17,41.31-40.62,41.79a39.81,39.81,0,0,1-40.7-40.12c0-22.65,18.23-41.36,40.7-41.8A39.82,39.82,0,0,1,1187.21,1938.46Z"/><path class="cls-27" d="M1339.35,1935.35c0,22.5-18,41.14-40.29,41.62a39.58,39.58,0,0,1-40.38-40c0-22.55,18.09-41.19,40.38-41.62A39.58,39.58,0,0,1,1339.35,1935.35Z"/><path class="cls-28" d="M1490.26,1932.26c0,22.42-17.88,41-40,41.45s-40-17.35-40-39.81,17.94-41,40-41.45S1490.26,1909.85,1490.26,1932.26Z"/><path class="cls-29" d="M1640,1929.2c0,22.32-17.74,40.8-39.65,41.27s-39.73-17.28-39.73-39.65,17.79-40.85,39.73-41.28S1640,1906.87,1640,1929.2Z"/><path class="cls-21" d="M1377.13,1183.2c-104.13,0-202.23-41.22-276.23-116.08S986,892.66,986,786.92c0-106.63,41.4-205.92,116.57-279.58,73.87-72.39,171.44-111.12,274.81-109,102.79,2.09,199.21,44.46,271.49,119.31a396.65,396.65,0,0,1,111.89,276.89c0,103.87-39.76,201.45-112,274.75S1480,1183.18,1377.19,1183.2Zm-7.71-766.34c-95.5,0-185.37,36.67-253.83,103.76-71.58,70.14-111,164.71-111,266.3,0,100.81,38.89,195.68,109.52,267.12,70.48,71.29,163.89,110.56,263,110.56h.06c201.24,0,365-166,365-370.06S1578.35,421,1377,416.93C1374.48,416.88,1371.94,416.86,1369.42,416.86Z"/><path class="cls-30" d="M2074,110.62a69.13,69.13,0,0,0-66.87-69.09L1315,18.89c256.73,272.06,314.45,500.32,321,656.3,18.81,445.24-364.76,639.22-293.44,1126.14,19.56,133.48,62.79,217.32,79.68,447.91a2200.06,2200.06,0,0,1-15.64,466.15l601.2-19.66c36.41-1.2,66.15-32.92,66.15-70.5Z"/><path class="cls-31" d="M1049.21,1364.94c7.3-214.47-66.19-304.13-85.67-326.09-13.75-15.51-26.49-26.5-121.59-105C771.3,875.51,712.41,827.16,670.62,792.91l-2.55,1802.42c28.47-230.61,83.19-404.53,124.83-515.58C909.45,1768.87,1039.85,1640.12,1049.21,1364.94Z"/><path class="cls-32" d="M2271.09,2218.88c41.62-25.15,24.18-158.4-37-250.19-86.88-130.35-268.74-187.32-304-146.21-36.14,42.07,78,190.66,96.5,214.79C2093.78,2124.83,2221.85,2248.63,2271.09,2218.88Z"/><path class="cls-33" d="M2743.77,2770c-7.14,9.44-7.51,25.69.08,33s17.11.44,46-1.27c31-1.83,39.7,4.75,60.18-2.91,8.27-3.1,22.74-10.12,21.92-16.15-.58-4.25-8.4-5.77-34.64-12-37.23-8.89-37.13-9.57-44.92-10.15C2772.84,2759.06,2753.19,2757.57,2743.77,2770Z"/><path class="cls-34" d="M2743.18,2719l32.53,43.14c-.14,3-11.76,17.18-26.53,16.39l-39.08-39.1Z"/><path class="cls-35" d="M2575.69,2879.88c-6.93,9.59-7,25.84.78,33s17.11.08,46-2.24c30.94-2.48,39.79,3.91,60.1-4.18,8.21-3.27,22.53-10.59,21.58-16.61-.67-4.23-8.52-5.58-34.88-11.29-37.41-8.11-37.33-8.79-45.13-9.21C2604.53,2868.29,2584.85,2867.22,2575.69,2879.88Z"/><path class="cls-36" d="M2574.44,2829.82,2607,2873c-.14,3-11.76,17.18-26.53,16.38l-39.08-39.1Z"/><path class="cls-37" d="M1589.41,1843.88a674.83,674.83,0,0,1,216.17-44.46c104.52-3.9,188.47-7,248.28,40.2,199,157.15,101.44,571.28,87.06,617.35-17.1,54.79-49.64,92-49.64,92a234.88,234.88,0,0,1-49,42.24c-149.69,99-242.73,160.61-341,135.45-13.07-3.35-72.47-24-105.26-73.37-5.84-8.81-9.5-20.1-10.42-35.87C1570.32,2356.74,1601.06,2095,1589.41,1843.88Z"/><path class="cls-38" d="M1675.23,2154.6c-20-54.58.67-117.08-43.8-144.34-16.3-10-36.55-14.21-58.6-13.72,2.73,191.89,6.59,383.6,11.36,583.85,1.57,66.15,9.84,69.42,74,127.35,74.32,67.13,135.48,45.49,245.27,23.46-143.85-88.37-179.63-136.43-165-215,17.07-91.46,184.53-118.54,177.76-183.56C1909.07,2263.77,1718.87,2273.93,1675.23,2154.6Z"/><path class="cls-39" d="M1635.31,1847.35c-49.42-27.6-163,50.92-225.13,118.61-28.86,31.46-129.32,141-98.07,281.93,5.09,23,28.6,130.35,133.23,179.47,93.69,44,217.34,27.14,314.26-43.74q19.77-17.07,39.55-34.14l38.64-40.58a332.81,332.81,0,0,0-108.85-49.09c-77.25-19.37-112,7.76-131.1-13.27-23.5-25.89,28.9-70.53,42.63-184.51C1644.18,2031.27,1690.5,1878.18,1635.31,1847.35Z"/><path class="cls-40" d="M1725,2695.18c6.08,108.6,46.91,48.45,139.33-49,97.34-102.62,326.37-283,479.24-214.13,113.85,51.29,102.8,203,284.81,298.22a446.67,446.67,0,0,0,77.37,31.61l59.16-54.71c-10.58-56.71-57.82-273-255.29-409.26-47.74-33-138.85-96.43-254.06-94.95C1944.1,2207,1719.41,2595,1725,2695.18Z"/><path class="cls-41" d="M1581.52,2644.8c1.3,63.19,42.56,121.11,89,149.39,103.19,62.78,257.72-5,344.27-74.22,105.32-84.27,105.28-166.84,159.09-166.43,83.63.63,98.21,200.59,284.82,298.21a447.38,447.38,0,0,0,77.37,31.62l59.15-54.71c-32.36-122.45-82.46-211.43-119.41-266.81-46.08-69.07-90.44-135.55-176.34-183.74-90.45-50.74-176.88-53.09-213.59-53.66C1854.3,2320.84,1578.12,2480,1581.52,2644.8Z"/><polygon class="cls-42" points="2210.28 2265.24 1636.9 2368.64 1803.29 2412.24 2219.04 2302.22 2210.28 2265.24"/><path class="cls-43" d="M1619.7,2387.78h0a25.92,25.92,0,0,0,21.43,20.63l196.71,35.85-8.89-49.81-192-25.81A16.11,16.11,0,0,0,1619.7,2387.78Z"/><path class="cls-44" d="M1711.83,2342.78c-3.66-.09,8.91-45.18,26-43.61s105.17,31.93,116.06,49.4l10.89,17.47s-34,9.45-56.79,6.45S1741.61,2343.56,1711.83,2342.78Z"/><path class="cls-45" d="M1811.38,2036.64l-12.59,375.92c-.43,13,19,30.77,31.92,29.17l597.85-82.57a21.11,21.11,0,0,0,18.43-19l48-365.8c1.25-13.28-23.33-25-36.59-23.64l-628.11,65.59A21.12,21.12,0,0,0,1811.38,2036.64Z"/><path class="cls-46" d="M1825.93,2046.47l-12.58,375.92a21.12,21.12,0,0,0,23.7,21.67L2443.12,2369a21.12,21.12,0,0,0,18.43-19l34.62-366.44a21.12,21.12,0,0,0-23.22-23l-628.1,65.59A21.12,21.12,0,0,0,1825.93,2046.47Z"/><path class="cls-47" d="M2204.4,2299.29c-54.82-18.47-39.34-62.83-106.13-111.54-88.1-64.27-170.11-27.26-203.79-79.7-10.49-16.34-16.9-42.51-4.15-86.63l-45.48,4.75a21.12,21.12,0,0,0-18.92,20.3l-12.58,375.92a21.12,21.12,0,0,0,23.7,21.67L2443.12,2369a21.12,21.12,0,0,0,18.43-19l4.78-50.57a230.27,230.27,0,0,0-68.13-19.79C2307.58,2268.35,2267.52,2320.55,2204.4,2299.29Z"/><path class="cls-48" d="M1810,1656.25a453.77,453.77,0,0,1-4.7,90.83c-3.79,24.29-6.93,30.64-11,35.86a39.54,39.54,0,0,1-2.79,3.13c-3.78,3.78-51.31,13-65.31,16.31-1.49.34-28.92,7-36.8,21.76a3.08,3.08,0,0,0-.28.83c-2.71,14.75,81.55,61.52,166.22,46.32,51.82-9.3,98.11-40.79,94.62-56.29s-55.24-5.23-71.81-33.07c-11.53-19.36-.49-47.88,12.94-71.66C1876.22,1684.85,1824.81,1681.67,1810,1656.25Z"/><path class="cls-49" d="M1921.17,1701.43c33.11-9.61,54.47-123.64,26.61-137.42-13.32-6.6-23.19,17-76.29,38.14-42.5,16.91-60.46,11.45-72.23,30.1-11.62,18.42-4.47,45.1-.81,64,1.58,8.21,6.9,12.08,11.09,19,5.8,9.52,14.85,24.62,29.51,49.77a137.21,137.21,0,0,1,12.26-20.44c2.1-2.87,10.43-14.07,35.1-30.83C1902.17,1703,1917.38,1702.53,1921.17,1701.43Z"/><path class="cls-50" d="M1815.44,1741.35s13.63,39.8,56.81,46.43c38.66,5.94,63.12-78.3,42.79-101.81-6.79-7.85-22.5-14-36.54-13.17-8.3.47-11.66,3.13-25.23,3.62-12.52.46-15.57-1.59-19.81.62-5.3,2.78-10.61,11.28-8.66,37.91-5.65-9-13.75-13.72-20.58-12.17a13.31,13.31,0,0,0-6.17,3.83C1790.57,1715.19,1796.73,1729.63,1815.44,1741.35Z"/><path class="cls-51" d="M1832.87,1671.55c1.54,1.78-5.6,7.39-8.16,17-5,18.66,9.1,45.48,28.13,51.7,11.25,3.67,15.94-2.56,35.4-.37a89.3,89.3,0,0,1,27.38,7.73c1.41,22-8.76,41.34-24.68,47.85-17.15,7-34.76-3.44-42.13-7.8-4.92-2.92-20.72-12.24-26.17-29.82-5.67-18.31,5.59-26.11-2.61-39.46-4.14-6.74-10.66-10.7-15.14-23a54.71,54.71,0,0,1-2.27-8.1C1814.76,1679.1,1830.65,1669,1832.87,1671.55Z"/><path class="cls-52" d="M1900.09,1752.22s-9.18,2.48-23.23-1.46c-.68-.19-1.49-.16-1.65.18-.63,1.28,7.16,9.34,16.09,8.84,6.34-.36,12.23-5,11.75-6.6C1902.84,1752.5,1901.47,1752.28,1900.09,1752.22Z"/><path class="cls-53" d="M7.4,1300.6c-15.89-46.68-4.76-100.34,19.76-137.85,41.44-63.37,95.46-41.35,149.56-111.63,35-45.46,66.84-84.29,105.69-113.36C311,916.36,378.64,892.13,405.06,909c79.07,50.33-66,478.85-225.93,503.24C115.14,1422,31.29,1370.76,7.4,1300.6Z"/><path class="cls-54" d="M310.79,2653.81A111,111,0,0,1,321,2692.43a108.83,108.83,0,0,1-.24,19.38c-4.64,6.84-26.34,30.33-55.64,36.13-18.13,3.58-47.52-11.79-14.23-32.59s38.27-25.8,28.48-79c-2.51-13.68-1.52-18.69.62-19.65C285,2614.48,299.34,2635.46,310.79,2653.81Z"/><path class="cls-55" d="M464.32,2694.42A110.87,110.87,0,0,1,474.56,2733a108.82,108.82,0,0,1-.24,19.38c-4.64,6.84-26.34,30.33-55.64,36.13-18.13,3.59-47.52-11.78-14.23-32.58s38.27-25.81,28.48-79c-2.51-13.68-1.52-18.68.62-19.65C438.57,2655.1,452.87,2676.07,464.32,2694.42Z"/><path class="cls-56" d="M624,1583.6l33,201.09a1903.28,1903.28,0,0,0-65.52,207.11c-68.61,269.52-111.4,529.11-114.53,715.06l-45.31,16.39c-27.06-102.18-18.88-256.69-42.94-438.89-28.43-215.26-9.1-383.54-19-384.13-9.49-.57-36.05,153.49-36.1,329.42-.05,186-21.44,335.71-7.65,443.21l-54.29,3.24c-50.11-142.15-72-311.52-97.38-535.47-17.62-155.52-38.41-362.12,65.49-575.28,10.38-21.28,46.6-68.53,53.39-80.2C412.33,1507.94,504.84,1560.81,624,1583.6Z"/><path class="cls-57" d="M591.49,1991.8A1903.28,1903.28,0,0,1,657,1784.69L624,1583.6c-119.14-22.79-211.65-75.66-330.8-98.45-6.79,11.67-43,58.92-53.39,80.2-35,71.86-55.84,143-67.42,211.62,230.51-2.52,297.22,45.48,315.58,89.73,29.24,70.43-59.68,141.86-28.22,284.4,9.46,42.87,23.59,64,25.25,117.7,2.18,70.47-20.82,77.31-24.42,149-3.94,78.44-31.11,155.1-18.37,210.7a683.91,683.91,0,0,0,24.32,82.16l10.45-3.79C480.09,2520.91,522.88,2261.32,591.49,1991.8Z"/><path class="cls-58" d="M525.22,653.43c7.39,9.88-3.59,23.13-5.78,71.37a339.2,339.2,0,0,0,1.81,53.71c.42,11.89,1.09,22.92,2,32.66.68,7.14,1.41,12.73,2.44,18.67a227.9,227.9,0,0,0,8.09,32.49,1.4,1.4,0,0,1-.77,1.73l-.12.05a1.41,1.41,0,0,1-1.78-.9,231.86,231.86,0,0,1-8.2-32.89c-1-6-1.78-11.67-2.46-18.89-.49-5.13-.9-10.64-1.25-16.41a151.84,151.84,0,0,0,3.5,54.43c16.41,68.08-36.43,112.89-78.08,114.69-48,2.07-80.58-36-90.65-48.44-40.58-50.2-48.39-132-10.23-191.84C393.76,645.48,507.1,629.22,525.22,653.43Z"/><path class="cls-59" d="M403.77,719c2.05-7.61,11.35-38.64,39.75-58.09,53.88-36.9,140.24-7.29,189.76,36.17,51.82,45.47,30.27,76.93,81.2,127.43,55.33,54.84,94.15,30.89,171,83.87,30.25,20.83,111.75,77,117.2,164.6,4.71,75.7-48.83,151.51-114.34,180.76-112.15,50.07-252.59-39.35-318.86-121.59-63.55-78.86-20.67-98.17-111-250.49C425.82,826.55,388.41,775.83,403.77,719Z"/><path class="cls-60" d="M323,939.77c-41,41.47-52,91.33-55.23,113.61-10,69.32,17.19,125.87,23.58,140.72,30.21,70.18,19.09,208.5-157,506.36,16.74,14,74.45,117.23,101.75,67.7,37.21-67.52,206.05-542.64,43.21,20.4-2.14,7.42,14.45,5.93,22,8.74a530.31,530.31,0,0,0,192.84,34c115.68-1.44,203.82-40.64,250.41-65.85a1058.61,1058.61,0,0,1-78.82-294.37c-27-230.84,29.18-417,68.33-517.4-35.7-24.68-148.78-96.15-282.56-73C418.11,886.37,366.1,896.08,323,939.77Z"/><path class="cls-61" d="M665.68,1471.06c-27-230.84,29.18-417,68.33-517.4-35.7-24.68-148.78-96.15-282.56-73-33.34,5.76-85.35,15.48-128.5,59.16-32.62,33-46.23,71.31-52.06,96.81,1-.17,2.37-.39,4-.62,82.4-11.37,177.56,54.91,210.09,117.62,54.29,104.64-70.6,190.14-67.48,356,1.69,89.65,40.66,195.65,159.77,314a549.57,549.57,0,0,0,167.23-58.15A1058.42,1058.42,0,0,1,665.68,1471.06Z"/><path class="cls-62" d="M482.72,797.59C471,821.41,461.08,851.21,474,871.2c7.87,12.18,20.91,19,33.78,25.36,30.41,15.11,44.53,9,50.53,18.14,13.22,20.18-24.2,97.17-85.23,103.86-60.74,6.65-115.71-59.53-106.57-87.48,8.25-25.22,68.05-17.31,78.74-49.19,5.38-16-4.48-33.86-13.12-45.93l-7.15.63Z"/><path class="cls-63" d="M558.31,914.7c-6-9.17-20.12-3-50.53-18.14-12.87-6.39-25.91-13.18-33.78-25.36-12.92-20-3-49.79,8.72-73.61l-57.74,39,7.15-.63c6.86,9.58,14.35,22.78,14.52,35.84A50,50,0,0,1,456.9,881a132.45,132.45,0,0,0-11.7,41.61c-1.62,15-2.82,26.07,3.6,36.57,7,11.45,19,15.47,29.43,19,23.24,7.79,45,5.2,59.23,1.78C557.18,955.27,565.73,926,558.31,914.7Z"/><path class="cls-64" d="M472.07,820.55s2,30.59-27.75,35.71c-36.69,6.31-56.9-89.89-48.9-96.91,9.29-8.15,21,6.06,44.14-3.43,9.77-4,16.36-18.51,23.85-5.31,8.52,15,8.29,44.17,8.29,44.17s7.53-8.64,10.31-.21C485.65,805.6,478.33,814.1,472.07,820.55Z"/><path class="cls-65" d="M417.34,709.13c-13,10.76-21.88,33.34-14.95,45.87,10,18,46.37,4.06,58.4,26.06,5.27,9.64,3.61,22.1,6.85,22.23,2.68.11,5.15-8.39,7.43-15.35,12.53-38.4,22.77-41.79,20.95-53.34C492.33,711.12,444,687,417.34,709.13Z"/><path class="cls-66" d="M632.91,950.36c40.46,2.56,44.53-9.57,89.31,23.24,128.59,94.2,212,359.92,84.49,488.34-70.93,71.43-200.36,115-310.47,60.52-89.64-44.38-122.7-132.12-130.73-155.61q2.22-35.32,4.43-70.66c50.35,54.32,93.6,68,125,69.72,53.41,2.86,75.59-29,166.94-34,35.59-2,55.47,1.59,59.62-8.09,8.58-20-69.09-52.28-105.66-111.63C589.15,1168.89,573,1092.84,632.91,950.36Z"/><path class="cls-67" d="M475.1,751.62c-9.12,8.11,5.77,39.62,35.94,102.3,18.57,38.59,27.85,57.88,34.22,66.46,34.26,46.22,96.07,85.49,162.38,88.66,45.5,2.17,53.92-14.53,90.36-4.5,55,15.13,82,65.85,84.8,63.62,3.09-2.47-26.76-66.9-94.06-125-55.07-47.56-72.5-36.75-159.84-103.76-6.34-4.86-33.15-25.56-71.3-49.68C512.75,761.35,484.17,743.56,475.1,751.62Z"/><path class="cls-68" d="M117.09,1106.5l93.52,231.35a14.85,14.85,0,0,0,9.42,9l107.8,34.24a14.82,14.82,0,0,0,18.82-17.9L289,1144.45c-1.32-5-5.09-16.12-14.64-19.15l-131.31-38C131.36,1083.88,112.86,1095.05,117.09,1106.5Z"/><path class="cls-69" d="M115.91,1110.16l82.8,223.91a14.83,14.83,0,0,0,9.41,9l107.81,34.24a14.82,14.82,0,0,0,18.82-17.9l-57.63-218.73A14.85,14.85,0,0,0,267,1130.23l-133-39.42A14.82,14.82,0,0,0,115.91,1110.16Z"/><path class="cls-70" d="M375.7,1315.13l-11.34-10.58s-16.12-22-28.26-32.72-24-12.83-36.92-2.56-1.94,27.27,7.37,42.09c5.67,9,21.65,14.74,34.95,18.2,9.36,2.43,25.73,14.64,25.73,14.64Z"/><path class="cls-71" d="M128.48,1213.91l10.68-11.25s22.18-15.94,33-28,13-23.93,2.85-36.9-27.25-2.17-42.15,7c-9.06,5.6-14.91,21.53-18.48,34.8-2.5,9.34-14.85,25.61-14.85,25.61Z"/><path class="cls-72" d="M97.71,1191.17l41.47,20.67c4.23,5.39,54.6,71.51,27.71,134.91-3.5,8.25-16.72,39.43-42.8,45-40.25,8.52-98.88-46.65-97-105.87C28.37,1246.15,56.66,1209.68,97.71,1191.17Z"/></g></g></g></svg>